<svg width="450" height="454" viewBox="0 0 450 454" fill="none" xmlns="http://www.w3.org/2000/svg">
<g filter="url(#filter0_d_63_2665)">
<rect x="40" y="10" width="350" height="354" rx="20" fill="white"/>
</g>
<path d="M87.9649 213.624C86.2849 213.624 84.8129 213.264 83.5489 212.544C82.3009 211.824 81.3409 210.808 80.6689 209.496C79.9969 208.168 79.6609 206.616 79.6609 204.84C79.6609 203.08 79.9969 201.544 80.6689 200.232C81.3409 198.904 82.3009 197.888 83.5489 197.184C84.8129 196.464 86.2849 196.104 87.9649 196.104C89.1169 196.104 90.1969 196.288 91.2049 196.656C92.2289 197.008 93.0769 197.504 93.7489 198.144L92.7409 200.4C91.9729 199.776 91.2049 199.328 90.4369 199.056C89.6849 198.768 88.8769 198.624 88.0129 198.624C86.3649 198.624 85.0849 199.16 84.1729 200.232C83.2769 201.304 82.8289 202.84 82.8289 204.84C82.8289 206.856 83.2769 208.408 84.1729 209.496C85.0689 210.568 86.3489 211.104 88.0129 211.104C88.8769 211.104 89.6849 210.968 90.4369 210.696C91.2049 210.408 91.9729 209.952 92.7409 209.328L93.7489 211.584C93.0769 212.224 92.2289 212.728 91.2049 213.096C90.1969 213.448 89.1169 213.624 87.9649 213.624ZM101.688 213.6C100.456 213.6 99.3682 213.344 98.4242 212.832C97.4962 212.32 96.7762 211.592 96.2642 210.648C95.7682 209.688 95.5202 208.568 95.5202 207.288C95.5202 206.008 95.7682 204.896 96.2642 203.952C96.7762 202.992 97.4962 202.256 98.4242 201.744C99.3682 201.232 100.456 200.976 101.688 200.976C102.904 200.976 103.976 201.232 104.904 201.744C105.832 202.256 106.544 202.992 107.04 203.952C107.552 204.896 107.808 206.008 107.808 207.288C107.808 208.568 107.552 209.688 107.04 210.648C106.544 211.592 105.832 212.32 104.904 212.832C103.976 213.344 102.904 213.6 101.688 213.6ZM101.664 211.248C102.688 211.248 103.464 210.92 103.992 210.264C104.536 209.592 104.808 208.6 104.808 207.288C104.808 205.992 104.536 205.008 103.992 204.336C103.448 203.648 102.68 203.304 101.688 203.304C100.68 203.304 99.9042 203.648 99.3602 204.336C98.8162 205.008 98.5442 205.992 98.5442 207.288C98.5442 208.6 98.8082 209.592 99.3362 210.264C99.8802 210.92 100.656 211.248 101.664 211.248ZM117.331 200.976C120.227 200.976 121.675 202.64 121.675 205.968V213.408H118.675V206.112C118.675 205.152 118.491 204.456 118.123 204.024C117.755 203.576 117.187 203.352 116.419 203.352C115.507 203.352 114.771 203.648 114.211 204.24C113.651 204.816 113.371 205.584 113.371 206.544V213.408H110.395V204.72C110.395 203.44 110.331 202.296 110.203 201.288H113.011L113.227 203.28C113.643 202.544 114.203 201.976 114.907 201.576C115.627 201.176 116.435 200.976 117.331 200.976ZM129.296 213.6C127.104 213.6 125.36 213.088 124.064 212.064L124.904 209.952C126.2 210.912 127.68 211.392 129.344 211.392C130.064 211.392 130.616 211.272 131 211.032C131.4 210.792 131.6 210.456 131.6 210.024C131.6 209.656 131.464 209.368 131.192 209.16C130.92 208.936 130.456 208.744 129.8 208.584L127.784 208.128C125.576 207.648 124.472 206.52 124.472 204.744C124.472 204.008 124.68 203.36 125.096 202.8C125.512 202.224 126.096 201.776 126.848 201.456C127.6 201.136 128.472 200.976 129.464 200.976C130.328 200.976 131.16 201.112 131.96 201.384C132.76 201.64 133.464 202.016 134.072 202.512L133.184 204.552C131.968 203.656 130.72 203.208 129.44 203.208C128.752 203.208 128.216 203.336 127.832 203.592C127.448 203.848 127.256 204.2 127.256 204.648C127.256 205 127.368 205.28 127.592 205.488C127.832 205.696 128.232 205.872 128.792 206.016L130.856 206.472C132.056 206.744 132.928 207.168 133.472 207.744C134.032 208.304 134.312 209.04 134.312 209.952C134.312 211.072 133.864 211.96 132.968 212.616C132.072 213.272 130.848 213.6 129.296 213.6ZM147.92 201.288V213.408H144.992V211.536C144.608 212.208 144.096 212.72 143.456 213.072C142.816 213.424 142.08 213.6 141.248 213.6C138.288 213.6 136.808 211.936 136.808 208.608V201.288H139.784V208.632C139.784 209.512 139.96 210.16 140.312 210.576C140.68 210.992 141.24 211.2 141.992 211.2C142.872 211.2 143.576 210.912 144.104 210.336C144.632 209.76 144.896 208.992 144.896 208.032V201.288H147.92ZM151.177 195.744H154.153V213.408H151.177V195.744ZM161.25 203.544V208.968C161.25 210.392 161.914 211.104 163.242 211.104C163.61 211.104 164.01 211.04 164.442 210.912V213.288C163.914 213.48 163.274 213.576 162.522 213.576C161.146 213.576 160.09 213.192 159.354 212.424C158.618 211.656 158.25 210.552 158.25 209.112V203.544H155.922V201.288H158.25V198.336L161.25 197.328V201.288H164.466V203.544H161.25ZM178.12 201.288V213.408H175.168V211.464C174.8 212.136 174.272 212.664 173.584 213.048C172.896 213.416 172.112 213.6 171.232 213.6C170.176 213.6 169.24 213.344 168.424 212.832C167.608 212.32 166.976 211.592 166.528 210.648C166.08 209.704 165.856 208.608 165.856 207.36C165.856 206.112 166.08 205.008 166.528 204.048C166.992 203.072 167.632 202.32 168.448 201.792C169.264 201.248 170.192 200.976 171.232 200.976C172.112 200.976 172.896 201.168 173.584 201.552C174.272 201.92 174.8 202.44 175.168 203.112V201.288H178.12ZM172.048 211.248C173.04 211.248 173.808 210.904 174.352 210.216C174.896 209.528 175.168 208.56 175.168 207.312C175.168 206.032 174.896 205.048 174.352 204.36C173.808 203.672 173.032 203.328 172.024 203.328C171.032 203.328 170.256 203.688 169.696 204.408C169.152 205.112 168.88 206.096 168.88 207.36C168.88 208.608 169.152 209.568 169.696 210.24C170.256 210.912 171.04 211.248 172.048 211.248ZM185.203 203.544V208.968C185.203 210.392 185.867 211.104 187.195 211.104C187.563 211.104 187.963 211.04 188.395 210.912V213.288C187.867 213.48 187.227 213.576 186.475 213.576C185.099 213.576 184.043 213.192 183.307 212.424C182.571 211.656 182.203 210.552 182.203 209.112V203.544H179.875V201.288H182.203V198.336L185.203 197.328V201.288H188.419V203.544H185.203ZM190.481 201.288H193.457V213.408H190.481V201.288ZM193.625 195.792V198.744H190.289V195.792H193.625ZM202.235 213.6C201.003 213.6 199.915 213.344 198.971 212.832C198.043 212.32 197.323 211.592 196.811 210.648C196.315 209.688 196.067 208.568 196.067 207.288C196.067 206.008 196.315 204.896 196.811 203.952C197.323 202.992 198.043 202.256 198.971 201.744C199.915 201.232 201.003 200.976 202.235 200.976C203.451 200.976 204.523 201.232 205.451 201.744C206.379 202.256 207.091 202.992 207.587 203.952C208.099 204.896 208.355 206.008 208.355 207.288C208.355 208.568 208.099 209.688 207.587 210.648C207.091 211.592 206.379 212.32 205.451 212.832C204.523 213.344 203.451 213.6 202.235 213.6ZM202.211 211.248C203.235 211.248 204.011 210.92 204.539 210.264C205.083 209.592 205.355 208.6 205.355 207.288C205.355 205.992 205.083 205.008 204.539 204.336C203.995 203.648 203.227 203.304 202.235 203.304C201.227 203.304 200.451 203.648 199.907 204.336C199.363 205.008 199.091 205.992 199.091 207.288C199.091 208.6 199.355 209.592 199.883 210.264C200.427 210.92 201.203 211.248 202.211 211.248ZM217.878 200.976C220.774 200.976 222.222 202.64 222.222 205.968V213.408H219.222V206.112C219.222 205.152 219.038 204.456 218.67 204.024C218.302 203.576 217.734 203.352 216.966 203.352C216.054 203.352 215.318 203.648 214.758 204.24C214.198 204.816 213.918 205.584 213.918 206.544V213.408H210.942V204.72C210.942 203.44 210.878 202.296 210.75 201.288H213.558L213.774 203.28C214.19 202.544 214.75 201.976 215.454 201.576C216.174 201.176 216.982 200.976 217.878 200.976Z" fill="black"/>
<g clip-path="url(#clip0_63_2665)">
<path d="M142.97 57H80.3297C79.0414 57 78 58.0282 78 59.3002V149.707C78 150.979 79.0414 152.008 80.3297 152.008H142.97C144.258 152.008 145.299 150.979 145.299 149.707V59.3002C145.292 58.0282 144.25 57 142.97 57Z" fill="url(#paint0_linear_63_2665)"/>
<path d="M138.858 61.0977H84.4337C83.184 61.0977 82.1657 62.103 82.1657 63.3445V138.092C82.1657 139.334 83.184 140.332 84.4337 140.332H138.858C140.115 140.332 141.126 139.326 141.126 138.092V63.3445C141.126 62.103 140.115 61.0977 138.858 61.0977Z" fill="white"/>
<path d="M122.774 96.636H100.526C99.5074 96.636 98.682 95.8211 98.682 94.8157V72.8422C98.682 71.8369 99.5074 71.0219 100.526 71.0219H122.774C123.792 71.0219 124.617 71.8369 124.617 72.8422V94.8081C124.617 95.8135 123.792 96.636 122.774 96.636Z" fill="url(#paint1_linear_63_2665)"/>
<path d="M111.65 149.548C113.541 149.548 115.075 148.033 115.075 146.166C115.075 144.298 113.541 142.784 111.65 142.784C109.758 142.784 108.225 144.298 108.225 146.166C108.225 148.033 109.758 149.548 111.65 149.548Z" fill="white"/>
<path d="M131.036 108.015H92.256C91.2763 108.015 90.474 107.223 90.474 106.256C90.474 105.288 91.2763 104.496 92.256 104.496H131.028C132.008 104.496 132.81 105.288 132.81 106.256C132.81 107.223 132.015 108.015 131.036 108.015Z" fill="url(#paint2_linear_63_2665)"/>
<path opacity="0.6" d="M124.471 117.764H91.608C90.9831 117.764 90.4817 117.261 90.4817 116.652V116.53C90.4817 115.913 90.9909 115.418 91.608 115.418H124.471C125.096 115.418 125.597 115.921 125.597 116.53V116.652C125.605 117.261 125.096 117.764 124.471 117.764Z" fill="url(#paint3_linear_63_2665)"/>
<path opacity="0.3" d="M118.215 123.956H91.5C90.9369 123.956 90.474 123.499 90.474 122.943V122.608C90.474 122.052 90.9369 121.595 91.5 121.595H118.207C118.77 121.595 119.233 122.052 119.233 122.608V122.943C119.233 123.499 118.77 123.956 118.215 123.956Z" fill="url(#paint4_linear_63_2665)"/>
<path opacity="0.6" d="M121.578 129.691H91.5617C90.9677 129.691 90.4817 129.212 90.4817 128.625V128.412C90.4817 127.825 90.9677 127.346 91.5617 127.346H121.578C122.172 127.346 122.658 127.825 122.658 128.412V128.625C122.658 129.204 122.172 129.691 121.578 129.691Z" fill="url(#paint5_linear_63_2665)"/>
<path d="M111.717 83.1208C113.944 83.1208 115.75 81.3141 115.75 79.0854C115.75 76.8566 113.944 75.05 111.717 75.05C109.489 75.05 107.683 76.8566 107.683 79.0854C107.683 81.3141 109.481 83.1208 111.717 83.1208ZM111.717 85.1385C109.025 85.1385 103.65 86.4892 103.65 89.1739V90.1869C103.65 90.7441 104.106 91.2 104.663 91.2H118.787C119.344 91.2 119.8 90.7441 119.8 90.1869V89.1739C119.783 86.4977 114.408 85.1385 111.717 85.1385Z" fill="white"/>
</g>
<path d="M80.472 241.608H87.336V242.456H81.464V246.776H87.016V247.656H81.464V253H80.472V241.608ZM92.5496 244.792C92.8163 244.792 93.051 244.813 93.2536 244.856L93.2056 245.736C93.003 245.693 92.7576 245.672 92.4696 245.672C91.659 245.672 91.051 245.933 90.6456 246.456C90.251 246.968 90.0536 247.581 90.0536 248.296V253H89.0936V247.208C89.0936 246.376 89.051 245.635 88.9656 244.984H89.8936L90.0216 246.472C90.2243 245.928 90.5496 245.512 90.9976 245.224C91.4563 244.936 91.9736 244.792 92.5496 244.792ZM95.0275 248.872V248.92C95.0275 249.997 95.2728 250.824 95.7635 251.4C96.2648 251.965 96.9902 252.248 97.9395 252.248C98.8995 252.248 99.7795 251.917 100.58 251.256L100.964 252.024C100.612 252.355 100.164 252.621 99.6195 252.824C99.0755 253.016 98.5155 253.112 97.9395 253.112C96.7235 253.112 95.7635 252.744 95.0595 252.008C94.3555 251.272 94.0035 250.259 94.0035 248.968C94.0035 248.147 94.1582 247.421 94.4675 246.792C94.7875 246.152 95.2302 245.661 95.7955 245.32C96.3608 244.968 97.0115 244.792 97.7475 244.792C98.8035 244.792 99.6248 245.133 100.212 245.816C100.809 246.499 101.108 247.448 101.108 248.664V248.872H95.0275ZM97.7475 245.592C97.0115 245.592 96.4142 245.816 95.9555 246.264C95.4968 246.701 95.2088 247.32 95.0915 248.12H100.18C100.116 247.299 99.8755 246.675 99.4595 246.248C99.0435 245.811 98.4728 245.592 97.7475 245.592ZM103.715 248.872V248.92C103.715 249.997 103.96 250.824 104.451 251.4C104.952 251.965 105.678 252.248 106.627 252.248C107.587 252.248 108.467 251.917 109.267 251.256L109.651 252.024C109.299 252.355 108.851 252.621 108.307 252.824C107.763 253.016 107.203 253.112 106.627 253.112C105.411 253.112 104.451 252.744 103.747 252.008C103.043 251.272 102.691 250.259 102.691 248.968C102.691 248.147 102.846 247.421 103.155 246.792C103.475 246.152 103.918 245.661 104.483 245.32C105.048 244.968 105.699 244.792 106.435 244.792C107.491 244.792 108.312 245.133 108.899 245.816C109.496 246.499 109.795 247.448 109.795 248.664V248.872H103.715ZM106.435 245.592C105.699 245.592 105.102 245.816 104.643 246.264C104.184 246.701 103.896 247.32 103.779 248.12H108.867C108.803 247.299 108.563 246.675 108.147 246.248C107.731 245.811 107.16 245.592 106.435 245.592ZM119.217 253.112C118.459 253.112 117.798 252.941 117.233 252.6C116.667 252.259 116.23 251.779 115.921 251.16C115.611 250.531 115.457 249.805 115.457 248.984C115.457 248.152 115.611 247.421 115.921 246.792C116.23 246.152 116.673 245.661 117.249 245.32C117.825 244.968 118.491 244.792 119.249 244.792C119.793 244.792 120.31 244.888 120.801 245.08C121.302 245.261 121.713 245.517 122.033 245.848L121.649 246.616C121.233 246.275 120.833 246.029 120.449 245.88C120.075 245.72 119.686 245.64 119.281 245.64C118.417 245.64 117.734 245.939 117.233 246.536C116.731 247.123 116.481 247.939 116.481 248.984C116.481 250.008 116.726 250.808 117.217 251.384C117.718 251.96 118.406 252.248 119.281 252.248C119.686 252.248 120.075 252.173 120.449 252.024C120.833 251.864 121.233 251.619 121.649 251.288L122.033 252.04C121.691 252.371 121.265 252.632 120.753 252.824C120.251 253.016 119.739 253.112 119.217 253.112ZM126.996 253.112C126.26 253.112 125.61 252.941 125.044 252.6C124.49 252.259 124.058 251.773 123.748 251.144C123.45 250.515 123.3 249.784 123.3 248.952C123.3 248.12 123.45 247.389 123.748 246.76C124.058 246.131 124.49 245.645 125.044 245.304C125.61 244.963 126.26 244.792 126.996 244.792C127.722 244.792 128.362 244.963 128.916 245.304C129.471 245.645 129.898 246.131 130.196 246.76C130.506 247.389 130.66 248.12 130.66 248.952C130.66 249.784 130.506 250.515 130.196 251.144C129.898 251.773 129.471 252.259 128.916 252.6C128.362 252.941 127.722 253.112 126.996 253.112ZM126.98 252.248C127.834 252.248 128.49 251.965 128.948 251.4C129.418 250.824 129.652 250.008 129.652 248.952C129.652 247.907 129.418 247.096 128.948 246.52C128.479 245.933 127.828 245.64 126.996 245.64C126.154 245.64 125.498 245.933 125.028 246.52C124.559 247.096 124.324 247.907 124.324 248.952C124.324 250.019 124.554 250.835 125.012 251.4C125.471 251.965 126.127 252.248 126.98 252.248ZM136.525 244.792C138.455 244.792 139.421 245.827 139.421 247.896V253H138.445V247.96C138.445 247.16 138.279 246.573 137.949 246.2C137.629 245.827 137.122 245.64 136.429 245.64C135.629 245.64 134.983 245.885 134.493 246.376C134.002 246.867 133.757 247.528 133.757 248.36V253H132.797V247.208C132.797 246.376 132.754 245.635 132.669 244.984H133.597L133.725 246.456C133.97 245.912 134.338 245.501 134.829 245.224C135.319 244.936 135.885 244.792 136.525 244.792ZM144.655 253.112C143.353 253.112 142.324 252.755 141.567 252.04L141.919 251.288C142.345 251.64 142.772 251.891 143.199 252.04C143.636 252.189 144.137 252.264 144.703 252.264C145.364 252.264 145.865 252.152 146.207 251.928C146.559 251.693 146.735 251.357 146.735 250.92C146.735 250.557 146.617 250.275 146.383 250.072C146.159 249.859 145.785 249.688 145.263 249.56L143.903 249.256C143.263 249.107 142.756 248.84 142.383 248.456C142.02 248.072 141.839 247.624 141.839 247.112C141.839 246.408 142.105 245.848 142.639 245.432C143.183 245.005 143.903 244.792 144.799 244.792C145.364 244.792 145.887 244.883 146.367 245.064C146.857 245.245 147.263 245.507 147.583 245.848L147.215 246.6C146.479 245.96 145.673 245.64 144.799 245.64C144.18 245.64 143.7 245.763 143.359 246.008C143.017 246.253 142.847 246.595 142.847 247.032C142.847 247.395 142.953 247.688 143.167 247.912C143.391 248.136 143.732 248.301 144.191 248.408L145.567 248.744C147.007 249.064 147.727 249.773 147.727 250.872C147.727 251.544 147.449 252.088 146.895 252.504C146.34 252.909 145.593 253.112 144.655 253.112ZM156.401 244.984V253H155.457V251.544C155.201 252.056 154.838 252.445 154.369 252.712C153.9 252.979 153.361 253.112 152.753 253.112C151.814 253.112 151.105 252.851 150.625 252.328C150.145 251.805 149.905 251.032 149.905 250.008V244.984H150.865V249.944C150.865 250.733 151.025 251.315 151.345 251.688C151.665 252.061 152.161 252.248 152.833 252.248C153.622 252.248 154.252 252.003 154.721 251.512C155.19 251.011 155.425 250.349 155.425 249.528V244.984H156.401ZM159.062 241.224H160.022V253H159.062V241.224ZM164.063 245.768V250.536C164.063 251.176 164.186 251.619 164.431 251.864C164.676 252.109 165.039 252.232 165.519 252.232C165.818 252.232 166.106 252.184 166.383 252.088V252.968C166.042 253.053 165.695 253.096 165.343 253.096C164.639 253.096 164.084 252.899 163.679 252.504C163.284 252.109 163.087 251.517 163.087 250.728V245.768H161.503V244.984H163.087V242.856L164.063 242.488V244.984H166.431V245.768H164.063ZM174.894 244.984V253H173.918V251.464C173.683 251.997 173.326 252.408 172.846 252.696C172.376 252.973 171.811 253.112 171.15 253.112C170.435 253.112 169.806 252.947 169.262 252.616C168.728 252.275 168.312 251.795 168.014 251.176C167.726 250.547 167.582 249.816 167.582 248.984C167.582 248.152 167.731 247.421 168.03 246.792C168.328 246.152 168.744 245.661 169.278 245.32C169.822 244.968 170.446 244.792 171.15 244.792C171.8 244.792 172.36 244.931 172.83 245.208C173.31 245.485 173.672 245.891 173.918 246.424V244.984H174.894ZM171.294 252.248C172.126 252.248 172.771 251.96 173.23 251.384C173.688 250.808 173.918 249.997 173.918 248.952C173.918 247.896 173.688 247.08 173.23 246.504C172.771 245.928 172.12 245.64 171.278 245.64C170.435 245.64 169.779 245.939 169.31 246.536C168.84 247.123 168.606 247.939 168.606 248.984C168.606 250.019 168.84 250.824 169.31 251.4C169.779 251.965 170.44 252.248 171.294 252.248ZM178.907 245.768V250.536C178.907 251.176 179.029 251.619 179.275 251.864C179.52 252.109 179.883 252.232 180.363 252.232C180.661 252.232 180.949 252.184 181.227 252.088V252.968C180.885 253.053 180.539 253.096 180.187 253.096C179.483 253.096 178.928 252.899 178.523 252.504C178.128 252.109 177.931 251.517 177.931 250.728V245.768H176.347V244.984H177.931V242.856L178.907 242.488V244.984H181.275V245.768H178.907ZM182.937 244.984H183.897V253H182.937V244.984ZM184.089 241.672V242.92H182.793V241.672H184.089ZM189.762 253.112C189.026 253.112 188.375 252.941 187.81 252.6C187.255 252.259 186.823 251.773 186.514 251.144C186.215 250.515 186.066 249.784 186.066 248.952C186.066 248.12 186.215 247.389 186.514 246.76C186.823 246.131 187.255 245.645 187.81 245.304C188.375 244.963 189.026 244.792 189.762 244.792C190.487 244.792 191.127 244.963 191.682 245.304C192.237 245.645 192.663 246.131 192.962 246.76C193.271 247.389 193.426 248.12 193.426 248.952C193.426 249.784 193.271 250.515 192.962 251.144C192.663 251.773 192.237 252.259 191.682 252.6C191.127 252.941 190.487 253.112 189.762 253.112ZM189.746 252.248C190.599 252.248 191.255 251.965 191.714 251.4C192.183 250.824 192.418 250.008 192.418 248.952C192.418 247.907 192.183 247.096 191.714 246.52C191.245 245.933 190.594 245.64 189.762 245.64C188.919 245.64 188.263 245.933 187.794 246.52C187.325 247.096 187.09 247.907 187.09 248.952C187.09 250.019 187.319 250.835 187.778 251.4C188.237 251.965 188.893 252.248 189.746 252.248ZM199.29 244.792C201.221 244.792 202.186 245.827 202.186 247.896V253H201.21V247.96C201.21 247.16 201.045 246.573 200.714 246.2C200.394 245.827 199.888 245.64 199.194 245.64C198.394 245.64 197.749 245.885 197.258 246.376C196.768 246.867 196.522 247.528 196.522 248.36V253H195.562V247.208C195.562 246.376 195.52 245.635 195.434 244.984H196.362L196.49 246.456C196.736 245.912 197.104 245.501 197.594 245.224C198.085 244.936 198.65 244.792 199.29 244.792ZM220.827 244.984L217.915 253H216.907L214.475 246.232L212.027 253H211.003L208.107 244.984H209.147L211.515 251.832L214.011 244.984H214.987L217.403 251.832L219.835 244.984H220.827ZM222.703 244.984H223.663V253H222.703V244.984ZM223.855 241.672V242.92H222.559V241.672H223.855ZM227.704 245.768V250.536C227.704 251.176 227.826 251.619 228.072 251.864C228.317 252.109 228.68 252.232 229.16 252.232C229.458 252.232 229.746 252.184 230.024 252.088V252.968C229.682 253.053 229.336 253.096 228.984 253.096C228.28 253.096 227.725 252.899 227.32 252.504C226.925 252.109 226.728 251.517 226.728 250.728V245.768H225.144V244.984H226.728V242.856L227.704 242.488V244.984H230.072V245.768H227.704ZM235.462 244.792C237.393 244.792 238.358 245.827 238.358 247.896V253H237.382V247.96C237.382 247.16 237.217 246.573 236.886 246.2C236.566 245.827 236.06 245.64 235.366 245.64C234.566 245.64 233.921 245.885 233.43 246.376C232.94 246.867 232.694 247.528 232.694 248.36V253H231.734V241.224H232.694V246.376C232.95 245.853 233.318 245.459 233.798 245.192C234.278 244.925 234.833 244.792 235.462 244.792ZM248.246 253.112C247.51 253.112 246.86 252.941 246.294 252.6C245.74 252.259 245.308 251.773 244.998 251.144C244.7 250.515 244.55 249.784 244.55 248.952C244.55 248.12 244.7 247.389 244.998 246.76C245.308 246.131 245.74 245.645 246.294 245.304C246.86 244.963 247.51 244.792 248.246 244.792C248.972 244.792 249.612 244.963 250.166 245.304C250.721 245.645 251.148 246.131 251.446 246.76C251.756 247.389 251.91 248.12 251.91 248.952C251.91 249.784 251.756 250.515 251.446 251.144C251.148 251.773 250.721 252.259 250.166 252.6C249.612 252.941 248.972 253.112 248.246 253.112ZM248.23 252.248C249.084 252.248 249.74 251.965 250.198 251.4C250.668 250.824 250.902 250.008 250.902 248.952C250.902 247.907 250.668 247.096 250.198 246.52C249.729 245.933 249.078 245.64 248.246 245.64C247.404 245.64 246.748 245.933 246.278 246.52C245.809 247.096 245.574 247.907 245.574 248.952C245.574 250.019 245.804 250.835 246.262 251.4C246.721 251.965 247.377 252.248 248.23 252.248ZM260.495 244.984V253H259.551V251.544C259.295 252.056 258.932 252.445 258.463 252.712C257.993 252.979 257.455 253.112 256.847 253.112C255.908 253.112 255.199 252.851 254.719 252.328C254.239 251.805 253.999 251.032 253.999 250.008V244.984H254.959V249.944C254.959 250.733 255.119 251.315 255.439 251.688C255.759 252.061 256.255 252.248 256.927 252.248C257.716 252.248 258.345 252.003 258.815 251.512C259.284 251.011 259.519 250.349 259.519 249.528V244.984H260.495ZM266.612 244.792C266.879 244.792 267.113 244.813 267.316 244.856L267.268 245.736C267.065 245.693 266.82 245.672 266.532 245.672C265.721 245.672 265.113 245.933 264.708 246.456C264.313 246.968 264.116 247.581 264.116 248.296V253H263.156V247.208C263.156 246.376 263.113 245.635 263.028 244.984H263.956L264.084 246.472C264.287 245.928 264.612 245.512 265.06 245.224C265.519 244.936 266.036 244.792 266.612 244.792ZM274.172 245.768V250.536C274.172 251.176 274.295 251.619 274.54 251.864C274.786 252.109 275.148 252.232 275.628 252.232C275.927 252.232 276.215 252.184 276.492 252.088V252.968C276.151 253.053 275.804 253.096 275.452 253.096C274.748 253.096 274.194 252.899 273.788 252.504C273.394 252.109 273.196 251.517 273.196 250.728V245.768H271.612V244.984H273.196V242.856L274.172 242.488V244.984H276.54V245.768H274.172ZM281.659 244.792C281.926 244.792 282.16 244.813 282.363 244.856L282.315 245.736C282.112 245.693 281.867 245.672 281.579 245.672C280.768 245.672 280.16 245.933 279.755 246.456C279.36 246.968 279.163 247.581 279.163 248.296V253H278.203V247.208C278.203 246.376 278.16 245.635 278.075 244.984H279.003L279.131 246.472C279.334 245.928 279.659 245.512 280.107 245.224C280.566 244.936 281.083 244.792 281.659 244.792ZM290.229 244.984V253H289.285V251.544C289.029 252.056 288.666 252.445 288.197 252.712C287.728 252.979 287.189 253.112 286.581 253.112C285.642 253.112 284.933 252.851 284.453 252.328C283.973 251.805 283.733 251.032 283.733 250.008V244.984H284.693V249.944C284.693 250.733 284.853 251.315 285.173 251.688C285.493 252.061 285.989 252.248 286.661 252.248C287.45 252.248 288.08 252.003 288.549 251.512C289.018 251.011 289.253 250.349 289.253 249.528V244.984H290.229ZM295.499 253.112C294.197 253.112 293.168 252.755 292.411 252.04L292.763 251.288C293.189 251.64 293.616 251.891 294.043 252.04C294.48 252.189 294.981 252.264 295.547 252.264C296.208 252.264 296.709 252.152 297.051 251.928C297.403 251.693 297.579 251.357 297.579 250.92C297.579 250.557 297.461 250.275 297.227 250.072C297.003 249.859 296.629 249.688 296.107 249.56L294.747 249.256C294.107 249.107 293.6 248.84 293.227 248.456C292.864 248.072 292.683 247.624 292.683 247.112C292.683 246.408 292.949 245.848 293.483 245.432C294.027 245.005 294.747 244.792 295.643 244.792C296.208 244.792 296.731 244.883 297.211 245.064C297.701 245.245 298.107 245.507 298.427 245.848L298.059 246.6C297.323 245.96 296.517 245.64 295.643 245.64C295.024 245.64 294.544 245.763 294.203 246.008C293.861 246.253 293.691 246.595 293.691 247.032C293.691 247.395 293.797 247.688 294.011 247.912C294.235 248.136 294.576 248.301 295.035 248.408L296.411 248.744C297.851 249.064 298.571 249.773 298.571 250.872C298.571 251.544 298.293 252.088 297.739 252.504C297.184 252.909 296.437 253.112 295.499 253.112ZM302.079 245.768V250.536C302.079 251.176 302.201 251.619 302.447 251.864C302.692 252.109 303.055 252.232 303.535 252.232C303.833 252.232 304.121 252.184 304.399 252.088V252.968C304.057 253.053 303.711 253.096 303.359 253.096C302.655 253.096 302.1 252.899 301.695 252.504C301.3 252.109 301.103 251.517 301.103 250.728V245.768H299.519V244.984H301.103V242.856L302.079 242.488V244.984H304.447V245.768H302.079ZM306.621 248.872V248.92C306.621 249.997 306.867 250.824 307.357 251.4C307.859 251.965 308.584 252.248 309.533 252.248C310.493 252.248 311.373 251.917 312.173 251.256L312.557 252.024C312.205 252.355 311.757 252.621 311.213 252.824C310.669 253.016 310.109 253.112 309.533 253.112C308.317 253.112 307.357 252.744 306.653 252.008C305.949 251.272 305.597 250.259 305.597 248.968C305.597 248.147 305.752 247.421 306.061 246.792C306.381 246.152 306.824 245.661 307.389 245.32C307.955 244.968 308.605 244.792 309.341 244.792C310.397 244.792 311.219 245.133 311.805 245.816C312.403 246.499 312.701 247.448 312.701 248.664V248.872H306.621ZM309.341 245.592C308.605 245.592 308.008 245.816 307.549 246.264C307.091 246.701 306.803 247.32 306.685 248.12H311.773C311.709 247.299 311.469 246.675 311.053 246.248C310.637 245.811 310.067 245.592 309.341 245.592ZM321.597 241.224V253H320.621V251.464C320.386 251.997 320.029 252.408 319.549 252.696C319.079 252.973 318.514 253.112 317.853 253.112C317.149 253.112 316.525 252.941 315.981 252.6C315.447 252.248 315.031 251.757 314.733 251.128C314.434 250.488 314.285 249.752 314.285 248.92C314.285 248.088 314.429 247.363 314.717 246.744C315.015 246.115 315.431 245.635 315.965 245.304C316.509 244.963 317.138 244.792 317.853 244.792C318.503 244.792 319.063 244.931 319.533 245.208C320.013 245.485 320.375 245.891 320.621 246.424V241.224H321.597ZM317.981 252.248C318.823 252.248 319.474 251.96 319.933 251.384C320.391 250.808 320.621 249.997 320.621 248.952C320.621 247.907 320.391 247.096 319.933 246.52C319.474 245.933 318.829 245.64 317.997 245.64C317.143 245.64 316.482 245.928 316.013 246.504C315.543 247.08 315.309 247.885 315.309 248.92C315.309 249.965 315.543 250.781 316.013 251.368C316.482 251.955 317.138 252.248 317.981 252.248ZM87.128 269.224V281H86.152V279.464C85.9173 279.997 85.56 280.408 85.08 280.696C84.6107 280.973 84.0453 281.112 83.384 281.112C82.68 281.112 82.056 280.941 81.512 280.6C80.9787 280.248 80.5627 279.757 80.264 279.128C79.9653 278.488 79.816 277.752 79.816 276.92C79.816 276.088 79.96 275.363 80.248 274.744C80.5467 274.115 80.9627 273.635 81.496 273.304C82.04 272.963 82.6693 272.792 83.384 272.792C84.0347 272.792 84.5947 272.931 85.064 273.208C85.544 273.485 85.9067 273.891 86.152 274.424V269.224H87.128ZM83.512 280.248C84.3547 280.248 85.0053 279.96 85.464 279.384C85.9227 278.808 86.152 277.997 86.152 276.952C86.152 275.907 85.9227 275.096 85.464 274.52C85.0053 273.933 84.36 273.64 83.528 273.64C82.6747 273.64 82.0133 273.928 81.544 274.504C81.0747 275.08 80.84 275.885 80.84 276.92C80.84 277.965 81.0747 278.781 81.544 279.368C82.0133 279.955 82.6693 280.248 83.512 280.248ZM92.9651 281.112C92.2291 281.112 91.5785 280.941 91.0131 280.6C90.4585 280.259 90.0265 279.773 89.7171 279.144C89.4185 278.515 89.2691 277.784 89.2691 276.952C89.2691 276.12 89.4185 275.389 89.7171 274.76C90.0265 274.131 90.4585 273.645 91.0131 273.304C91.5785 272.963 92.2291 272.792 92.9651 272.792C93.6905 272.792 94.3305 272.963 94.8851 273.304C95.4398 273.645 95.8665 274.131 96.1651 274.76C96.4745 275.389 96.6291 276.12 96.6291 276.952C96.6291 277.784 96.4745 278.515 96.1651 279.144C95.8665 279.773 95.4398 280.259 94.8851 280.6C94.3305 280.941 93.6905 281.112 92.9651 281.112ZM92.9491 280.248C93.8025 280.248 94.4585 279.965 94.9171 279.4C95.3865 278.824 95.6211 278.008 95.6211 276.952C95.6211 275.907 95.3865 275.096 94.9171 274.52C94.4478 273.933 93.7971 273.64 92.9651 273.64C92.1225 273.64 91.4665 273.933 90.9971 274.52C90.5278 275.096 90.2931 275.907 90.2931 276.952C90.2931 278.019 90.5225 278.835 90.9811 279.4C91.4398 279.965 92.0958 280.248 92.9491 280.248ZM102.014 281.112C101.256 281.112 100.595 280.941 100.03 280.6C99.4642 280.259 99.0268 279.779 98.7175 279.16C98.4082 278.531 98.2535 277.805 98.2535 276.984C98.2535 276.152 98.4082 275.421 98.7175 274.792C99.0268 274.152 99.4695 273.661 100.046 273.32C100.622 272.968 101.288 272.792 102.046 272.792C102.59 272.792 103.107 272.888 103.598 273.08C104.099 273.261 104.51 273.517 104.83 273.848L104.446 274.616C104.03 274.275 103.63 274.029 103.246 273.88C102.872 273.72 102.483 273.64 102.078 273.64C101.214 273.64 100.531 273.939 100.03 274.536C99.5282 275.123 99.2775 275.939 99.2775 276.984C99.2775 278.008 99.5228 278.808 100.014 279.384C100.515 279.96 101.203 280.248 102.078 280.248C102.483 280.248 102.872 280.173 103.246 280.024C103.63 279.864 104.03 279.619 104.446 279.288L104.83 280.04C104.488 280.371 104.062 280.632 103.55 280.824C103.048 281.016 102.536 281.112 102.014 281.112ZM107.969 273.768V278.536C107.969 279.176 108.092 279.619 108.337 279.864C108.583 280.109 108.945 280.232 109.425 280.232C109.724 280.232 110.012 280.184 110.289 280.088V280.968C109.948 281.053 109.601 281.096 109.249 281.096C108.545 281.096 107.991 280.899 107.585 280.504C107.191 280.109 106.993 279.517 106.993 278.728V273.768H105.409V272.984H106.993V270.856L107.969 270.488V272.984H110.337V273.768H107.969ZM115.184 281.112C114.448 281.112 113.797 280.941 113.232 280.6C112.677 280.259 112.245 279.773 111.936 279.144C111.637 278.515 111.488 277.784 111.488 276.952C111.488 276.12 111.637 275.389 111.936 274.76C112.245 274.131 112.677 273.645 113.232 273.304C113.797 272.963 114.448 272.792 115.184 272.792C115.909 272.792 116.549 272.963 117.104 273.304C117.659 273.645 118.085 274.131 118.384 274.76C118.693 275.389 118.848 276.12 118.848 276.952C118.848 277.784 118.693 278.515 118.384 279.144C118.085 279.773 117.659 280.259 117.104 280.6C116.549 280.941 115.909 281.112 115.184 281.112ZM115.168 280.248C116.021 280.248 116.677 279.965 117.136 279.4C117.605 278.824 117.84 278.008 117.84 276.952C117.84 275.907 117.605 275.096 117.136 274.52C116.667 273.933 116.016 273.64 115.184 273.64C114.341 273.64 113.685 273.933 113.216 274.52C112.747 275.096 112.512 275.907 112.512 276.952C112.512 278.019 112.741 278.835 113.2 279.4C113.659 279.965 114.315 280.248 115.168 280.248ZM124.44 272.792C124.707 272.792 124.942 272.813 125.144 272.856L125.096 273.736C124.894 273.693 124.648 273.672 124.36 273.672C123.55 273.672 122.942 273.933 122.536 274.456C122.142 274.968 121.944 275.581 121.944 276.296V281H120.984V275.208C120.984 274.376 120.942 273.635 120.856 272.984H121.784L121.912 274.472C122.115 273.928 122.44 273.512 122.888 273.224C123.347 272.936 123.864 272.792 124.44 272.792ZM129.092 281.112C127.791 281.112 126.762 280.755 126.004 280.04L126.356 279.288C126.783 279.64 127.21 279.891 127.636 280.04C128.074 280.189 128.575 280.264 129.14 280.264C129.802 280.264 130.303 280.152 130.644 279.928C130.996 279.693 131.172 279.357 131.172 278.92C131.172 278.557 131.055 278.275 130.82 278.072C130.596 277.859 130.223 277.688 129.7 277.56L128.34 277.256C127.7 277.107 127.194 276.84 126.82 276.456C126.458 276.072 126.276 275.624 126.276 275.112C126.276 274.408 126.543 273.848 127.076 273.432C127.62 273.005 128.34 272.792 129.236 272.792C129.802 272.792 130.324 272.883 130.804 273.064C131.295 273.245 131.7 273.507 132.02 273.848L131.652 274.6C130.916 273.96 130.111 273.64 129.236 273.64C128.618 273.64 128.138 273.763 127.796 274.008C127.455 274.253 127.284 274.595 127.284 275.032C127.284 275.395 127.391 275.688 127.604 275.912C127.828 276.136 128.17 276.301 128.628 276.408L130.004 276.744C131.444 277.064 132.164 277.773 132.164 278.872C132.164 279.544 131.887 280.088 131.332 280.504C130.778 280.909 130.031 281.112 129.092 281.112ZM145.269 272.984V281H144.293V279.464C144.058 279.997 143.701 280.408 143.221 280.696C142.751 280.973 142.186 281.112 141.525 281.112C140.81 281.112 140.181 280.947 139.637 280.616C139.103 280.275 138.687 279.795 138.389 279.176C138.101 278.547 137.957 277.816 137.957 276.984C137.957 276.152 138.106 275.421 138.405 274.792C138.703 274.152 139.119 273.661 139.653 273.32C140.197 272.968 140.821 272.792 141.525 272.792C142.175 272.792 142.735 272.931 143.205 273.208C143.685 273.485 144.047 273.891 144.293 274.424V272.984H145.269ZM141.669 280.248C142.501 280.248 143.146 279.96 143.605 279.384C144.063 278.808 144.293 277.997 144.293 276.952C144.293 275.896 144.063 275.08 143.605 274.504C143.146 273.928 142.495 273.64 141.653 273.64C140.81 273.64 140.154 273.939 139.685 274.536C139.215 275.123 138.981 275.939 138.981 276.984C138.981 278.019 139.215 278.824 139.685 279.4C140.154 279.965 140.815 280.248 141.669 280.248ZM151.65 272.792C153.58 272.792 154.546 273.827 154.546 275.896V281H153.57V275.96C153.57 275.16 153.404 274.573 153.074 274.2C152.754 273.827 152.247 273.64 151.554 273.64C150.754 273.64 150.108 273.885 149.618 274.376C149.127 274.867 148.882 275.528 148.882 276.36V281H147.922V275.208C147.922 274.376 147.879 273.635 147.794 272.984H148.722L148.85 274.456C149.095 273.912 149.463 273.501 149.954 273.224C150.444 272.936 151.01 272.792 151.65 272.792ZM163.972 269.224V281H162.996V279.464C162.761 279.997 162.404 280.408 161.924 280.696C161.454 280.973 160.889 281.112 160.228 281.112C159.524 281.112 158.9 280.941 158.356 280.6C157.822 280.248 157.406 279.757 157.108 279.128C156.809 278.488 156.66 277.752 156.66 276.92C156.66 276.088 156.804 275.363 157.092 274.744C157.39 274.115 157.806 273.635 158.34 273.304C158.884 272.963 159.513 272.792 160.228 272.792C160.878 272.792 161.438 272.931 161.908 273.208C162.388 273.485 162.75 273.891 162.996 274.424V269.224H163.972ZM160.356 280.248C161.198 280.248 161.849 279.96 162.308 279.384C162.766 278.808 162.996 277.997 162.996 276.952C162.996 275.907 162.766 275.096 162.308 274.52C161.849 273.933 161.204 273.64 160.372 273.64C159.518 273.64 158.857 273.928 158.388 274.504C157.918 275.08 157.684 275.885 157.684 276.92C157.684 277.965 157.918 278.781 158.388 279.368C158.857 279.955 159.513 280.248 160.356 280.248ZM177.567 272.984V281.032C177.567 282.195 177.279 283.075 176.703 283.672C176.127 284.269 175.279 284.568 174.159 284.568C172.964 284.568 171.924 284.28 171.039 283.704L171.231 282.856C171.754 283.165 172.234 283.384 172.671 283.512C173.108 283.64 173.61 283.704 174.175 283.704C174.975 283.704 175.578 283.485 175.983 283.048C176.399 282.611 176.607 281.971 176.607 281.128V279.064C176.362 279.608 175.999 280.029 175.519 280.328C175.039 280.616 174.463 280.76 173.791 280.76C173.087 280.76 172.463 280.595 171.919 280.264C171.375 279.923 170.948 279.453 170.639 278.856C170.34 278.248 170.191 277.555 170.191 276.776C170.191 275.987 170.34 275.293 170.639 274.696C170.948 274.088 171.375 273.619 171.919 273.288C172.463 272.957 173.087 272.792 173.791 272.792C174.463 272.792 175.034 272.931 175.503 273.208C175.983 273.485 176.346 273.891 176.591 274.424V272.984H177.567ZM173.919 279.88C174.751 279.88 175.402 279.603 175.871 279.048C176.351 278.493 176.591 277.736 176.591 276.776C176.591 275.805 176.351 275.043 175.871 274.488C175.402 273.923 174.751 273.64 173.919 273.64C173.076 273.64 172.415 273.923 171.935 274.488C171.455 275.043 171.215 275.805 171.215 276.776C171.215 277.747 171.455 278.509 171.935 279.064C172.415 279.608 173.076 279.88 173.919 279.88ZM180.731 276.872V276.92C180.731 277.997 180.976 278.824 181.467 279.4C181.968 279.965 182.693 280.248 183.643 280.248C184.603 280.248 185.483 279.917 186.283 279.256L186.667 280.024C186.315 280.355 185.867 280.621 185.323 280.824C184.779 281.016 184.219 281.112 183.643 281.112C182.427 281.112 181.467 280.744 180.763 280.008C180.059 279.272 179.707 278.259 179.707 276.968C179.707 276.147 179.861 275.421 180.171 274.792C180.491 274.152 180.933 273.661 181.499 273.32C182.064 272.968 182.715 272.792 183.451 272.792C184.507 272.792 185.328 273.133 185.915 273.816C186.512 274.499 186.811 275.448 186.811 276.664V276.872H180.731ZM183.451 273.592C182.715 273.592 182.117 273.816 181.659 274.264C181.2 274.701 180.912 275.32 180.795 276.12H185.883C185.819 275.299 185.579 274.675 185.163 274.248C184.747 273.811 184.176 273.592 183.451 273.592ZM190.251 273.768V278.536C190.251 279.176 190.373 279.619 190.619 279.864C190.864 280.109 191.227 280.232 191.707 280.232C192.005 280.232 192.293 280.184 192.571 280.088V280.968C192.229 281.053 191.883 281.096 191.531 281.096C190.827 281.096 190.272 280.899 189.867 280.504C189.472 280.109 189.275 279.517 189.275 278.728V273.768H187.691V272.984H189.275V270.856L190.251 270.488V272.984H192.619V273.768H190.251ZM199.719 273.768V278.536C199.719 279.176 199.842 279.619 200.087 279.864C200.333 280.109 200.695 280.232 201.175 280.232C201.474 280.232 201.762 280.184 202.039 280.088V280.968C201.698 281.053 201.351 281.096 200.999 281.096C200.295 281.096 199.741 280.899 199.335 280.504C198.941 280.109 198.743 279.517 198.743 278.728V273.768H197.159V272.984H198.743V270.856L199.719 270.488V272.984H202.087V273.768H199.719ZM207.478 272.792C209.409 272.792 210.374 273.827 210.374 275.896V281H209.398V275.96C209.398 275.16 209.233 274.573 208.902 274.2C208.582 273.827 208.075 273.64 207.382 273.64C206.582 273.64 205.937 273.885 205.446 274.376C204.955 274.867 204.71 275.528 204.71 276.36V281H203.75V269.224H204.71V274.376C204.966 273.853 205.334 273.459 205.814 273.192C206.294 272.925 206.849 272.792 207.478 272.792ZM213.512 276.872V276.92C213.512 277.997 213.757 278.824 214.248 279.4C214.749 279.965 215.475 280.248 216.424 280.248C217.384 280.248 218.264 279.917 219.064 279.256L219.448 280.024C219.096 280.355 218.648 280.621 218.104 280.824C217.56 281.016 217 281.112 216.424 281.112C215.208 281.112 214.248 280.744 213.544 280.008C212.84 279.272 212.488 278.259 212.488 276.968C212.488 276.147 212.643 275.421 212.952 274.792C213.272 274.152 213.715 273.661 214.28 273.32C214.845 272.968 215.496 272.792 216.232 272.792C217.288 272.792 218.109 273.133 218.696 273.816C219.293 274.499 219.592 275.448 219.592 276.664V276.872H213.512ZM216.232 273.592C215.496 273.592 214.899 273.816 214.44 274.264C213.981 274.701 213.693 275.32 213.576 276.12H218.664C218.6 275.299 218.36 274.675 217.944 274.248C217.528 273.811 216.957 273.592 216.232 273.592ZM229.51 272.792C230.214 272.792 230.838 272.963 231.382 273.304C231.926 273.645 232.342 274.125 232.63 274.744C232.928 275.363 233.078 276.088 233.078 276.92C233.078 277.752 232.928 278.488 232.63 279.128C232.331 279.757 231.91 280.248 231.366 280.6C230.832 280.941 230.214 281.112 229.51 281.112C228.848 281.112 228.278 280.968 227.798 280.68C227.328 280.392 226.976 279.976 226.742 279.432V281H225.766V269.224H226.726V274.488C226.96 273.933 227.318 273.512 227.798 273.224C228.278 272.936 228.848 272.792 229.51 272.792ZM229.398 280.248C230.23 280.248 230.88 279.955 231.35 279.368C231.819 278.781 232.054 277.965 232.054 276.92C232.054 275.885 231.819 275.08 231.35 274.504C230.88 273.928 230.224 273.64 229.382 273.64C228.539 273.64 227.888 273.928 227.43 274.504C226.971 275.08 226.742 275.896 226.742 276.952C226.742 278.008 226.971 278.824 227.43 279.4C227.888 279.965 228.544 280.248 229.398 280.248ZM235.731 276.872V276.92C235.731 277.997 235.976 278.824 236.467 279.4C236.968 279.965 237.693 280.248 238.643 280.248C239.603 280.248 240.483 279.917 241.283 279.256L241.667 280.024C241.315 280.355 240.867 280.621 240.323 280.824C239.779 281.016 239.219 281.112 238.643 281.112C237.427 281.112 236.467 280.744 235.763 280.008C235.059 279.272 234.707 278.259 234.707 276.968C234.707 276.147 234.861 275.421 235.171 274.792C235.491 274.152 235.933 273.661 236.499 273.32C237.064 272.968 237.715 272.792 238.451 272.792C239.507 272.792 240.328 273.133 240.915 273.816C241.512 274.499 241.811 275.448 241.811 276.664V276.872H235.731ZM238.451 273.592C237.715 273.592 237.117 273.816 236.659 274.264C236.2 274.701 235.912 275.32 235.795 276.12H240.883C240.819 275.299 240.579 274.675 240.163 274.248C239.747 273.811 239.176 273.592 238.451 273.592ZM246.514 281.112C245.213 281.112 244.183 280.755 243.426 280.04L243.778 279.288C244.205 279.64 244.631 279.891 245.058 280.04C245.495 280.189 245.997 280.264 246.562 280.264C247.223 280.264 247.725 280.152 248.066 279.928C248.418 279.693 248.594 279.357 248.594 278.92C248.594 278.557 248.477 278.275 248.242 278.072C248.018 277.859 247.645 277.688 247.122 277.56L245.762 277.256C245.122 277.107 244.615 276.84 244.242 276.456C243.879 276.072 243.698 275.624 243.698 275.112C243.698 274.408 243.965 273.848 244.498 273.432C245.042 273.005 245.762 272.792 246.658 272.792C247.223 272.792 247.746 272.883 248.226 273.064C248.717 273.245 249.122 273.507 249.442 273.848L249.074 274.6C248.338 273.96 247.533 273.64 246.658 273.64C246.039 273.64 245.559 273.763 245.218 274.008C244.877 274.253 244.706 274.595 244.706 275.032C244.706 275.395 244.813 275.688 245.026 275.912C245.25 276.136 245.591 276.301 246.05 276.408L247.426 276.744C248.866 277.064 249.586 277.773 249.586 278.872C249.586 279.544 249.309 280.088 248.754 280.504C248.199 280.909 247.453 281.112 246.514 281.112ZM253.094 273.768V278.536C253.094 279.176 253.217 279.619 253.462 279.864C253.708 280.109 254.07 280.232 254.55 280.232C254.849 280.232 255.137 280.184 255.414 280.088V280.968C255.073 281.053 254.726 281.096 254.374 281.096C253.67 281.096 253.116 280.899 252.71 280.504C252.316 280.109 252.118 279.517 252.118 278.728V273.768H250.534V272.984H252.118V270.856L253.094 270.488V272.984H255.462V273.768H253.094ZM83.784 300.792C84.0507 300.792 84.2853 300.813 84.488 300.856L84.44 301.736C84.2373 301.693 83.992 301.672 83.704 301.672C82.8933 301.672 82.2853 301.933 81.88 302.456C81.4853 302.968 81.288 303.581 81.288 304.296V309H80.328V303.208C80.328 302.376 80.2853 301.635 80.2 300.984H81.128L81.256 302.472C81.4587 301.928 81.784 301.512 82.232 301.224C82.6907 300.936 83.208 300.792 83.784 300.792ZM86.2619 304.872V304.92C86.2619 305.997 86.5072 306.824 86.9979 307.4C87.4992 307.965 88.2245 308.248 89.1739 308.248C90.1339 308.248 91.0139 307.917 91.8139 307.256L92.1979 308.024C91.8459 308.355 91.3979 308.621 90.8539 308.824C90.3099 309.016 89.7499 309.112 89.1739 309.112C87.9579 309.112 86.9979 308.744 86.2939 308.008C85.5899 307.272 85.2379 306.259 85.2379 304.968C85.2379 304.147 85.3925 303.421 85.7019 302.792C86.0219 302.152 86.4645 301.661 87.0299 301.32C87.5952 300.968 88.2459 300.792 88.9819 300.792C90.0379 300.792 90.8592 301.133 91.4459 301.816C92.0432 302.499 92.3419 303.448 92.3419 304.664V304.872H86.2619ZM88.9819 301.592C88.2459 301.592 87.6485 301.816 87.1899 302.264C86.7312 302.701 86.4432 303.32 86.3259 304.12H91.4139C91.3499 303.299 91.1099 302.675 90.6939 302.248C90.2779 301.811 89.7072 301.592 88.9819 301.592ZM97.6854 309.112C96.928 309.112 96.2667 308.941 95.7014 308.6C95.136 308.259 94.6987 307.779 94.3894 307.16C94.08 306.531 93.9254 305.805 93.9254 304.984C93.9254 304.152 94.08 303.421 94.3894 302.792C94.6987 302.152 95.1414 301.661 95.7174 301.32C96.2934 300.968 96.96 300.792 97.7174 300.792C98.2614 300.792 98.7787 300.888 99.2694 301.08C99.7707 301.261 100.181 301.517 100.501 301.848L100.117 302.616C99.7014 302.275 99.3014 302.029 98.9174 301.88C98.544 301.72 98.1547 301.64 97.7494 301.64C96.8854 301.64 96.2027 301.939 95.7014 302.536C95.2 303.123 94.9494 303.939 94.9494 304.984C94.9494 306.008 95.1947 306.808 95.6854 307.384C96.1867 307.96 96.8747 308.248 97.7494 308.248C98.1547 308.248 98.544 308.173 98.9174 308.024C99.3014 307.864 99.7014 307.619 100.117 307.288L100.501 308.04C100.16 308.371 99.7334 308.632 99.2214 308.824C98.72 309.016 98.208 309.112 97.6854 309.112ZM105.465 309.112C104.729 309.112 104.078 308.941 103.513 308.6C102.958 308.259 102.526 307.773 102.217 307.144C101.918 306.515 101.769 305.784 101.769 304.952C101.769 304.12 101.918 303.389 102.217 302.76C102.526 302.131 102.958 301.645 103.513 301.304C104.078 300.963 104.729 300.792 105.465 300.792C106.19 300.792 106.83 300.963 107.385 301.304C107.94 301.645 108.366 302.131 108.665 302.76C108.974 303.389 109.129 304.12 109.129 304.952C109.129 305.784 108.974 306.515 108.665 307.144C108.366 307.773 107.94 308.259 107.385 308.6C106.83 308.941 106.19 309.112 105.465 309.112ZM105.449 308.248C106.302 308.248 106.958 307.965 107.417 307.4C107.886 306.824 108.121 306.008 108.121 304.952C108.121 303.907 107.886 303.096 107.417 302.52C106.948 301.933 106.297 301.64 105.465 301.64C104.622 301.64 103.966 301.933 103.497 302.52C103.028 303.096 102.793 303.907 102.793 304.952C102.793 306.019 103.022 306.835 103.481 307.4C103.94 307.965 104.596 308.248 105.449 308.248ZM119.906 300.792C121.676 300.792 122.562 301.827 122.562 303.896V309H121.586V303.96C121.586 303.149 121.442 302.563 121.154 302.2C120.866 301.827 120.407 301.64 119.778 301.64C119.042 301.64 118.46 301.885 118.034 302.376C117.618 302.867 117.41 303.533 117.41 304.376V309H116.434V303.96C116.434 303.149 116.284 302.563 115.986 302.2C115.698 301.827 115.239 301.64 114.61 301.64C113.884 301.64 113.303 301.885 112.866 302.376C112.439 302.867 112.226 303.533 112.226 304.376V309H111.266V303.208C111.266 302.376 111.223 301.635 111.138 300.984H112.066L112.194 302.424C112.418 301.891 112.748 301.485 113.186 301.208C113.634 300.931 114.151 300.792 114.738 300.792C116.028 300.792 116.855 301.315 117.218 302.36C117.442 301.869 117.788 301.485 118.258 301.208C118.738 300.931 119.287 300.792 119.906 300.792ZM125.684 304.872V304.92C125.684 305.997 125.929 306.824 126.42 307.4C126.921 307.965 127.646 308.248 128.596 308.248C129.556 308.248 130.436 307.917 131.236 307.256L131.62 308.024C131.268 308.355 130.82 308.621 130.276 308.824C129.732 309.016 129.172 309.112 128.596 309.112C127.38 309.112 126.42 308.744 125.716 308.008C125.012 307.272 124.66 306.259 124.66 304.968C124.66 304.147 124.814 303.421 125.124 302.792C125.444 302.152 125.886 301.661 126.452 301.32C127.017 300.968 127.668 300.792 128.404 300.792C129.46 300.792 130.281 301.133 130.868 301.816C131.465 302.499 131.764 303.448 131.764 304.664V304.872H125.684ZM128.404 301.592C127.668 301.592 127.07 301.816 126.612 302.264C126.153 302.701 125.865 303.32 125.748 304.12H130.836C130.772 303.299 130.532 302.675 130.116 302.248C129.7 301.811 129.129 301.592 128.404 301.592ZM137.587 300.792C139.518 300.792 140.483 301.827 140.483 303.896V309H139.507V303.96C139.507 303.16 139.342 302.573 139.011 302.2C138.691 301.827 138.185 301.64 137.491 301.64C136.691 301.64 136.046 301.885 135.555 302.376C135.065 302.867 134.819 303.528 134.819 304.36V309H133.859V303.208C133.859 302.376 133.817 301.635 133.731 300.984H134.659L134.787 302.456C135.033 301.912 135.401 301.501 135.891 301.224C136.382 300.936 136.947 300.792 137.587 300.792ZM149.909 297.224V309H148.933V307.464C148.699 307.997 148.341 308.408 147.861 308.696C147.392 308.973 146.827 309.112 146.165 309.112C145.461 309.112 144.837 308.941 144.293 308.6C143.76 308.248 143.344 307.757 143.045 307.128C142.747 306.488 142.597 305.752 142.597 304.92C142.597 304.088 142.741 303.363 143.029 302.744C143.328 302.115 143.744 301.635 144.277 301.304C144.821 300.963 145.451 300.792 146.165 300.792C146.816 300.792 147.376 300.931 147.845 301.208C148.325 301.485 148.688 301.891 148.933 302.424V297.224H149.909ZM146.293 308.248C147.136 308.248 147.787 307.96 148.245 307.384C148.704 306.808 148.933 305.997 148.933 304.952C148.933 303.907 148.704 303.096 148.245 302.52C147.787 301.933 147.141 301.64 146.309 301.64C145.456 301.64 144.795 301.928 144.325 302.504C143.856 303.08 143.621 303.885 143.621 304.92C143.621 305.965 143.856 306.781 144.325 307.368C144.795 307.955 145.451 308.248 146.293 308.248ZM159.362 300.984V309H158.386V307.464C158.152 307.997 157.794 308.408 157.314 308.696C156.845 308.973 156.28 309.112 155.618 309.112C154.904 309.112 154.274 308.947 153.73 308.616C153.197 308.275 152.781 307.795 152.482 307.176C152.194 306.547 152.05 305.816 152.05 304.984C152.05 304.152 152.2 303.421 152.498 302.792C152.797 302.152 153.213 301.661 153.746 301.32C154.29 300.968 154.914 300.792 155.618 300.792C156.269 300.792 156.829 300.931 157.298 301.208C157.778 301.485 158.141 301.891 158.386 302.424V300.984H159.362ZM155.762 308.248C156.594 308.248 157.24 307.96 157.698 307.384C158.157 306.808 158.386 305.997 158.386 304.952C158.386 303.896 158.157 303.08 157.698 302.504C157.24 301.928 156.589 301.64 155.746 301.64C154.904 301.64 154.248 301.939 153.778 302.536C153.309 303.123 153.074 303.939 153.074 304.984C153.074 306.019 153.309 306.824 153.778 307.4C154.248 307.965 154.909 308.248 155.762 308.248ZM163.376 301.768V306.536C163.376 307.176 163.498 307.619 163.744 307.864C163.989 308.109 164.352 308.232 164.832 308.232C165.13 308.232 165.418 308.184 165.696 308.088V308.968C165.354 309.053 165.008 309.096 164.656 309.096C163.952 309.096 163.397 308.899 162.992 308.504C162.597 308.109 162.4 307.517 162.4 306.728V301.768H160.816V300.984H162.4V298.856L163.376 298.488V300.984H165.744V301.768H163.376ZM167.406 300.984H168.366V309H167.406V300.984ZM168.558 297.672V298.92H167.262V297.672H168.558ZM174.231 309.112C173.495 309.112 172.844 308.941 172.279 308.6C171.724 308.259 171.292 307.773 170.983 307.144C170.684 306.515 170.535 305.784 170.535 304.952C170.535 304.12 170.684 303.389 170.983 302.76C171.292 302.131 171.724 301.645 172.279 301.304C172.844 300.963 173.495 300.792 174.231 300.792C174.956 300.792 175.596 300.963 176.151 301.304C176.705 301.645 177.132 302.131 177.431 302.76C177.74 303.389 177.895 304.12 177.895 304.952C177.895 305.784 177.74 306.515 177.431 307.144C177.132 307.773 176.705 308.259 176.151 308.6C175.596 308.941 174.956 309.112 174.231 309.112ZM174.215 308.248C175.068 308.248 175.724 307.965 176.183 307.4C176.652 306.824 176.887 306.008 176.887 304.952C176.887 303.907 176.652 303.096 176.183 302.52C175.713 301.933 175.063 301.64 174.231 301.64C173.388 301.64 172.732 301.933 172.263 302.52C171.793 303.096 171.559 303.907 171.559 304.952C171.559 306.019 171.788 306.835 172.247 307.4C172.705 307.965 173.361 308.248 174.215 308.248ZM183.759 300.792C185.69 300.792 186.655 301.827 186.655 303.896V309H185.679V303.96C185.679 303.16 185.514 302.573 185.183 302.2C184.863 301.827 184.356 301.64 183.663 301.64C182.863 301.64 182.218 301.885 181.727 302.376C181.236 302.867 180.991 303.528 180.991 304.36V309H180.031V303.208C180.031 302.376 179.988 301.635 179.903 300.984H180.831L180.959 302.456C181.204 301.912 181.572 301.501 182.063 301.224C182.554 300.936 183.119 300.792 183.759 300.792ZM191.889 309.112C190.588 309.112 189.558 308.755 188.801 308.04L189.153 307.288C189.58 307.64 190.006 307.891 190.433 308.04C190.87 308.189 191.372 308.264 191.937 308.264C192.598 308.264 193.1 308.152 193.441 307.928C193.793 307.693 193.969 307.357 193.969 306.92C193.969 306.557 193.852 306.275 193.617 306.072C193.393 305.859 193.02 305.688 192.497 305.56L191.137 305.256C190.497 305.107 189.99 304.84 189.617 304.456C189.254 304.072 189.073 303.624 189.073 303.112C189.073 302.408 189.34 301.848 189.873 301.432C190.417 301.005 191.137 300.792 192.033 300.792C192.598 300.792 193.121 300.883 193.601 301.064C194.092 301.245 194.497 301.507 194.817 301.848L194.449 302.6C193.713 301.96 192.908 301.64 192.033 301.64C191.414 301.64 190.934 301.763 190.593 302.008C190.252 302.253 190.081 302.595 190.081 303.032C190.081 303.395 190.188 303.688 190.401 303.912C190.625 304.136 190.966 304.301 191.425 304.408L192.801 304.744C194.241 305.064 194.961 305.773 194.961 306.872C194.961 307.544 194.684 308.088 194.129 308.504C193.574 308.909 192.828 309.112 191.889 309.112Z" fill="#7D7987"/>
<defs>
<filter id="filter0_d_63_2665" x="0" y="0" width="450" height="454" filterUnits="userSpaceOnUse" color-interpolation-filters="sRGB">
<feFlood flood-opacity="0" result="BackgroundImageFix"/>
<feColorMatrix in="SourceAlpha" type="matrix" values="0 0 0 0 0 0 0 0 0 0 0 0 0 0 0 0 0 0 127 0" result="hardAlpha"/>
<feOffset dx="10" dy="40"/>
<feGaussianBlur stdDeviation="25"/>
<feColorMatrix type="matrix" values="0 0 0 0 0.897151 0 0 0 0 0.915421 0 0 0 0 0.962796 0 0 0 0.4 0"/>
<feBlend mode="normal" in2="BackgroundImageFix" result="effect1_dropShadow_63_2665"/>
<feBlend mode="normal" in="SourceGraphic" in2="effect1_dropShadow_63_2665" result="shape"/>
</filter>
<linearGradient id="paint0_linear_63_2665" x1="82.077" y1="102.03" x2="145.344" y2="107.454" gradientUnits="userSpaceOnUse">
<stop stop-color="#6CBCFC"/>
<stop offset="1" stop-color="#458DFC"/>
</linearGradient>
<linearGradient id="paint1_linear_63_2665" x1="96.6708" y1="76.2924" x2="126.465" y2="91.6685" gradientUnits="userSpaceOnUse">
<stop stop-color="#B0F4FF"/>
<stop offset="0.0856277" stop-color="#A3F0FE"/>
<stop offset="0.2972" stop-color="#8AE7FD"/>
<stop offset="0.5161" stop-color="#77E1FD"/>
<stop offset="0.7451" stop-color="#6DDDFC"/>
<stop offset="1" stop-color="#69DCFC"/>
</linearGradient>
<linearGradient id="paint2_linear_63_2665" x1="132.814" y1="106.257" x2="90.4813" y2="106.257" gradientUnits="userSpaceOnUse">
<stop stop-color="#6CBCFC"/>
<stop offset="1" stop-color="#458DFC"/>
</linearGradient>
<linearGradient id="paint3_linear_63_2665" x1="125.603" y1="116.588" x2="90.4813" y2="116.588" gradientUnits="userSpaceOnUse">
<stop stop-color="#6CBCFC"/>
<stop offset="1" stop-color="#458DFC"/>
</linearGradient>
<linearGradient id="paint4_linear_63_2665" x1="119.234" y1="122.78" x2="90.4813" y2="122.78" gradientUnits="userSpaceOnUse">
<stop stop-color="#6CBCFC"/>
<stop offset="1" stop-color="#458DFC"/>
</linearGradient>
<linearGradient id="paint5_linear_63_2665" x1="122.657" y1="128.512" x2="90.4813" y2="128.512" gradientUnits="userSpaceOnUse">
<stop stop-color="#6CBCFC"/>
<stop offset="1" stop-color="#458DFC"/>
</linearGradient>
<clipPath id="clip0_63_2665">
<rect width="67.2917" height="95" fill="white" transform="translate(78 57)"/>
</clipPath>
</defs>
</svg>
