<svg width="450" height="454" viewBox="0 0 450 454" fill="none" xmlns="http://www.w3.org/2000/svg">
<g filter="url(#filter0_d_63_2666)">
<rect x="40" y="10" width="350" height="354" rx="20" fill="white"/>
</g>
<path d="M79.848 196.32H86.136C88.936 196.32 91.104 197.064 92.64 198.552C94.192 200.04 94.968 202.136 94.968 204.84C94.968 207.56 94.192 209.672 92.64 211.176C91.104 212.664 88.936 213.408 86.136 213.408H79.848V196.32ZM85.944 210.888C89.88 210.888 91.848 208.872 91.848 204.84C91.848 200.84 89.88 198.84 85.944 198.84H82.944V210.888H85.944ZM108.521 207.504H100.169C100.233 208.8 100.553 209.76 101.129 210.384C101.721 210.992 102.593 211.296 103.745 211.296C105.073 211.296 106.305 210.864 107.441 210L108.305 212.064C107.729 212.528 107.017 212.904 106.169 213.192C105.337 213.464 104.489 213.6 103.625 213.6C101.641 213.6 100.081 213.04 98.9453 211.92C97.8093 210.8 97.2413 209.264 97.2413 207.312C97.2413 206.08 97.4893 204.984 97.9853 204.024C98.4813 203.064 99.1773 202.32 100.073 201.792C100.969 201.248 101.985 200.976 103.121 200.976C104.785 200.976 106.097 201.52 107.057 202.608C108.033 203.68 108.521 205.16 108.521 207.048V207.504ZM103.193 203.136C102.393 203.136 101.737 203.376 101.225 203.856C100.729 204.32 100.409 205 100.265 205.896H105.905C105.809 204.984 105.529 204.296 105.065 203.832C104.617 203.368 103.993 203.136 103.193 203.136ZM114.714 203.544V208.968C114.714 210.392 115.378 211.104 116.706 211.104C117.074 211.104 117.474 211.04 117.906 210.912V213.288C117.378 213.48 116.738 213.576 115.986 213.576C114.61 213.576 113.554 213.192 112.818 212.424C112.082 211.656 111.714 210.552 111.714 209.112V203.544H109.386V201.288H111.714V198.336L114.714 197.328V201.288H117.93V203.544H114.714ZM131.583 201.288V213.408H128.631V211.464C128.263 212.136 127.735 212.664 127.047 213.048C126.359 213.416 125.575 213.6 124.695 213.6C123.639 213.6 122.703 213.344 121.887 212.832C121.071 212.32 120.439 211.592 119.991 210.648C119.543 209.704 119.319 208.608 119.319 207.36C119.319 206.112 119.543 205.008 119.991 204.048C120.455 203.072 121.095 202.32 121.911 201.792C122.727 201.248 123.655 200.976 124.695 200.976C125.575 200.976 126.359 201.168 127.047 201.552C127.735 201.92 128.263 202.44 128.631 203.112V201.288H131.583ZM125.511 211.248C126.503 211.248 127.271 210.904 127.815 210.216C128.359 209.528 128.631 208.56 128.631 207.312C128.631 206.032 128.359 205.048 127.815 204.36C127.271 203.672 126.495 203.328 125.487 203.328C124.495 203.328 123.719 203.688 123.159 204.408C122.615 205.112 122.343 206.096 122.343 207.36C122.343 208.608 122.615 209.568 123.159 210.24C123.719 210.912 124.503 211.248 125.511 211.248ZM134.851 201.288H137.827V213.408H134.851V201.288ZM137.995 195.792V198.744H134.659V195.792H137.995ZM141.109 195.744H144.085V213.408H141.109V195.744ZM151.806 213.6C149.614 213.6 147.87 213.088 146.574 212.064L147.414 209.952C148.71 210.912 150.19 211.392 151.854 211.392C152.574 211.392 153.126 211.272 153.51 211.032C153.91 210.792 154.11 210.456 154.11 210.024C154.11 209.656 153.974 209.368 153.702 209.16C153.43 208.936 152.966 208.744 152.31 208.584L150.294 208.128C148.086 207.648 146.982 206.52 146.982 204.744C146.982 204.008 147.19 203.36 147.606 202.8C148.022 202.224 148.606 201.776 149.358 201.456C150.11 201.136 150.982 200.976 151.974 200.976C152.838 200.976 153.67 201.112 154.47 201.384C155.27 201.64 155.974 202.016 156.582 202.512L155.694 204.552C154.478 203.656 153.23 203.208 151.95 203.208C151.262 203.208 150.726 203.336 150.342 203.592C149.958 203.848 149.766 204.2 149.766 204.648C149.766 205 149.878 205.28 150.102 205.488C150.342 205.696 150.742 205.872 151.302 206.016L153.366 206.472C154.566 206.744 155.438 207.168 155.982 207.744C156.542 208.304 156.822 209.04 156.822 209.952C156.822 211.072 156.374 211.96 155.478 212.616C154.582 213.272 153.358 213.6 151.806 213.6ZM165.976 201.288H168.952V213.408H165.976V201.288ZM169.12 195.792V198.744H165.784V195.792H169.12ZM179.17 200.976C182.066 200.976 183.514 202.64 183.514 205.968V213.408H180.514V206.112C180.514 205.152 180.33 204.456 179.962 204.024C179.594 203.576 179.026 203.352 178.258 203.352C177.346 203.352 176.61 203.648 176.05 204.24C175.49 204.816 175.21 205.584 175.21 206.544V213.408H172.234V204.72C172.234 203.44 172.17 202.296 172.042 201.288H174.85L175.066 203.28C175.482 202.544 176.042 201.976 176.746 201.576C177.466 201.176 178.274 200.976 179.17 200.976ZM192.431 198.12C191.135 198.12 190.487 198.832 190.487 200.256V201.288H193.199V203.544H190.487V213.408H187.487V203.544H185.183V201.288H187.487V200.112C187.487 198.672 187.847 197.568 188.567 196.8C189.303 196.016 190.351 195.624 191.711 195.624C192.463 195.624 193.095 195.72 193.607 195.912V198.288C193.159 198.176 192.767 198.12 192.431 198.12ZM200.886 213.6C199.654 213.6 198.566 213.344 197.622 212.832C196.694 212.32 195.974 211.592 195.462 210.648C194.966 209.688 194.718 208.568 194.718 207.288C194.718 206.008 194.966 204.896 195.462 203.952C195.974 202.992 196.694 202.256 197.622 201.744C198.566 201.232 199.654 200.976 200.886 200.976C202.102 200.976 203.174 201.232 204.102 201.744C205.03 202.256 205.742 202.992 206.238 203.952C206.75 204.896 207.006 206.008 207.006 207.288C207.006 208.568 206.75 209.688 206.238 210.648C205.742 211.592 205.03 212.32 204.102 212.832C203.174 213.344 202.102 213.6 200.886 213.6ZM200.862 211.248C201.886 211.248 202.662 210.92 203.19 210.264C203.734 209.592 204.006 208.6 204.006 207.288C204.006 205.992 203.734 205.008 203.19 204.336C202.646 203.648 201.878 203.304 200.886 203.304C199.878 203.304 199.102 203.648 198.558 204.336C198.014 205.008 197.742 205.992 197.742 207.288C197.742 208.6 198.006 209.592 198.534 210.264C199.078 210.92 199.854 211.248 200.862 211.248Z" fill="black"/>
<g clip-path="url(#clip0_63_2666)">
<path d="M146.711 146.448C146.711 148.927 144.704 150.942 142.225 150.942L84.2201 151.008C82.2468 151.008 80.572 149.74 79.9668 147.974C79.8092 147.518 79.7263 147.037 79.7263 146.531L79.6351 62.8817C79.6351 60.4026 81.6416 58.3879 84.1206 58.3879L137.383 58.3298L142.126 58.3215C144.605 58.3215 146.619 60.328 146.619 62.807L146.711 146.448Z" fill="url(#paint0_linear_63_2666)"/>
<path d="M140.699 145.967L85.7374 146.025C84.4026 146.025 83.3247 144.948 83.3247 143.613L83.2418 65.767C83.2418 64.4322 84.3196 63.3543 85.6545 63.3543L140.608 63.2963C141.943 63.2963 143.021 64.3741 143.021 65.709L143.104 143.555C143.112 144.881 142.034 145.967 140.699 145.967Z" fill="white"/>
<path d="M132.98 69.7136L92.8927 69.7633C91.5661 69.7633 90.4799 68.6855 90.4799 67.3589L90.4716 60.6762C90.4716 59.3496 91.5495 58.2635 92.8761 58.2635L132.972 58.222C134.299 58.222 135.385 59.2999 135.385 60.6265L135.393 67.3091C135.385 68.6357 134.307 69.7136 132.98 69.7136ZM92.8761 59.4906C92.2294 59.4906 91.6987 60.0212 91.6987 60.6679L91.707 67.3506C91.707 67.9973 92.2377 68.5279 92.8844 68.5279L132.98 68.4865C133.627 68.4865 134.158 67.9559 134.158 67.3091L134.149 60.6265C134.149 59.9798 133.619 59.4491 132.972 59.4491L92.8761 59.4906Z" fill="url(#paint1_linear_63_2666)"/>
<path d="M131.845 61.1156L94.41 61.1571C93.9954 61.1571 93.6638 60.8254 93.6638 60.4109V56.7877C93.6638 56.3731 93.9954 56.0415 94.41 56.0415L131.836 56C132.251 56 132.582 56.3316 132.582 56.7462V60.3694C132.591 60.784 132.259 61.1156 131.845 61.1156Z" fill="url(#paint2_linear_63_2666)"/>
<path d="M94.4431 61.1571L131.811 61.1157C132.242 61.1157 132.591 60.7675 132.591 60.3363V58.562L93.6555 58.6035V60.3778C93.6555 60.8089 94.012 61.1571 94.4431 61.1571Z" fill="#58D6F4"/>
<path d="M107.576 137.212L104.343 117.645L101.723 126.16L94.2276 126.168C93.7715 126.168 93.4067 125.803 93.4067 125.347C93.4067 124.891 93.7715 124.526 94.2276 124.526L100.521 124.518L104.84 110.498L108.074 130.115L112.269 116.641L114.499 123.026L119.524 110.846L124.407 130.164L126.248 124.021L131.637 124.012C132.093 124.012 132.458 124.377 132.458 124.833C132.458 125.289 132.093 125.654 131.637 125.654L127.467 125.662L124.275 136.316L119.151 116.053L114.367 127.635L112.352 121.873L107.576 137.212Z" fill="#58D6F4"/>
<path d="M102.021 99.4871L91.4831 99.4954C89.7835 99.4954 88.3905 98.1107 88.3905 96.411L88.374 81.6777C88.374 79.978 89.7586 78.5851 91.4583 78.5851L101.996 78.5768C103.696 78.5768 105.089 79.9614 105.089 81.6611L105.106 96.3945C105.106 98.0942 103.721 99.4788 102.021 99.4871ZM91.45 79.4805C90.2395 79.4805 89.2611 80.4672 89.2611 81.6777L89.2777 96.411C89.2777 97.6216 90.2643 98.5999 91.4749 98.5999L102.013 98.5916C103.223 98.5916 104.202 97.605 104.202 96.3945L104.185 81.6611C104.185 80.4506 103.199 79.4722 101.988 79.4722L91.45 79.4805Z" fill="url(#paint3_linear_63_2666)"/>
<path d="M96.7398 96.6598C101.723 96.6515 103.273 93.7745 103.273 93.7745C103.049 93.4926 102.767 93.2439 102.386 92.9951C101.076 92.1411 100.023 91.7763 99.5836 91.4115C99.1359 91.055 98.8872 90.5327 98.8872 90.5327L98.6136 90.6985C98.6136 90.6985 98.4477 90.1264 98.539 89.2558C98.539 89.2558 98.9286 89.1563 99.2188 87.838C99.6831 87.9292 100.23 86.7519 99.9733 86.3207C99.8075 86.0388 99.6085 86.0637 99.4676 86.1301C99.6085 85.5414 100.247 82.283 96.7315 82.283C93.216 82.283 93.8544 85.5414 94.0037 86.1301C93.8627 86.0637 93.6638 86.0388 93.4979 86.3207C93.2409 86.7519 93.7964 87.9292 94.2607 87.838C94.5509 89.1563 94.9489 89.2475 94.9489 89.2475C95.0484 90.1098 94.8743 90.6902 94.8743 90.6902L94.6007 90.5244C94.6007 90.5244 94.3519 91.0384 93.9042 91.4032C93.4565 91.768 92.4118 92.1411 91.1018 92.9951C90.7204 93.2439 90.4302 93.4926 90.2146 93.7745C90.2063 93.7911 91.7651 96.6681 96.7398 96.6598Z" fill="url(#paint4_linear_63_2666)"/>
<path d="M129.556 83.2779L109.268 83.3028C108.886 83.3028 108.58 82.996 108.58 82.6146V82.4986C108.58 82.1172 108.886 81.8104 109.268 81.8104L129.556 81.7855C129.938 81.7855 130.244 82.0923 130.244 82.4737V82.5898C130.244 82.9712 129.929 83.2779 129.556 83.2779Z" fill="url(#paint5_linear_63_2666)"/>
<path d="M122.094 87.1416L109.268 87.1582C108.886 87.1582 108.58 86.8514 108.58 86.47V86.3539C108.58 85.9725 108.886 85.6658 109.268 85.6658L122.094 85.6492C122.475 85.6492 122.782 85.9559 122.782 86.3373V86.4534C122.782 86.8348 122.475 87.1416 122.094 87.1416Z" fill="url(#paint6_linear_63_2666)"/>
<path opacity="0.6" d="M136.554 91.7348L109.276 91.768C108.895 91.768 108.588 91.4612 108.588 91.0798V90.9638C108.588 90.5824 108.895 90.2756 109.276 90.2756L136.554 90.2424C136.935 90.2424 137.242 90.5492 137.242 90.9306V91.0467C137.234 91.4281 136.927 91.7348 136.554 91.7348Z" fill="url(#paint7_linear_63_2666)"/>
<path opacity="0.6" d="M135.965 104.644L90.4634 104.694C90.0737 104.694 89.7503 104.379 89.7503 103.981V103.915C89.7503 103.525 90.0654 103.201 90.4634 103.201L135.965 103.152C136.355 103.152 136.678 103.467 136.678 103.865V103.931C136.678 104.329 136.355 104.644 135.965 104.644Z" fill="url(#paint8_linear_63_2666)"/>
<path opacity="0.6" d="M136.554 96.2452L109.276 96.2784C108.895 96.2784 108.588 95.9716 108.588 95.5902V95.4741C108.588 95.0927 108.895 94.786 109.276 94.786L136.554 94.7528C136.935 94.7528 137.242 95.0596 137.242 95.441V95.5571C137.242 95.9384 136.935 96.2452 136.554 96.2452Z" fill="url(#paint9_linear_63_2666)"/>
</g>
<path d="M80.1071 241.608H86.9711V242.456H81.0991V246.776H86.6511V247.656H81.0991V253H80.1071V241.608ZM92.1848 244.792C92.4514 244.792 92.6861 244.813 92.8888 244.856L92.8408 245.736C92.6381 245.693 92.3928 245.672 92.1048 245.672C91.2941 245.672 90.6861 245.933 90.2808 246.456C89.8861 246.968 89.6888 247.581 89.6888 248.296V253H88.7288V247.208C88.7288 246.376 88.6861 245.635 88.6008 244.984H89.5288L89.6568 246.472C89.8594 245.928 90.1848 245.512 90.6328 245.224C91.0914 244.936 91.6088 244.792 92.1848 244.792ZM94.6626 248.872V248.92C94.6626 249.997 94.908 250.824 95.3986 251.4C95.9 251.965 96.6253 252.248 97.5746 252.248C98.5346 252.248 99.4146 251.917 100.215 251.256L100.599 252.024C100.247 252.355 99.7986 252.621 99.2546 252.824C98.7106 253.016 98.1506 253.112 97.5746 253.112C96.3586 253.112 95.3986 252.744 94.6946 252.008C93.9906 251.272 93.6386 250.259 93.6386 248.968C93.6386 248.147 93.7933 247.421 94.1026 246.792C94.4226 246.152 94.8653 245.661 95.4306 245.32C95.996 244.968 96.6466 244.792 97.3826 244.792C98.4386 244.792 99.26 245.133 99.8466 245.816C100.444 246.499 100.743 247.448 100.743 248.664V248.872H94.6626ZM97.3826 245.592C96.6466 245.592 96.0493 245.816 95.5906 246.264C95.132 246.701 94.844 247.32 94.7266 248.12H99.8146C99.7506 247.299 99.5106 246.675 99.0946 246.248C98.6786 245.811 98.108 245.592 97.3826 245.592ZM103.35 248.872V248.92C103.35 249.997 103.595 250.824 104.086 251.4C104.587 251.965 105.313 252.248 106.262 252.248C107.222 252.248 108.102 251.917 108.902 251.256L109.286 252.024C108.934 252.355 108.486 252.621 107.942 252.824C107.398 253.016 106.838 253.112 106.262 253.112C105.046 253.112 104.086 252.744 103.382 252.008C102.678 251.272 102.326 250.259 102.326 248.968C102.326 248.147 102.481 247.421 102.79 246.792C103.11 246.152 103.553 245.661 104.118 245.32C104.683 244.968 105.334 244.792 106.07 244.792C107.126 244.792 107.947 245.133 108.534 245.816C109.131 246.499 109.43 247.448 109.43 248.664V248.872H103.35ZM106.07 245.592C105.334 245.592 104.737 245.816 104.278 246.264C103.819 246.701 103.531 247.32 103.414 248.12H108.502C108.438 247.299 108.198 246.675 107.782 246.248C107.366 245.811 106.795 245.592 106.07 245.592ZM118.852 253.112C118.094 253.112 117.433 252.941 116.868 252.6C116.302 252.259 115.865 251.779 115.556 251.16C115.246 250.531 115.092 249.805 115.092 248.984C115.092 248.152 115.246 247.421 115.556 246.792C115.865 246.152 116.308 245.661 116.884 245.32C117.46 244.968 118.126 244.792 118.884 244.792C119.428 244.792 119.945 244.888 120.436 245.08C120.937 245.261 121.348 245.517 121.668 245.848L121.284 246.616C120.868 246.275 120.468 246.029 120.084 245.88C119.71 245.72 119.321 245.64 118.916 245.64C118.052 245.64 117.369 245.939 116.868 246.536C116.366 247.123 116.116 247.939 116.116 248.984C116.116 250.008 116.361 250.808 116.852 251.384C117.353 251.96 118.041 252.248 118.916 252.248C119.321 252.248 119.71 252.173 120.084 252.024C120.468 251.864 120.868 251.619 121.284 251.288L121.668 252.04C121.326 252.371 120.9 252.632 120.388 252.824C119.886 253.016 119.374 253.112 118.852 253.112ZM126.632 253.112C125.896 253.112 125.245 252.941 124.68 252.6C124.125 252.259 123.693 251.773 123.384 251.144C123.085 250.515 122.936 249.784 122.936 248.952C122.936 248.12 123.085 247.389 123.384 246.76C123.693 246.131 124.125 245.645 124.68 245.304C125.245 244.963 125.896 244.792 126.632 244.792C127.357 244.792 127.997 244.963 128.552 245.304C129.106 245.645 129.533 246.131 129.832 246.76C130.141 247.389 130.296 248.12 130.296 248.952C130.296 249.784 130.141 250.515 129.832 251.144C129.533 251.773 129.106 252.259 128.552 252.6C127.997 252.941 127.357 253.112 126.632 253.112ZM126.616 252.248C127.469 252.248 128.125 251.965 128.584 251.4C129.053 250.824 129.288 250.008 129.288 248.952C129.288 247.907 129.053 247.096 128.584 246.52C128.114 245.933 127.464 245.64 126.632 245.64C125.789 245.64 125.133 245.933 124.664 246.52C124.194 247.096 123.96 247.907 123.96 248.952C123.96 250.019 124.189 250.835 124.648 251.4C125.106 251.965 125.762 252.248 126.616 252.248ZM136.16 244.792C138.091 244.792 139.056 245.827 139.056 247.896V253H138.08V247.96C138.08 247.16 137.915 246.573 137.584 246.2C137.264 245.827 136.757 245.64 136.064 245.64C135.264 245.64 134.619 245.885 134.128 246.376C133.637 246.867 133.392 247.528 133.392 248.36V253H132.432V247.208C132.432 246.376 132.389 245.635 132.304 244.984H133.232L133.36 246.456C133.605 245.912 133.973 245.501 134.464 245.224C134.955 244.936 135.52 244.792 136.16 244.792ZM144.29 253.112C142.989 253.112 141.959 252.755 141.202 252.04L141.554 251.288C141.981 251.64 142.407 251.891 142.834 252.04C143.271 252.189 143.773 252.264 144.338 252.264C144.999 252.264 145.501 252.152 145.842 251.928C146.194 251.693 146.37 251.357 146.37 250.92C146.37 250.557 146.253 250.275 146.018 250.072C145.794 249.859 145.421 249.688 144.898 249.56L143.538 249.256C142.898 249.107 142.391 248.84 142.018 248.456C141.655 248.072 141.474 247.624 141.474 247.112C141.474 246.408 141.741 245.848 142.274 245.432C142.818 245.005 143.538 244.792 144.434 244.792C144.999 244.792 145.522 244.883 146.002 245.064C146.493 245.245 146.898 245.507 147.218 245.848L146.85 246.6C146.114 245.96 145.309 245.64 144.434 245.64C143.815 245.64 143.335 245.763 142.994 246.008C142.653 246.253 142.482 246.595 142.482 247.032C142.482 247.395 142.589 247.688 142.802 247.912C143.026 248.136 143.367 248.301 143.826 248.408L145.202 248.744C146.642 249.064 147.362 249.773 147.362 250.872C147.362 251.544 147.085 252.088 146.53 252.504C145.975 252.909 145.229 253.112 144.29 253.112ZM156.036 244.984V253H155.092V251.544C154.836 252.056 154.473 252.445 154.004 252.712C153.535 252.979 152.996 253.112 152.388 253.112C151.449 253.112 150.74 252.851 150.26 252.328C149.78 251.805 149.54 251.032 149.54 250.008V244.984H150.5V249.944C150.5 250.733 150.66 251.315 150.98 251.688C151.3 252.061 151.796 252.248 152.468 252.248C153.257 252.248 153.887 252.003 154.356 251.512C154.825 251.011 155.06 250.349 155.06 249.528V244.984H156.036ZM158.698 241.224H159.658V253H158.698V241.224ZM163.698 245.768V250.536C163.698 251.176 163.821 251.619 164.066 251.864C164.311 252.109 164.674 252.232 165.154 252.232C165.453 252.232 165.741 252.184 166.018 252.088V252.968C165.677 253.053 165.33 253.096 164.978 253.096C164.274 253.096 163.719 252.899 163.314 252.504C162.919 252.109 162.722 251.517 162.722 250.728V245.768H161.138V244.984H162.722V242.856L163.698 242.488V244.984H166.066V245.768H163.698ZM174.529 244.984V253H173.553V251.464C173.318 251.997 172.961 252.408 172.481 252.696C172.011 252.973 171.446 253.112 170.785 253.112C170.07 253.112 169.441 252.947 168.897 252.616C168.363 252.275 167.947 251.795 167.649 251.176C167.361 250.547 167.217 249.816 167.217 248.984C167.217 248.152 167.366 247.421 167.665 246.792C167.963 246.152 168.379 245.661 168.913 245.32C169.457 244.968 170.081 244.792 170.785 244.792C171.435 244.792 171.995 244.931 172.465 245.208C172.945 245.485 173.307 245.891 173.553 246.424V244.984H174.529ZM170.929 252.248C171.761 252.248 172.406 251.96 172.865 251.384C173.323 250.808 173.553 249.997 173.553 248.952C173.553 247.896 173.323 247.08 172.865 246.504C172.406 245.928 171.755 245.64 170.913 245.64C170.07 245.64 169.414 245.939 168.945 246.536C168.475 247.123 168.241 247.939 168.241 248.984C168.241 250.019 168.475 250.824 168.945 251.4C169.414 251.965 170.075 252.248 170.929 252.248ZM178.542 245.768V250.536C178.542 251.176 178.665 251.619 178.91 251.864C179.155 252.109 179.518 252.232 179.998 252.232C180.297 252.232 180.585 252.184 180.862 252.088V252.968C180.521 253.053 180.174 253.096 179.822 253.096C179.118 253.096 178.563 252.899 178.158 252.504C177.763 252.109 177.566 251.517 177.566 250.728V245.768H175.982V244.984H177.566V242.856L178.542 242.488V244.984H180.91V245.768H178.542ZM182.573 244.984H183.533V253H182.573V244.984ZM183.725 241.672V242.92H182.429V241.672H183.725ZM189.397 253.112C188.661 253.112 188.01 252.941 187.445 252.6C186.89 252.259 186.458 251.773 186.149 251.144C185.85 250.515 185.701 249.784 185.701 248.952C185.701 248.12 185.85 247.389 186.149 246.76C186.458 246.131 186.89 245.645 187.445 245.304C188.01 244.963 188.661 244.792 189.397 244.792C190.122 244.792 190.762 244.963 191.317 245.304C191.872 245.645 192.298 246.131 192.597 246.76C192.906 247.389 193.061 248.12 193.061 248.952C193.061 249.784 192.906 250.515 192.597 251.144C192.298 251.773 191.872 252.259 191.317 252.6C190.762 252.941 190.122 253.112 189.397 253.112ZM189.381 252.248C190.234 252.248 190.89 251.965 191.349 251.4C191.818 250.824 192.053 250.008 192.053 248.952C192.053 247.907 191.818 247.096 191.349 246.52C190.88 245.933 190.229 245.64 189.397 245.64C188.554 245.64 187.898 245.933 187.429 246.52C186.96 247.096 186.725 247.907 186.725 248.952C186.725 250.019 186.954 250.835 187.413 251.4C187.872 251.965 188.528 252.248 189.381 252.248ZM198.926 244.792C200.856 244.792 201.822 245.827 201.822 247.896V253H200.846V247.96C200.846 247.16 200.68 246.573 200.35 246.2C200.03 245.827 199.523 245.64 198.83 245.64C198.03 245.64 197.384 245.885 196.894 246.376C196.403 246.867 196.158 247.528 196.158 248.36V253H195.198V247.208C195.198 246.376 195.155 245.635 195.07 244.984H195.998L196.126 246.456C196.371 245.912 196.739 245.501 197.23 245.224C197.72 244.936 198.286 244.792 198.926 244.792ZM220.462 244.984L217.55 253H216.542L214.11 246.232L211.662 253H210.638L207.742 244.984H208.782L211.15 251.832L213.646 244.984H214.622L217.038 251.832L219.47 244.984H220.462ZM222.338 244.984H223.298V253H222.338V244.984ZM223.49 241.672V242.92H222.194V241.672H223.49ZM227.339 245.768V250.536C227.339 251.176 227.461 251.619 227.707 251.864C227.952 252.109 228.315 252.232 228.795 252.232C229.093 252.232 229.381 252.184 229.659 252.088V252.968C229.317 253.053 228.971 253.096 228.619 253.096C227.915 253.096 227.36 252.899 226.955 252.504C226.56 252.109 226.363 251.517 226.363 250.728V245.768H224.779V244.984H226.363V242.856L227.339 242.488V244.984H229.707V245.768H227.339ZM235.097 244.792C237.028 244.792 237.993 245.827 237.993 247.896V253H237.017V247.96C237.017 247.16 236.852 246.573 236.521 246.2C236.201 245.827 235.695 245.64 235.001 245.64C234.201 245.64 233.556 245.885 233.065 246.376C232.575 246.867 232.329 247.528 232.329 248.36V253H231.369V241.224H232.329V246.376C232.585 245.853 232.953 245.459 233.433 245.192C233.913 244.925 234.468 244.792 235.097 244.792ZM247.882 253.112C247.146 253.112 246.495 252.941 245.93 252.6C245.375 252.259 244.943 251.773 244.634 251.144C244.335 250.515 244.186 249.784 244.186 248.952C244.186 248.12 244.335 247.389 244.634 246.76C244.943 246.131 245.375 245.645 245.93 245.304C246.495 244.963 247.146 244.792 247.882 244.792C248.607 244.792 249.247 244.963 249.802 245.304C250.356 245.645 250.783 246.131 251.082 246.76C251.391 247.389 251.546 248.12 251.546 248.952C251.546 249.784 251.391 250.515 251.082 251.144C250.783 251.773 250.356 252.259 249.802 252.6C249.247 252.941 248.607 253.112 247.882 253.112ZM247.866 252.248C248.719 252.248 249.375 251.965 249.834 251.4C250.303 250.824 250.538 250.008 250.538 248.952C250.538 247.907 250.303 247.096 249.834 246.52C249.364 245.933 248.714 245.64 247.882 245.64C247.039 245.64 246.383 245.933 245.914 246.52C245.444 247.096 245.21 247.907 245.21 248.952C245.21 250.019 245.439 250.835 245.898 251.4C246.356 251.965 247.012 252.248 247.866 252.248ZM260.13 244.984V253H259.186V251.544C258.93 252.056 258.567 252.445 258.098 252.712C257.629 252.979 257.09 253.112 256.482 253.112C255.543 253.112 254.834 252.851 254.354 252.328C253.874 251.805 253.634 251.032 253.634 250.008V244.984H254.594V249.944C254.594 250.733 254.754 251.315 255.074 251.688C255.394 252.061 255.89 252.248 256.562 252.248C257.351 252.248 257.981 252.003 258.45 251.512C258.919 251.011 259.154 250.349 259.154 249.528V244.984H260.13ZM266.247 244.792C266.514 244.792 266.749 244.813 266.951 244.856L266.903 245.736C266.701 245.693 266.455 245.672 266.167 245.672C265.357 245.672 264.749 245.933 264.343 246.456C263.949 246.968 263.751 247.581 263.751 248.296V253H262.791V247.208C262.791 246.376 262.749 245.635 262.663 244.984H263.591L263.719 246.472C263.922 245.928 264.247 245.512 264.695 245.224C265.154 244.936 265.671 244.792 266.247 244.792ZM273.808 245.768V250.536C273.808 251.176 273.93 251.619 274.176 251.864C274.421 252.109 274.784 252.232 275.264 252.232C275.562 252.232 275.85 252.184 276.128 252.088V252.968C275.786 253.053 275.44 253.096 275.088 253.096C274.384 253.096 273.829 252.899 273.424 252.504C273.029 252.109 272.832 251.517 272.832 250.728V245.768H271.248V244.984H272.832V242.856L273.808 242.488V244.984H276.176V245.768H273.808ZM281.294 244.792C281.561 244.792 281.795 244.813 281.998 244.856L281.95 245.736C281.747 245.693 281.502 245.672 281.214 245.672C280.403 245.672 279.795 245.933 279.39 246.456C278.995 246.968 278.798 247.581 278.798 248.296V253H277.838V247.208C277.838 246.376 277.795 245.635 277.71 244.984H278.638L278.766 246.472C278.969 245.928 279.294 245.512 279.742 245.224C280.201 244.936 280.718 244.792 281.294 244.792ZM289.864 244.984V253H288.92V251.544C288.664 252.056 288.302 252.445 287.832 252.712C287.363 252.979 286.824 253.112 286.216 253.112C285.278 253.112 284.568 252.851 284.088 252.328C283.608 251.805 283.368 251.032 283.368 250.008V244.984H284.328V249.944C284.328 250.733 284.488 251.315 284.808 251.688C285.128 252.061 285.624 252.248 286.296 252.248C287.086 252.248 287.715 252.003 288.184 251.512C288.654 251.011 288.888 250.349 288.888 249.528V244.984H289.864ZM295.134 253.112C293.832 253.112 292.803 252.755 292.046 252.04L292.398 251.288C292.824 251.64 293.251 251.891 293.678 252.04C294.115 252.189 294.616 252.264 295.182 252.264C295.843 252.264 296.344 252.152 296.686 251.928C297.038 251.693 297.214 251.357 297.214 250.92C297.214 250.557 297.096 250.275 296.862 250.072C296.638 249.859 296.264 249.688 295.742 249.56L294.382 249.256C293.742 249.107 293.235 248.84 292.862 248.456C292.499 248.072 292.318 247.624 292.318 247.112C292.318 246.408 292.584 245.848 293.118 245.432C293.662 245.005 294.382 244.792 295.278 244.792C295.843 244.792 296.366 244.883 296.846 245.064C297.336 245.245 297.742 245.507 298.062 245.848L297.694 246.6C296.958 245.96 296.152 245.64 295.278 245.64C294.659 245.64 294.179 245.763 293.838 246.008C293.496 246.253 293.326 246.595 293.326 247.032C293.326 247.395 293.432 247.688 293.646 247.912C293.87 248.136 294.211 248.301 294.67 248.408L296.046 248.744C297.486 249.064 298.206 249.773 298.206 250.872C298.206 251.544 297.928 252.088 297.374 252.504C296.819 252.909 296.072 253.112 295.134 253.112ZM301.714 245.768V250.536C301.714 251.176 301.836 251.619 302.082 251.864C302.327 252.109 302.69 252.232 303.17 252.232C303.468 252.232 303.756 252.184 304.034 252.088V252.968C303.692 253.053 303.346 253.096 302.994 253.096C302.29 253.096 301.735 252.899 301.33 252.504C300.935 252.109 300.738 251.517 300.738 250.728V245.768H299.154V244.984H300.738V242.856L301.714 242.488V244.984H304.082V245.768H301.714ZM306.256 248.872V248.92C306.256 249.997 306.502 250.824 306.992 251.4C307.494 251.965 308.219 252.248 309.168 252.248C310.128 252.248 311.008 251.917 311.808 251.256L312.192 252.024C311.84 252.355 311.392 252.621 310.848 252.824C310.304 253.016 309.744 253.112 309.168 253.112C307.952 253.112 306.992 252.744 306.288 252.008C305.584 251.272 305.232 250.259 305.232 248.968C305.232 248.147 305.387 247.421 305.696 246.792C306.016 246.152 306.459 245.661 307.024 245.32C307.59 244.968 308.24 244.792 308.976 244.792C310.032 244.792 310.854 245.133 311.44 245.816C312.038 246.499 312.336 247.448 312.336 248.664V248.872H306.256ZM308.976 245.592C308.24 245.592 307.643 245.816 307.184 246.264C306.726 246.701 306.438 247.32 306.32 248.12H311.408C311.344 247.299 311.104 246.675 310.688 246.248C310.272 245.811 309.702 245.592 308.976 245.592ZM321.232 241.224V253H320.256V251.464C320.021 251.997 319.664 252.408 319.184 252.696C318.715 252.973 318.149 253.112 317.488 253.112C316.784 253.112 316.16 252.941 315.616 252.6C315.083 252.248 314.667 251.757 314.368 251.128C314.069 250.488 313.92 249.752 313.92 248.92C313.92 248.088 314.064 247.363 314.352 246.744C314.651 246.115 315.067 245.635 315.6 245.304C316.144 244.963 316.773 244.792 317.488 244.792C318.139 244.792 318.699 244.931 319.168 245.208C319.648 245.485 320.011 245.891 320.256 246.424V241.224H321.232ZM317.616 252.248C318.459 252.248 319.109 251.96 319.568 251.384C320.027 250.808 320.256 249.997 320.256 248.952C320.256 247.907 320.027 247.096 319.568 246.52C319.109 245.933 318.464 245.64 317.632 245.64C316.779 245.64 316.117 245.928 315.648 246.504C315.179 247.08 314.944 247.885 314.944 248.92C314.944 249.965 315.179 250.781 315.648 251.368C316.117 251.955 316.773 252.248 317.616 252.248ZM86.7631 269.224V281H85.7871V279.464C85.5525 279.997 85.1951 280.408 84.7151 280.696C84.2458 280.973 83.6805 281.112 83.0191 281.112C82.3151 281.112 81.6911 280.941 81.1471 280.6C80.6138 280.248 80.1978 279.757 79.8991 279.128C79.6005 278.488 79.4511 277.752 79.4511 276.92C79.4511 276.088 79.5951 275.363 79.8831 274.744C80.1818 274.115 80.5978 273.635 81.1311 273.304C81.6751 272.963 82.3045 272.792 83.0191 272.792C83.6698 272.792 84.2298 272.931 84.6991 273.208C85.1791 273.485 85.5418 273.891 85.7871 274.424V269.224H86.7631ZM83.1471 280.248C83.9898 280.248 84.6405 279.96 85.0991 279.384C85.5578 278.808 85.7871 277.997 85.7871 276.952C85.7871 275.907 85.5578 275.096 85.0991 274.52C84.6405 273.933 83.9951 273.64 83.1631 273.64C82.3098 273.64 81.6485 273.928 81.1791 274.504C80.7098 275.08 80.4751 275.885 80.4751 276.92C80.4751 277.965 80.7098 278.781 81.1791 279.368C81.6485 279.955 82.3045 280.248 83.1471 280.248ZM92.6003 281.112C91.8643 281.112 91.2136 280.941 90.6483 280.6C90.0936 280.259 89.6616 279.773 89.3523 279.144C89.0536 278.515 88.9043 277.784 88.9043 276.952C88.9043 276.12 89.0536 275.389 89.3523 274.76C89.6616 274.131 90.0936 273.645 90.6483 273.304C91.2136 272.963 91.8643 272.792 92.6003 272.792C93.3256 272.792 93.9656 272.963 94.5203 273.304C95.0749 273.645 95.5016 274.131 95.8003 274.76C96.1096 275.389 96.2643 276.12 96.2643 276.952C96.2643 277.784 96.1096 278.515 95.8003 279.144C95.5016 279.773 95.0749 280.259 94.5203 280.6C93.9656 280.941 93.3256 281.112 92.6003 281.112ZM92.5843 280.248C93.4376 280.248 94.0936 279.965 94.5523 279.4C95.0216 278.824 95.2563 278.008 95.2563 276.952C95.2563 275.907 95.0216 275.096 94.5523 274.52C94.0829 273.933 93.4323 273.64 92.6003 273.64C91.7576 273.64 91.1016 273.933 90.6323 274.52C90.1629 275.096 89.9283 275.907 89.9283 276.952C89.9283 278.019 90.1576 278.835 90.6163 279.4C91.0749 279.965 91.7309 280.248 92.5843 280.248ZM101.649 281.112C100.891 281.112 100.23 280.941 99.6646 280.6C99.0993 280.259 98.662 279.779 98.3526 279.16C98.0433 278.531 97.8886 277.805 97.8886 276.984C97.8886 276.152 98.0433 275.421 98.3526 274.792C98.662 274.152 99.1046 273.661 99.6806 273.32C100.257 272.968 100.923 272.792 101.681 272.792C102.225 272.792 102.742 272.888 103.233 273.08C103.734 273.261 104.145 273.517 104.465 273.848L104.081 274.616C103.665 274.275 103.265 274.029 102.881 273.88C102.507 273.72 102.118 273.64 101.713 273.64C100.849 273.64 100.166 273.939 99.6646 274.536C99.1633 275.123 98.9126 275.939 98.9126 276.984C98.9126 278.008 99.158 278.808 99.6486 279.384C100.15 279.96 100.838 280.248 101.713 280.248C102.118 280.248 102.507 280.173 102.881 280.024C103.265 279.864 103.665 279.619 104.081 279.288L104.465 280.04C104.123 280.371 103.697 280.632 103.185 280.824C102.683 281.016 102.171 281.112 101.649 281.112ZM107.604 273.768V278.536C107.604 279.176 107.727 279.619 107.972 279.864C108.218 280.109 108.58 280.232 109.06 280.232C109.359 280.232 109.647 280.184 109.924 280.088V280.968C109.583 281.053 109.236 281.096 108.884 281.096C108.18 281.096 107.626 280.899 107.22 280.504C106.826 280.109 106.628 279.517 106.628 278.728V273.768H105.044V272.984H106.628V270.856L107.604 270.488V272.984H109.972V273.768H107.604ZM114.819 281.112C114.083 281.112 113.432 280.941 112.867 280.6C112.312 280.259 111.88 279.773 111.571 279.144C111.272 278.515 111.123 277.784 111.123 276.952C111.123 276.12 111.272 275.389 111.571 274.76C111.88 274.131 112.312 273.645 112.867 273.304C113.432 272.963 114.083 272.792 114.819 272.792C115.544 272.792 116.184 272.963 116.739 273.304C117.294 273.645 117.72 274.131 118.019 274.76C118.328 275.389 118.483 276.12 118.483 276.952C118.483 277.784 118.328 278.515 118.019 279.144C117.72 279.773 117.294 280.259 116.739 280.6C116.184 280.941 115.544 281.112 114.819 281.112ZM114.803 280.248C115.656 280.248 116.312 279.965 116.771 279.4C117.24 278.824 117.475 278.008 117.475 276.952C117.475 275.907 117.24 275.096 116.771 274.52C116.302 273.933 115.651 273.64 114.819 273.64C113.976 273.64 113.32 273.933 112.851 274.52C112.382 275.096 112.147 275.907 112.147 276.952C112.147 278.019 112.376 278.835 112.835 279.4C113.294 279.965 113.95 280.248 114.803 280.248ZM124.075 272.792C124.342 272.792 124.577 272.813 124.779 272.856L124.731 273.736C124.529 273.693 124.283 273.672 123.995 273.672C123.185 273.672 122.577 273.933 122.171 274.456C121.777 274.968 121.579 275.581 121.579 276.296V281H120.619V275.208C120.619 274.376 120.577 273.635 120.491 272.984H121.419L121.547 274.472C121.75 273.928 122.075 273.512 122.523 273.224C122.982 272.936 123.499 272.792 124.075 272.792ZM128.727 281.112C127.426 281.112 126.397 280.755 125.639 280.04L125.991 279.288C126.418 279.64 126.845 279.891 127.271 280.04C127.709 280.189 128.21 280.264 128.775 280.264C129.437 280.264 129.938 280.152 130.279 279.928C130.631 279.693 130.807 279.357 130.807 278.92C130.807 278.557 130.69 278.275 130.455 278.072C130.231 277.859 129.858 277.688 129.335 277.56L127.975 277.256C127.335 277.107 126.829 276.84 126.455 276.456C126.093 276.072 125.911 275.624 125.911 275.112C125.911 274.408 126.178 273.848 126.711 273.432C127.255 273.005 127.975 272.792 128.871 272.792C129.437 272.792 129.959 272.883 130.439 273.064C130.93 273.245 131.335 273.507 131.655 273.848L131.287 274.6C130.551 273.96 129.746 273.64 128.871 273.64C128.253 273.64 127.773 273.763 127.431 274.008C127.09 274.253 126.919 274.595 126.919 275.032C126.919 275.395 127.026 275.688 127.239 275.912C127.463 276.136 127.805 276.301 128.263 276.408L129.639 276.744C131.079 277.064 131.799 277.773 131.799 278.872C131.799 279.544 131.522 280.088 130.967 280.504C130.413 280.909 129.666 281.112 128.727 281.112ZM144.904 272.984V281H143.928V279.464C143.693 279.997 143.336 280.408 142.856 280.696C142.386 280.973 141.821 281.112 141.16 281.112C140.445 281.112 139.816 280.947 139.272 280.616C138.738 280.275 138.322 279.795 138.024 279.176C137.736 278.547 137.592 277.816 137.592 276.984C137.592 276.152 137.741 275.421 138.04 274.792C138.338 274.152 138.754 273.661 139.288 273.32C139.832 272.968 140.456 272.792 141.16 272.792C141.81 272.792 142.37 272.931 142.84 273.208C143.32 273.485 143.682 273.891 143.928 274.424V272.984H144.904ZM141.304 280.248C142.136 280.248 142.781 279.96 143.24 279.384C143.698 278.808 143.928 277.997 143.928 276.952C143.928 275.896 143.698 275.08 143.24 274.504C142.781 273.928 142.13 273.64 141.288 273.64C140.445 273.64 139.789 273.939 139.32 274.536C138.85 275.123 138.616 275.939 138.616 276.984C138.616 278.019 138.85 278.824 139.32 279.4C139.789 279.965 140.45 280.248 141.304 280.248ZM151.285 272.792C153.216 272.792 154.181 273.827 154.181 275.896V281H153.205V275.96C153.205 275.16 153.04 274.573 152.709 274.2C152.389 273.827 151.882 273.64 151.189 273.64C150.389 273.64 149.744 273.885 149.253 274.376C148.762 274.867 148.517 275.528 148.517 276.36V281H147.557V275.208C147.557 274.376 147.514 273.635 147.429 272.984H148.357L148.485 274.456C148.73 273.912 149.098 273.501 149.589 273.224C150.08 272.936 150.645 272.792 151.285 272.792ZM163.607 269.224V281H162.631V279.464C162.396 279.997 162.039 280.408 161.559 280.696C161.09 280.973 160.524 281.112 159.863 281.112C159.159 281.112 158.535 280.941 157.991 280.6C157.458 280.248 157.042 279.757 156.743 279.128C156.444 278.488 156.295 277.752 156.295 276.92C156.295 276.088 156.439 275.363 156.727 274.744C157.026 274.115 157.442 273.635 157.975 273.304C158.519 272.963 159.148 272.792 159.863 272.792C160.514 272.792 161.074 272.931 161.543 273.208C162.023 273.485 162.386 273.891 162.631 274.424V269.224H163.607ZM159.991 280.248C160.834 280.248 161.484 279.96 161.943 279.384C162.402 278.808 162.631 277.997 162.631 276.952C162.631 275.907 162.402 275.096 161.943 274.52C161.484 273.933 160.839 273.64 160.007 273.64C159.154 273.64 158.492 273.928 158.023 274.504C157.554 275.08 157.319 275.885 157.319 276.92C157.319 277.965 157.554 278.781 158.023 279.368C158.492 279.955 159.148 280.248 159.991 280.248ZM177.202 272.984V281.032C177.202 282.195 176.914 283.075 176.338 283.672C175.762 284.269 174.914 284.568 173.794 284.568C172.599 284.568 171.559 284.28 170.674 283.704L170.866 282.856C171.389 283.165 171.869 283.384 172.306 283.512C172.743 283.64 173.245 283.704 173.81 283.704C174.61 283.704 175.213 283.485 175.618 283.048C176.034 282.611 176.242 281.971 176.242 281.128V279.064C175.997 279.608 175.634 280.029 175.154 280.328C174.674 280.616 174.098 280.76 173.426 280.76C172.722 280.76 172.098 280.595 171.554 280.264C171.01 279.923 170.583 279.453 170.274 278.856C169.975 278.248 169.826 277.555 169.826 276.776C169.826 275.987 169.975 275.293 170.274 274.696C170.583 274.088 171.01 273.619 171.554 273.288C172.098 272.957 172.722 272.792 173.426 272.792C174.098 272.792 174.669 272.931 175.138 273.208C175.618 273.485 175.981 273.891 176.226 274.424V272.984H177.202ZM173.554 279.88C174.386 279.88 175.037 279.603 175.506 279.048C175.986 278.493 176.226 277.736 176.226 276.776C176.226 275.805 175.986 275.043 175.506 274.488C175.037 273.923 174.386 273.64 173.554 273.64C172.711 273.64 172.05 273.923 171.57 274.488C171.09 275.043 170.85 275.805 170.85 276.776C170.85 277.747 171.09 278.509 171.57 279.064C172.05 279.608 172.711 279.88 173.554 279.88ZM180.366 276.872V276.92C180.366 277.997 180.611 278.824 181.102 279.4C181.603 279.965 182.328 280.248 183.278 280.248C184.238 280.248 185.118 279.917 185.918 279.256L186.302 280.024C185.95 280.355 185.502 280.621 184.958 280.824C184.414 281.016 183.854 281.112 183.278 281.112C182.062 281.112 181.102 280.744 180.398 280.008C179.694 279.272 179.342 278.259 179.342 276.968C179.342 276.147 179.496 275.421 179.806 274.792C180.126 274.152 180.568 273.661 181.134 273.32C181.699 272.968 182.35 272.792 183.086 272.792C184.142 272.792 184.963 273.133 185.55 273.816C186.147 274.499 186.446 275.448 186.446 276.664V276.872H180.366ZM183.086 273.592C182.35 273.592 181.752 273.816 181.294 274.264C180.835 274.701 180.547 275.32 180.43 276.12H185.518C185.454 275.299 185.214 274.675 184.798 274.248C184.382 273.811 183.811 273.592 183.086 273.592ZM189.886 273.768V278.536C189.886 279.176 190.008 279.619 190.254 279.864C190.499 280.109 190.862 280.232 191.342 280.232C191.64 280.232 191.928 280.184 192.206 280.088V280.968C191.864 281.053 191.518 281.096 191.166 281.096C190.462 281.096 189.907 280.899 189.502 280.504C189.107 280.109 188.91 279.517 188.91 278.728V273.768H187.326V272.984H188.91V270.856L189.886 270.488V272.984H192.254V273.768H189.886ZM199.354 273.768V278.536C199.354 279.176 199.477 279.619 199.722 279.864C199.968 280.109 200.33 280.232 200.81 280.232C201.109 280.232 201.397 280.184 201.674 280.088V280.968C201.333 281.053 200.986 281.096 200.634 281.096C199.93 281.096 199.376 280.899 198.97 280.504C198.576 280.109 198.378 279.517 198.378 278.728V273.768H196.794V272.984H198.378V270.856L199.354 270.488V272.984H201.722V273.768H199.354ZM207.113 272.792C209.044 272.792 210.009 273.827 210.009 275.896V281H209.033V275.96C209.033 275.16 208.868 274.573 208.537 274.2C208.217 273.827 207.71 273.64 207.017 273.64C206.217 273.64 205.572 273.885 205.081 274.376C204.59 274.867 204.345 275.528 204.345 276.36V281H203.385V269.224H204.345V274.376C204.601 273.853 204.969 273.459 205.449 273.192C205.929 272.925 206.484 272.792 207.113 272.792ZM213.147 276.872V276.92C213.147 277.997 213.392 278.824 213.883 279.4C214.384 279.965 215.11 280.248 216.059 280.248C217.019 280.248 217.899 279.917 218.699 279.256L219.083 280.024C218.731 280.355 218.283 280.621 217.739 280.824C217.195 281.016 216.635 281.112 216.059 281.112C214.843 281.112 213.883 280.744 213.179 280.008C212.475 279.272 212.123 278.259 212.123 276.968C212.123 276.147 212.278 275.421 212.587 274.792C212.907 274.152 213.35 273.661 213.915 273.32C214.48 272.968 215.131 272.792 215.867 272.792C216.923 272.792 217.744 273.133 218.331 273.816C218.928 274.499 219.227 275.448 219.227 276.664V276.872H213.147ZM215.867 273.592C215.131 273.592 214.534 273.816 214.075 274.264C213.616 274.701 213.328 275.32 213.211 276.12H218.299C218.235 275.299 217.995 274.675 217.579 274.248C217.163 273.811 216.592 273.592 215.867 273.592ZM229.145 272.792C229.849 272.792 230.473 272.963 231.017 273.304C231.561 273.645 231.977 274.125 232.265 274.744C232.563 275.363 232.713 276.088 232.713 276.92C232.713 277.752 232.563 278.488 232.265 279.128C231.966 279.757 231.545 280.248 231.001 280.6C230.467 280.941 229.849 281.112 229.145 281.112C228.483 281.112 227.913 280.968 227.433 280.68C226.963 280.392 226.611 279.976 226.377 279.432V281H225.401V269.224H226.361V274.488C226.595 273.933 226.953 273.512 227.433 273.224C227.913 272.936 228.483 272.792 229.145 272.792ZM229.033 280.248C229.865 280.248 230.515 279.955 230.985 279.368C231.454 278.781 231.689 277.965 231.689 276.92C231.689 275.885 231.454 275.08 230.985 274.504C230.515 273.928 229.859 273.64 229.017 273.64C228.174 273.64 227.523 273.928 227.065 274.504C226.606 275.08 226.377 275.896 226.377 276.952C226.377 278.008 226.606 278.824 227.065 279.4C227.523 279.965 228.179 280.248 229.033 280.248ZM235.366 276.872V276.92C235.366 277.997 235.611 278.824 236.102 279.4C236.603 279.965 237.328 280.248 238.278 280.248C239.238 280.248 240.118 279.917 240.918 279.256L241.302 280.024C240.95 280.355 240.502 280.621 239.958 280.824C239.414 281.016 238.854 281.112 238.278 281.112C237.062 281.112 236.102 280.744 235.398 280.008C234.694 279.272 234.342 278.259 234.342 276.968C234.342 276.147 234.496 275.421 234.806 274.792C235.126 274.152 235.568 273.661 236.134 273.32C236.699 272.968 237.35 272.792 238.086 272.792C239.142 272.792 239.963 273.133 240.55 273.816C241.147 274.499 241.446 275.448 241.446 276.664V276.872H235.366ZM238.086 273.592C237.35 273.592 236.752 273.816 236.294 274.264C235.835 274.701 235.547 275.32 235.43 276.12H240.518C240.454 275.299 240.214 274.675 239.798 274.248C239.382 273.811 238.811 273.592 238.086 273.592ZM246.149 281.112C244.848 281.112 243.819 280.755 243.061 280.04L243.413 279.288C243.84 279.64 244.267 279.891 244.693 280.04C245.131 280.189 245.632 280.264 246.197 280.264C246.859 280.264 247.36 280.152 247.701 279.928C248.053 279.693 248.229 279.357 248.229 278.92C248.229 278.557 248.112 278.275 247.877 278.072C247.653 277.859 247.28 277.688 246.757 277.56L245.397 277.256C244.757 277.107 244.251 276.84 243.877 276.456C243.515 276.072 243.333 275.624 243.333 275.112C243.333 274.408 243.6 273.848 244.133 273.432C244.677 273.005 245.397 272.792 246.293 272.792C246.859 272.792 247.381 272.883 247.861 273.064C248.352 273.245 248.757 273.507 249.077 273.848L248.709 274.6C247.973 273.96 247.168 273.64 246.293 273.64C245.675 273.64 245.195 273.763 244.853 274.008C244.512 274.253 244.341 274.595 244.341 275.032C244.341 275.395 244.448 275.688 244.661 275.912C244.885 276.136 245.227 276.301 245.685 276.408L247.061 276.744C248.501 277.064 249.221 277.773 249.221 278.872C249.221 279.544 248.944 280.088 248.389 280.504C247.835 280.909 247.088 281.112 246.149 281.112ZM252.729 273.768V278.536C252.729 279.176 252.852 279.619 253.097 279.864C253.343 280.109 253.705 280.232 254.185 280.232C254.484 280.232 254.772 280.184 255.049 280.088V280.968C254.708 281.053 254.361 281.096 254.009 281.096C253.305 281.096 252.751 280.899 252.345 280.504C251.951 280.109 251.753 279.517 251.753 278.728V273.768H250.169V272.984H251.753V270.856L252.729 270.488V272.984H255.097V273.768H252.729ZM83.4191 300.792C83.6858 300.792 83.9205 300.813 84.1231 300.856L84.0751 301.736C83.8725 301.693 83.6271 301.672 83.3391 301.672C82.5285 301.672 81.9205 301.933 81.5151 302.456C81.1205 302.968 80.9231 303.581 80.9231 304.296V309H79.9631V303.208C79.9631 302.376 79.9205 301.635 79.8351 300.984H80.7631L80.8911 302.472C81.0938 301.928 81.4191 301.512 81.8671 301.224C82.3258 300.936 82.8431 300.792 83.4191 300.792ZM85.897 304.872V304.92C85.897 305.997 86.1423 306.824 86.633 307.4C87.1343 307.965 87.8597 308.248 88.809 308.248C89.769 308.248 90.649 307.917 91.449 307.256L91.833 308.024C91.481 308.355 91.033 308.621 90.489 308.824C89.945 309.016 89.385 309.112 88.809 309.112C87.593 309.112 86.633 308.744 85.929 308.008C85.225 307.272 84.873 306.259 84.873 304.968C84.873 304.147 85.0277 303.421 85.337 302.792C85.657 302.152 86.0997 301.661 86.665 301.32C87.2303 300.968 87.881 300.792 88.617 300.792C89.673 300.792 90.4943 301.133 91.081 301.816C91.6783 302.499 91.977 303.448 91.977 304.664V304.872H85.897ZM88.617 301.592C87.881 301.592 87.2837 301.816 86.825 302.264C86.3663 302.701 86.0783 303.32 85.961 304.12H91.049C90.985 303.299 90.745 302.675 90.329 302.248C89.913 301.811 89.3423 301.592 88.617 301.592ZM97.3205 309.112C96.5632 309.112 95.9018 308.941 95.3365 308.6C94.7712 308.259 94.3338 307.779 94.0245 307.16C93.7152 306.531 93.5605 305.805 93.5605 304.984C93.5605 304.152 93.7152 303.421 94.0245 302.792C94.3338 302.152 94.7765 301.661 95.3525 301.32C95.9285 300.968 96.5952 300.792 97.3525 300.792C97.8965 300.792 98.4138 300.888 98.9045 301.08C99.4058 301.261 99.8165 301.517 100.137 301.848L99.7525 302.616C99.3365 302.275 98.9365 302.029 98.5525 301.88C98.1792 301.72 97.7898 301.64 97.3845 301.64C96.5205 301.64 95.8378 301.939 95.3365 302.536C94.8352 303.123 94.5845 303.939 94.5845 304.984C94.5845 306.008 94.8298 306.808 95.3205 307.384C95.8218 307.96 96.5098 308.248 97.3845 308.248C97.7898 308.248 98.1792 308.173 98.5525 308.024C98.9365 307.864 99.3365 307.619 99.7525 307.288L100.137 308.04C99.7952 308.371 99.3685 308.632 98.8565 308.824C98.3552 309.016 97.8432 309.112 97.3205 309.112ZM105.1 309.112C104.364 309.112 103.714 308.941 103.148 308.6C102.594 308.259 102.162 307.773 101.852 307.144C101.554 306.515 101.404 305.784 101.404 304.952C101.404 304.12 101.554 303.389 101.852 302.76C102.162 302.131 102.594 301.645 103.148 301.304C103.714 300.963 104.364 300.792 105.1 300.792C105.826 300.792 106.466 300.963 107.02 301.304C107.575 301.645 108.002 302.131 108.3 302.76C108.61 303.389 108.764 304.12 108.764 304.952C108.764 305.784 108.61 306.515 108.3 307.144C108.002 307.773 107.575 308.259 107.02 308.6C106.466 308.941 105.826 309.112 105.1 309.112ZM105.084 308.248C105.938 308.248 106.594 307.965 107.052 307.4C107.522 306.824 107.756 306.008 107.756 304.952C107.756 303.907 107.522 303.096 107.052 302.52C106.583 301.933 105.932 301.64 105.1 301.64C104.258 301.64 103.602 301.933 103.132 302.52C102.663 303.096 102.428 303.907 102.428 304.952C102.428 306.019 102.658 306.835 103.116 307.4C103.575 307.965 104.231 308.248 105.084 308.248ZM119.541 300.792C121.311 300.792 122.197 301.827 122.197 303.896V309H121.221V303.96C121.221 303.149 121.077 302.563 120.789 302.2C120.501 301.827 120.042 301.64 119.413 301.64C118.677 301.64 118.095 301.885 117.669 302.376C117.253 302.867 117.045 303.533 117.045 304.376V309H116.069V303.96C116.069 303.149 115.919 302.563 115.621 302.2C115.333 301.827 114.874 301.64 114.245 301.64C113.519 301.64 112.938 301.885 112.501 302.376C112.074 302.867 111.861 303.533 111.861 304.376V309H110.901V303.208C110.901 302.376 110.858 301.635 110.773 300.984H111.701L111.829 302.424C112.053 301.891 112.383 301.485 112.821 301.208C113.269 300.931 113.786 300.792 114.373 300.792C115.663 300.792 116.49 301.315 116.853 302.36C117.077 301.869 117.423 301.485 117.893 301.208C118.373 300.931 118.922 300.792 119.541 300.792ZM125.319 304.872V304.92C125.319 305.997 125.564 306.824 126.055 307.4C126.556 307.965 127.282 308.248 128.231 308.248C129.191 308.248 130.071 307.917 130.871 307.256L131.255 308.024C130.903 308.355 130.455 308.621 129.911 308.824C129.367 309.016 128.807 309.112 128.231 309.112C127.015 309.112 126.055 308.744 125.351 308.008C124.647 307.272 124.295 306.259 124.295 304.968C124.295 304.147 124.45 303.421 124.759 302.792C125.079 302.152 125.522 301.661 126.087 301.32C126.652 300.968 127.303 300.792 128.039 300.792C129.095 300.792 129.916 301.133 130.503 301.816C131.1 302.499 131.399 303.448 131.399 304.664V304.872H125.319ZM128.039 301.592C127.303 301.592 126.706 301.816 126.247 302.264C125.788 302.701 125.5 303.32 125.383 304.12H130.471C130.407 303.299 130.167 302.675 129.751 302.248C129.335 301.811 128.764 301.592 128.039 301.592ZM137.222 300.792C139.153 300.792 140.118 301.827 140.118 303.896V309H139.142V303.96C139.142 303.16 138.977 302.573 138.646 302.2C138.326 301.827 137.82 301.64 137.126 301.64C136.326 301.64 135.681 301.885 135.19 302.376C134.7 302.867 134.454 303.528 134.454 304.36V309H133.494V303.208C133.494 302.376 133.452 301.635 133.366 300.984H134.294L134.422 302.456C134.668 301.912 135.036 301.501 135.526 301.224C136.017 300.936 136.582 300.792 137.222 300.792ZM149.544 297.224V309H148.568V307.464C148.334 307.997 147.976 308.408 147.496 308.696C147.027 308.973 146.462 309.112 145.8 309.112C145.096 309.112 144.472 308.941 143.928 308.6C143.395 308.248 142.979 307.757 142.68 307.128C142.382 306.488 142.232 305.752 142.232 304.92C142.232 304.088 142.376 303.363 142.664 302.744C142.963 302.115 143.379 301.635 143.912 301.304C144.456 300.963 145.086 300.792 145.8 300.792C146.451 300.792 147.011 300.931 147.48 301.208C147.96 301.485 148.323 301.891 148.568 302.424V297.224H149.544ZM145.928 308.248C146.771 308.248 147.422 307.96 147.88 307.384C148.339 306.808 148.568 305.997 148.568 304.952C148.568 303.907 148.339 303.096 147.88 302.52C147.422 301.933 146.776 301.64 145.944 301.64C145.091 301.64 144.43 301.928 143.96 302.504C143.491 303.08 143.256 303.885 143.256 304.92C143.256 305.965 143.491 306.781 143.96 307.368C144.43 307.955 145.086 308.248 145.928 308.248ZM158.998 300.984V309H158.022V307.464C157.787 307.997 157.43 308.408 156.95 308.696C156.48 308.973 155.915 309.112 155.254 309.112C154.539 309.112 153.91 308.947 153.366 308.616C152.832 308.275 152.416 307.795 152.118 307.176C151.83 306.547 151.686 305.816 151.686 304.984C151.686 304.152 151.835 303.421 152.134 302.792C152.432 302.152 152.848 301.661 153.382 301.32C153.926 300.968 154.55 300.792 155.254 300.792C155.904 300.792 156.464 300.931 156.934 301.208C157.414 301.485 157.776 301.891 158.022 302.424V300.984H158.998ZM155.398 308.248C156.23 308.248 156.875 307.96 157.334 307.384C157.792 306.808 158.022 305.997 158.022 304.952C158.022 303.896 157.792 303.08 157.334 302.504C156.875 301.928 156.224 301.64 155.382 301.64C154.539 301.64 153.883 301.939 153.414 302.536C152.944 303.123 152.71 303.939 152.71 304.984C152.71 306.019 152.944 306.824 153.414 307.4C153.883 307.965 154.544 308.248 155.398 308.248ZM163.011 301.768V306.536C163.011 307.176 163.133 307.619 163.379 307.864C163.624 308.109 163.987 308.232 164.467 308.232C164.765 308.232 165.053 308.184 165.331 308.088V308.968C164.989 309.053 164.643 309.096 164.291 309.096C163.587 309.096 163.032 308.899 162.627 308.504C162.232 308.109 162.035 307.517 162.035 306.728V301.768H160.451V300.984H162.035V298.856L163.011 298.488V300.984H165.379V301.768H163.011ZM167.041 300.984H168.001V309H167.041V300.984ZM168.193 297.672V298.92H166.897V297.672H168.193ZM173.866 309.112C173.13 309.112 172.479 308.941 171.914 308.6C171.359 308.259 170.927 307.773 170.618 307.144C170.319 306.515 170.17 305.784 170.17 304.952C170.17 304.12 170.319 303.389 170.618 302.76C170.927 302.131 171.359 301.645 171.914 301.304C172.479 300.963 173.13 300.792 173.866 300.792C174.591 300.792 175.231 300.963 175.786 301.304C176.341 301.645 176.767 302.131 177.066 302.76C177.375 303.389 177.53 304.12 177.53 304.952C177.53 305.784 177.375 306.515 177.066 307.144C176.767 307.773 176.341 308.259 175.786 308.6C175.231 308.941 174.591 309.112 173.866 309.112ZM173.85 308.248C174.703 308.248 175.359 307.965 175.818 307.4C176.287 306.824 176.522 306.008 176.522 304.952C176.522 303.907 176.287 303.096 175.818 302.52C175.349 301.933 174.698 301.64 173.866 301.64C173.023 301.64 172.367 301.933 171.898 302.52C171.429 303.096 171.194 303.907 171.194 304.952C171.194 306.019 171.423 306.835 171.882 307.4C172.341 307.965 172.997 308.248 173.85 308.248ZM183.394 300.792C185.325 300.792 186.29 301.827 186.29 303.896V309H185.314V303.96C185.314 303.16 185.149 302.573 184.818 302.2C184.498 301.827 183.992 301.64 183.298 301.64C182.498 301.64 181.853 301.885 181.362 302.376C180.872 302.867 180.626 303.528 180.626 304.36V309H179.666V303.208C179.666 302.376 179.624 301.635 179.538 300.984H180.466L180.594 302.456C180.84 301.912 181.208 301.501 181.698 301.224C182.189 300.936 182.754 300.792 183.394 300.792ZM191.524 309.112C190.223 309.112 189.194 308.755 188.436 308.04L188.788 307.288C189.215 307.64 189.642 307.891 190.068 308.04C190.506 308.189 191.007 308.264 191.572 308.264C192.234 308.264 192.735 308.152 193.076 307.928C193.428 307.693 193.604 307.357 193.604 306.92C193.604 306.557 193.487 306.275 193.252 306.072C193.028 305.859 192.655 305.688 192.132 305.56L190.772 305.256C190.132 305.107 189.626 304.84 189.252 304.456C188.89 304.072 188.708 303.624 188.708 303.112C188.708 302.408 188.975 301.848 189.508 301.432C190.052 301.005 190.772 300.792 191.668 300.792C192.234 300.792 192.756 300.883 193.236 301.064C193.727 301.245 194.132 301.507 194.452 301.848L194.084 302.6C193.348 301.96 192.543 301.64 191.668 301.64C191.05 301.64 190.57 301.763 190.228 302.008C189.887 302.253 189.716 302.595 189.716 303.032C189.716 303.395 189.823 303.688 190.036 303.912C190.26 304.136 190.602 304.301 191.06 304.408L192.436 304.744C193.876 305.064 194.596 305.773 194.596 306.872C194.596 307.544 194.319 308.088 193.764 308.504C193.21 308.909 192.463 309.112 191.524 309.112Z" fill="#7D7987"/>
<defs>
<filter id="filter0_d_63_2666" x="0" y="0" width="450" height="454" filterUnits="userSpaceOnUse" color-interpolation-filters="sRGB">
<feFlood flood-opacity="0" result="BackgroundImageFix"/>
<feColorMatrix in="SourceAlpha" type="matrix" values="0 0 0 0 0 0 0 0 0 0 0 0 0 0 0 0 0 0 127 0" result="hardAlpha"/>
<feOffset dx="10" dy="40"/>
<feGaussianBlur stdDeviation="25"/>
<feColorMatrix type="matrix" values="0 0 0 0 0.897151 0 0 0 0 0.915421 0 0 0 0 0.962796 0 0 0 0.4 0"/>
<feBlend mode="normal" in2="BackgroundImageFix" result="effect1_dropShadow_63_2666"/>
<feBlend mode="normal" in="SourceGraphic" in2="effect1_dropShadow_63_2666" result="shape"/>
</filter>
<linearGradient id="paint0_linear_63_2666" x1="70.3464" y1="90.748" x2="155.999" y2="118.578" gradientUnits="userSpaceOnUse">
<stop stop-color="#6CBCFC"/>
<stop offset="0.1713" stop-color="#5EABFC"/>
<stop offset="0.4084" stop-color="#509AFC"/>
<stop offset="0.6698" stop-color="#4890FC"/>
<stop offset="1" stop-color="#458DFC"/>
</linearGradient>
<linearGradient id="paint1_linear_63_2666" x1="74.4101" y1="34.625" x2="135.387" y2="63.9897" gradientUnits="userSpaceOnUse">
<stop stop-color="#CFE9FF"/>
<stop offset="1" stop-color="#A1D6FB"/>
</linearGradient>
<linearGradient id="paint2_linear_63_2666" x1="93.6543" y1="58.5795" x2="132.59" y2="58.5795" gradientUnits="userSpaceOnUse">
<stop stop-color="#B0F4FF"/>
<stop offset="1" stop-color="#69DCFC"/>
</linearGradient>
<linearGradient id="paint3_linear_63_2666" x1="93.7701" y1="85.2075" x2="103.551" y2="97.8334" gradientUnits="userSpaceOnUse">
<stop stop-color="#6CBCFC"/>
<stop offset="1" stop-color="#458DFC"/>
</linearGradient>
<linearGradient id="paint4_linear_63_2666" x1="92.7093" y1="86.0293" x2="102.49" y2="98.6553" gradientUnits="userSpaceOnUse">
<stop stop-color="#B0F4FF"/>
<stop offset="0.0994384" stop-color="#A1EFFE"/>
<stop offset="0.2994" stop-color="#88E7FD"/>
<stop offset="0.5095" stop-color="#77E1FD"/>
<stop offset="0.7344" stop-color="#6CDDFC"/>
<stop offset="1" stop-color="#69DCFC"/>
</linearGradient>
<linearGradient id="paint5_linear_63_2666" x1="108.581" y1="82.551" x2="130.24" y2="82.564" gradientUnits="userSpaceOnUse">
<stop stop-color="#6CBCFC"/>
<stop offset="1" stop-color="#458DFC"/>
</linearGradient>
<linearGradient id="paint6_linear_63_2666" x1="108.585" y1="86.4037" x2="122.781" y2="86.4037" gradientUnits="userSpaceOnUse">
<stop stop-color="#6CBCFC"/>
<stop offset="1" stop-color="#458DFC"/>
</linearGradient>
<linearGradient id="paint7_linear_63_2666" x1="108.589" y1="91.0098" x2="137.237" y2="91.0098" gradientUnits="userSpaceOnUse">
<stop stop-color="#6CBCFC"/>
<stop offset="1" stop-color="#458DFC"/>
</linearGradient>
<linearGradient id="paint8_linear_63_2666" x1="89.7499" y1="103.927" x2="136.676" y2="103.927" gradientUnits="userSpaceOnUse">
<stop stop-color="#6CBCFC"/>
<stop offset="1" stop-color="#458DFC"/>
</linearGradient>
<linearGradient id="paint9_linear_63_2666" x1="108.594" y1="95.5191" x2="137.242" y2="95.5191" gradientUnits="userSpaceOnUse">
<stop stop-color="#6CBCFC"/>
<stop offset="1" stop-color="#458DFC"/>
</linearGradient>
<clipPath id="clip0_63_2666">
<rect width="67.0754" height="95" fill="white" transform="translate(79.6351 56)"/>
</clipPath>
</defs>
</svg>
