<svg width="450" height="454" viewBox="0 0 450 454" fill="none" xmlns="http://www.w3.org/2000/svg">
<g filter="url(#filter0_d_63_2673)">
<rect x="40" y="10" width="350" height="354" rx="20" fill="white"/>
</g>
<path d="M85.7969 213.624C84.1489 213.624 82.7089 213.272 81.4769 212.568C80.2609 211.848 79.3169 210.832 78.6449 209.52C77.9889 208.192 77.6609 206.632 77.6609 204.84C77.6609 203.064 77.9889 201.52 78.6449 200.208C79.3009 198.88 80.2369 197.864 81.4529 197.16C82.6849 196.456 84.1329 196.104 85.7969 196.104C87.4609 196.104 88.9009 196.456 90.1169 197.16C91.3489 197.864 92.2849 198.88 92.9249 200.208C93.5809 201.52 93.9089 203.064 93.9089 204.84C93.9089 206.632 93.5809 208.192 92.9249 209.52C92.2689 210.832 91.3329 211.848 90.1169 212.568C88.9009 213.272 87.4609 213.624 85.7969 213.624ZM85.7969 211.152C87.3809 211.152 88.6129 210.608 89.4929 209.52C90.3729 208.432 90.8129 206.872 90.8129 204.84C90.8129 202.824 90.3729 201.28 89.4929 200.208C88.6129 199.12 87.3809 198.576 85.7969 198.576C84.2129 198.576 82.9809 199.112 82.1009 200.184C81.2209 201.256 80.7809 202.808 80.7809 204.84C80.7809 206.872 81.2209 208.432 82.1009 209.52C82.9809 210.608 84.2129 211.152 85.7969 211.152ZM103.8 200.976C106.696 200.976 108.144 202.64 108.144 205.968V213.408H105.144V206.112C105.144 205.152 104.96 204.456 104.592 204.024C104.224 203.576 103.656 203.352 102.888 203.352C101.976 203.352 101.24 203.648 100.68 204.24C100.12 204.816 99.8401 205.584 99.8401 206.544V213.408H96.8641V204.72C96.8641 203.44 96.8001 202.296 96.6721 201.288H99.4801L99.6961 203.28C100.112 202.544 100.672 201.976 101.376 201.576C102.096 201.176 102.904 200.976 103.8 200.976ZM111.325 195.744H114.301V213.408H111.325V195.744ZM117.583 201.288H120.559V213.408H117.583V201.288ZM120.727 195.792V198.744H117.391V195.792H120.727ZM130.777 200.976C133.673 200.976 135.121 202.64 135.121 205.968V213.408H132.121V206.112C132.121 205.152 131.937 204.456 131.569 204.024C131.201 203.576 130.633 203.352 129.865 203.352C128.953 203.352 128.217 203.648 127.657 204.24C127.097 204.816 126.817 205.584 126.817 206.544V213.408H123.841V204.72C123.841 203.44 123.777 202.296 123.649 201.288H126.457L126.673 203.28C127.089 202.544 127.649 201.976 128.353 201.576C129.073 201.176 129.881 200.976 130.777 200.976ZM148.91 207.504H140.558C140.622 208.8 140.942 209.76 141.518 210.384C142.11 210.992 142.982 211.296 144.134 211.296C145.462 211.296 146.694 210.864 147.83 210L148.694 212.064C148.118 212.528 147.406 212.904 146.558 213.192C145.726 213.464 144.878 213.6 144.014 213.6C142.03 213.6 140.47 213.04 139.334 211.92C138.198 210.8 137.63 209.264 137.63 207.312C137.63 206.08 137.878 204.984 138.374 204.024C138.87 203.064 139.566 202.32 140.462 201.792C141.358 201.248 142.374 200.976 143.51 200.976C145.174 200.976 146.486 201.52 147.446 202.608C148.422 203.68 148.91 205.16 148.91 207.048V207.504ZM143.582 203.136C142.782 203.136 142.126 203.376 141.614 203.856C141.118 204.32 140.798 205 140.654 205.896H146.294C146.198 204.984 145.918 204.296 145.454 203.832C145.006 203.368 144.382 203.136 143.582 203.136ZM164.948 200.976C165.988 200.976 166.908 201.248 167.708 201.792C168.524 202.32 169.156 203.072 169.604 204.048C170.068 205.008 170.3 206.112 170.3 207.36C170.3 208.608 170.076 209.704 169.628 210.648C169.18 211.592 168.548 212.32 167.732 212.832C166.932 213.344 166.004 213.6 164.948 213.6C164.068 213.6 163.284 213.416 162.596 213.048C161.908 212.664 161.38 212.136 161.012 211.464V218.592H158.036V204.72C158.036 203.44 157.972 202.296 157.844 201.288H160.652L160.892 203.376C161.212 202.624 161.732 202.04 162.452 201.624C163.172 201.192 164.004 200.976 164.948 200.976ZM164.132 211.248C165.14 211.248 165.916 210.912 166.46 210.24C167.004 209.568 167.276 208.608 167.276 207.36C167.276 206.096 167.004 205.112 166.46 204.408C165.916 203.688 165.148 203.328 164.156 203.328C163.132 203.328 162.348 203.672 161.804 204.36C161.26 205.048 160.988 206.032 160.988 207.312C160.988 208.576 161.26 209.552 161.804 210.24C162.348 210.912 163.124 211.248 164.132 211.248ZM179.855 200.976C182.751 200.976 184.199 202.64 184.199 205.968V213.408H181.199V206.112C181.199 205.152 181.015 204.456 180.647 204.024C180.279 203.576 179.711 203.352 178.943 203.352C178.031 203.352 177.295 203.648 176.735 204.24C176.175 204.816 175.895 205.584 175.895 206.544V213.408H172.919V195.744H175.895V203.04C176.311 202.384 176.863 201.88 177.551 201.528C178.239 201.16 179.007 200.976 179.855 200.976ZM198.972 201.288V213.408H196.02V211.464C195.652 212.136 195.124 212.664 194.436 213.048C193.748 213.416 192.964 213.6 192.084 213.6C191.028 213.6 190.092 213.344 189.276 212.832C188.46 212.32 187.828 211.592 187.38 210.648C186.932 209.704 186.708 208.608 186.708 207.36C186.708 206.112 186.932 205.008 187.38 204.048C187.844 203.072 188.484 202.32 189.3 201.792C190.116 201.248 191.044 200.976 192.084 200.976C192.964 200.976 193.748 201.168 194.436 201.552C195.124 201.92 195.652 202.44 196.02 203.112V201.288H198.972ZM192.9 211.248C193.892 211.248 194.66 210.904 195.204 210.216C195.748 209.528 196.02 208.56 196.02 207.312C196.02 206.032 195.748 205.048 195.204 204.36C194.66 203.672 193.884 203.328 192.876 203.328C191.884 203.328 191.108 203.688 190.548 204.408C190.004 205.112 189.732 206.096 189.732 207.36C189.732 208.608 190.004 209.568 190.548 210.24C191.108 210.912 191.892 211.248 192.9 211.248ZM208.767 201C209.231 201 209.631 201.064 209.967 201.192L209.943 203.928C209.431 203.72 208.903 203.616 208.359 203.616C207.335 203.616 206.551 203.912 206.007 204.504C205.479 205.096 205.215 205.88 205.215 206.856V213.408H202.239V204.72C202.239 203.44 202.175 202.296 202.047 201.288H204.855L205.095 203.424C205.399 202.64 205.879 202.04 206.535 201.624C207.191 201.208 207.935 201 208.767 201ZM225.941 200.976C227.317 200.976 228.341 201.392 229.013 202.224C229.685 203.04 230.021 204.288 230.021 205.968V213.408H227.021V206.064C227.021 205.104 226.861 204.416 226.541 204C226.237 203.568 225.725 203.352 225.005 203.352C224.173 203.352 223.517 203.648 223.037 204.24C222.573 204.816 222.341 205.616 222.341 206.64V213.408H219.341V206.064C219.341 205.12 219.173 204.432 218.837 204C218.517 203.568 218.005 203.352 217.301 203.352C216.469 203.352 215.813 203.648 215.333 204.24C214.853 204.816 214.613 205.616 214.613 206.64V213.408H211.637V204.72C211.637 203.44 211.573 202.296 211.445 201.288H214.253L214.469 203.208C214.821 202.488 215.325 201.936 215.981 201.552C216.653 201.168 217.421 200.976 218.285 200.976C220.141 200.976 221.349 201.744 221.909 203.28C222.293 202.56 222.837 202 223.541 201.6C224.261 201.184 225.061 200.976 225.941 200.976ZM244.815 201.288V213.408H241.863V211.464C241.495 212.136 240.967 212.664 240.279 213.048C239.591 213.416 238.807 213.6 237.927 213.6C236.871 213.6 235.935 213.344 235.119 212.832C234.303 212.32 233.671 211.592 233.223 210.648C232.775 209.704 232.551 208.608 232.551 207.36C232.551 206.112 232.775 205.008 233.223 204.048C233.687 203.072 234.327 202.32 235.143 201.792C235.959 201.248 236.887 200.976 237.927 200.976C238.807 200.976 239.591 201.168 240.279 201.552C240.967 201.92 241.495 202.44 241.863 203.112V201.288H244.815ZM238.743 211.248C239.735 211.248 240.503 210.904 241.047 210.216C241.591 209.528 241.863 208.56 241.863 207.312C241.863 206.032 241.591 205.048 241.047 204.36C240.503 203.672 239.727 203.328 238.719 203.328C237.727 203.328 236.951 203.688 236.391 204.408C235.847 205.112 235.575 206.096 235.575 207.36C235.575 208.608 235.847 209.568 236.391 210.24C236.951 210.912 237.735 211.248 238.743 211.248ZM253.579 213.6C252.315 213.6 251.219 213.344 250.291 212.832C249.363 212.32 248.651 211.6 248.155 210.672C247.659 209.728 247.411 208.624 247.411 207.36C247.411 206.096 247.667 204.984 248.179 204.024C248.707 203.064 249.443 202.32 250.387 201.792C251.347 201.248 252.451 200.976 253.699 200.976C254.563 200.976 255.395 201.112 256.195 201.384C257.011 201.656 257.659 202.032 258.139 202.512L257.299 204.624C256.787 204.208 256.243 203.896 255.667 203.688C255.091 203.464 254.523 203.352 253.963 203.352C252.875 203.352 252.027 203.696 251.419 204.384C250.811 205.056 250.507 206.032 250.507 207.312C250.507 208.592 250.803 209.568 251.395 210.24C252.003 210.912 252.859 211.248 253.963 211.248C254.523 211.248 255.091 211.136 255.667 210.912C256.243 210.688 256.787 210.368 257.299 209.952L258.139 212.064C257.627 212.544 256.963 212.92 256.147 213.192C255.331 213.464 254.475 213.6 253.579 213.6ZM271.625 201.288L265.985 214.224C265.345 215.728 264.529 216.824 263.537 217.512C262.545 218.2 261.321 218.656 259.865 218.88L259.193 216.576C260.329 216.32 261.177 215.992 261.737 215.592C262.313 215.208 262.777 214.632 263.129 213.864L263.513 212.976L258.473 201.288H261.617L265.097 210L268.649 201.288H271.625Z" fill="black"/>
<path d="M84.712 247.16C85.3627 247.331 85.8693 247.656 86.232 248.136C86.5947 248.605 86.776 249.197 86.776 249.912C86.776 250.904 86.4507 251.667 85.8 252.2C85.1493 252.733 84.2267 253 83.032 253H78.472V241.608H82.872C84.0347 241.608 84.9307 241.869 85.56 242.392C86.1893 242.904 86.504 243.64 86.504 244.6C86.504 245.219 86.344 245.747 86.024 246.184C85.7147 246.621 85.2773 246.947 84.712 247.16ZM79.448 246.776H82.728C83.6453 246.776 84.3387 246.589 84.808 246.216C85.2773 245.843 85.512 245.299 85.512 244.584C85.512 243.165 84.584 242.456 82.728 242.456H79.448V246.776ZM82.968 252.152C83.928 252.152 84.632 251.971 85.08 251.608C85.5387 251.245 85.768 250.691 85.768 249.944C85.768 248.419 84.8347 247.656 82.968 247.656H79.448V252.152H82.968ZM95.5885 244.984V253H94.6445V251.544C94.3885 252.056 94.0258 252.445 93.5565 252.712C93.0872 252.979 92.5485 253.112 91.9405 253.112C91.0018 253.112 90.2925 252.851 89.8125 252.328C89.3325 251.805 89.0925 251.032 89.0925 250.008V244.984H90.0525V249.944C90.0525 250.733 90.2125 251.315 90.5325 251.688C90.8525 252.061 91.3485 252.248 92.0205 252.248C92.8098 252.248 93.4392 252.003 93.9085 251.512C94.3778 251.011 94.6125 250.349 94.6125 249.528V244.984H95.5885ZM105.05 244.984L101.274 253.832C100.901 254.707 100.431 255.347 99.8659 255.752C99.3112 256.168 98.6125 256.461 97.7699 256.632L97.5779 255.864C98.3459 255.683 98.9219 255.448 99.3059 255.16C99.7005 254.872 100.031 254.419 100.298 253.8L100.634 253.016L97.2099 244.984H98.2499L101.146 252.024L104.058 244.984H105.05ZM121.612 244.984L117.836 253.832C117.463 254.707 116.994 255.347 116.428 255.752C115.874 256.168 115.175 256.461 114.332 256.632L114.14 255.864C114.908 255.683 115.484 255.448 115.868 255.16C116.263 254.872 116.594 254.419 116.86 253.8L117.196 253.016L113.772 244.984H114.812L117.708 252.024L120.62 244.984H121.612ZM126.325 253.112C125.589 253.112 124.938 252.941 124.373 252.6C123.818 252.259 123.386 251.773 123.077 251.144C122.778 250.515 122.629 249.784 122.629 248.952C122.629 248.12 122.778 247.389 123.077 246.76C123.386 246.131 123.818 245.645 124.373 245.304C124.938 244.963 125.589 244.792 126.325 244.792C127.05 244.792 127.69 244.963 128.245 245.304C128.799 245.645 129.226 246.131 129.525 246.76C129.834 247.389 129.989 248.12 129.989 248.952C129.989 249.784 129.834 250.515 129.525 251.144C129.226 251.773 128.799 252.259 128.245 252.6C127.69 252.941 127.05 253.112 126.325 253.112ZM126.309 252.248C127.162 252.248 127.818 251.965 128.277 251.4C128.746 250.824 128.981 250.008 128.981 248.952C128.981 247.907 128.746 247.096 128.277 246.52C127.807 245.933 127.157 245.64 126.325 245.64C125.482 245.64 124.826 245.933 124.357 246.52C123.887 247.096 123.653 247.907 123.653 248.952C123.653 250.019 123.882 250.835 124.341 251.4C124.799 251.965 125.455 252.248 126.309 252.248ZM138.573 244.984V253H137.629V251.544C137.373 252.056 137.01 252.445 136.541 252.712C136.072 252.979 135.533 253.112 134.925 253.112C133.986 253.112 133.277 252.851 132.797 252.328C132.317 251.805 132.077 251.032 132.077 250.008V244.984H133.037V249.944C133.037 250.733 133.197 251.315 133.517 251.688C133.837 252.061 134.333 252.248 135.005 252.248C135.794 252.248 136.424 252.003 136.893 251.512C137.362 251.011 137.597 250.349 137.597 249.528V244.984H138.573ZM144.69 244.792C144.957 244.792 145.192 244.813 145.394 244.856L145.346 245.736C145.144 245.693 144.898 245.672 144.61 245.672C143.8 245.672 143.192 245.933 142.786 246.456C142.392 246.968 142.194 247.581 142.194 248.296V253H141.234V247.208C141.234 246.376 141.192 245.635 141.106 244.984H142.034L142.162 246.472C142.365 245.928 142.69 245.512 143.138 245.224C143.597 244.936 144.114 244.792 144.69 244.792ZM159.531 244.792C161.301 244.792 162.187 245.827 162.187 247.896V253H161.211V247.96C161.211 247.149 161.067 246.563 160.779 246.2C160.491 245.827 160.032 245.64 159.403 245.64C158.667 245.64 158.085 245.885 157.659 246.376C157.243 246.867 157.035 247.533 157.035 248.376V253H156.059V247.96C156.059 247.149 155.909 246.563 155.611 246.2C155.323 245.827 154.864 245.64 154.235 245.64C153.509 245.64 152.928 245.885 152.491 246.376C152.064 246.867 151.851 247.533 151.851 248.376V253H150.891V247.208C150.891 246.376 150.848 245.635 150.763 244.984H151.691L151.819 246.424C152.043 245.891 152.373 245.485 152.811 245.208C153.259 244.931 153.776 244.792 154.363 244.792C155.653 244.792 156.48 245.315 156.843 246.36C157.067 245.869 157.413 245.485 157.883 245.208C158.363 244.931 158.912 244.792 159.531 244.792ZM165.309 248.872V248.92C165.309 249.997 165.554 250.824 166.045 251.4C166.546 251.965 167.271 252.248 168.221 252.248C169.181 252.248 170.061 251.917 170.861 251.256L171.245 252.024C170.893 252.355 170.445 252.621 169.901 252.824C169.357 253.016 168.797 253.112 168.221 253.112C167.005 253.112 166.045 252.744 165.341 252.008C164.637 251.272 164.285 250.259 164.285 248.968C164.285 248.147 164.439 247.421 164.749 246.792C165.069 246.152 165.511 245.661 166.077 245.32C166.642 244.968 167.293 244.792 168.029 244.792C169.085 244.792 169.906 245.133 170.493 245.816C171.09 246.499 171.389 247.448 171.389 248.664V248.872H165.309ZM168.029 245.592C167.293 245.592 166.695 245.816 166.237 246.264C165.778 246.701 165.49 247.32 165.373 248.12H170.461C170.397 247.299 170.157 246.675 169.741 246.248C169.325 245.811 168.754 245.592 168.029 245.592ZM180.284 241.224V253H179.308V251.464C179.074 251.997 178.716 252.408 178.236 252.696C177.767 252.973 177.202 253.112 176.54 253.112C175.836 253.112 175.212 252.941 174.668 252.6C174.135 252.248 173.719 251.757 173.42 251.128C173.122 250.488 172.972 249.752 172.972 248.92C172.972 248.088 173.116 247.363 173.404 246.744C173.703 246.115 174.119 245.635 174.652 245.304C175.196 244.963 175.826 244.792 176.54 244.792C177.191 244.792 177.751 244.931 178.22 245.208C178.7 245.485 179.063 245.891 179.308 246.424V241.224H180.284ZM176.668 252.248C177.511 252.248 178.162 251.96 178.62 251.384C179.079 250.808 179.308 249.997 179.308 248.952C179.308 247.907 179.079 247.096 178.62 246.52C178.162 245.933 177.516 245.64 176.684 245.64C175.831 245.64 175.17 245.928 174.7 246.504C174.231 247.08 173.996 247.885 173.996 248.92C173.996 249.965 174.231 250.781 174.7 251.368C175.17 251.955 175.826 252.248 176.668 252.248ZM182.937 244.984H183.897V253H182.937V244.984ZM184.089 241.672V242.92H182.793V241.672H184.089ZM189.826 253.112C189.069 253.112 188.407 252.941 187.842 252.6C187.277 252.259 186.839 251.779 186.53 251.16C186.221 250.531 186.066 249.805 186.066 248.984C186.066 248.152 186.221 247.421 186.53 246.792C186.839 246.152 187.282 245.661 187.858 245.32C188.434 244.968 189.101 244.792 189.858 244.792C190.402 244.792 190.919 244.888 191.41 245.08C191.911 245.261 192.322 245.517 192.642 245.848L192.258 246.616C191.842 246.275 191.442 246.029 191.058 245.88C190.685 245.72 190.295 245.64 189.89 245.64C189.026 245.64 188.343 245.939 187.842 246.536C187.341 247.123 187.09 247.939 187.09 248.984C187.09 250.008 187.335 250.808 187.826 251.384C188.327 251.96 189.015 252.248 189.89 252.248C190.295 252.248 190.685 252.173 191.058 252.024C191.442 251.864 191.842 251.619 192.258 251.288L192.642 252.04C192.301 252.371 191.874 252.632 191.362 252.824C190.861 253.016 190.349 253.112 189.826 253.112ZM194.422 244.984H195.382V253H194.422V244.984ZM195.574 241.672V242.92H194.278V241.672H195.574ZM201.79 244.792C203.721 244.792 204.686 245.827 204.686 247.896V253H203.71V247.96C203.71 247.16 203.545 246.573 203.214 246.2C202.894 245.827 202.388 245.64 201.694 245.64C200.894 245.64 200.249 245.885 199.758 246.376C199.268 246.867 199.022 247.528 199.022 248.36V253H198.062V247.208C198.062 246.376 198.02 245.635 197.934 244.984H198.862L198.99 246.456C199.236 245.912 199.604 245.501 200.094 245.224C200.585 244.936 201.15 244.792 201.79 244.792ZM207.824 248.872V248.92C207.824 249.997 208.07 250.824 208.56 251.4C209.062 251.965 209.787 252.248 210.736 252.248C211.696 252.248 212.576 251.917 213.376 251.256L213.76 252.024C213.408 252.355 212.96 252.621 212.416 252.824C211.872 253.016 211.312 253.112 210.736 253.112C209.52 253.112 208.56 252.744 207.856 252.008C207.152 251.272 206.8 250.259 206.8 248.968C206.8 248.147 206.955 247.421 207.264 246.792C207.584 246.152 208.027 245.661 208.592 245.32C209.158 244.968 209.808 244.792 210.544 244.792C211.6 244.792 212.422 245.133 213.008 245.816C213.606 246.499 213.904 247.448 213.904 248.664V248.872H207.824ZM210.544 245.592C209.808 245.592 209.211 245.816 208.752 246.264C208.294 246.701 208.006 247.32 207.888 248.12H212.976C212.912 247.299 212.672 246.675 212.256 246.248C211.84 245.811 211.27 245.592 210.544 245.592ZM218.608 253.112C217.307 253.112 216.277 252.755 215.52 252.04L215.872 251.288C216.299 251.64 216.725 251.891 217.152 252.04C217.589 252.189 218.091 252.264 218.656 252.264C219.317 252.264 219.819 252.152 220.16 251.928C220.512 251.693 220.688 251.357 220.688 250.92C220.688 250.557 220.571 250.275 220.336 250.072C220.112 249.859 219.739 249.688 219.216 249.56L217.856 249.256C217.216 249.107 216.709 248.84 216.336 248.456C215.973 248.072 215.792 247.624 215.792 247.112C215.792 246.408 216.059 245.848 216.592 245.432C217.136 245.005 217.856 244.792 218.752 244.792C219.317 244.792 219.84 244.883 220.32 245.064C220.811 245.245 221.216 245.507 221.536 245.848L221.168 246.6C220.432 245.96 219.627 245.64 218.752 245.64C218.133 245.64 217.653 245.763 217.312 246.008C216.971 246.253 216.8 246.595 216.8 247.032C216.8 247.395 216.907 247.688 217.12 247.912C217.344 248.136 217.685 248.301 218.144 248.408L219.52 248.744C220.96 249.064 221.68 249.773 221.68 250.872C221.68 251.544 221.403 252.088 220.848 252.504C220.293 252.909 219.547 253.112 218.608 253.112ZM239.92 244.984L237.008 253H236L233.568 246.232L231.12 253H230.096L227.2 244.984H228.24L230.608 251.832L233.104 244.984H234.08L236.496 251.832L238.928 244.984H239.92ZM241.797 244.984H242.757V253H241.797V244.984ZM242.949 241.672V242.92H241.653V241.672H242.949ZM246.797 245.768V250.536C246.797 251.176 246.92 251.619 247.165 251.864C247.411 252.109 247.773 252.232 248.253 252.232C248.552 252.232 248.84 252.184 249.117 252.088V252.968C248.776 253.053 248.429 253.096 248.077 253.096C247.373 253.096 246.819 252.899 246.413 252.504C246.019 252.109 245.821 251.517 245.821 250.728V245.768H244.237V244.984H245.821V242.856L246.797 242.488V244.984H249.165V245.768H246.797ZM254.556 244.792C256.487 244.792 257.452 245.827 257.452 247.896V253H256.476V247.96C256.476 247.16 256.311 246.573 255.98 246.2C255.66 245.827 255.153 245.64 254.46 245.64C253.66 245.64 253.015 245.885 252.524 246.376C252.033 246.867 251.788 247.528 251.788 248.36V253H250.828V241.224H251.788V246.376C252.044 245.853 252.412 245.459 252.892 245.192C253.372 244.925 253.927 244.792 254.556 244.792ZM267.34 253.112C266.604 253.112 265.953 252.941 265.388 252.6C264.833 252.259 264.401 251.773 264.092 251.144C263.793 250.515 263.644 249.784 263.644 248.952C263.644 248.12 263.793 247.389 264.092 246.76C264.401 246.131 264.833 245.645 265.388 245.304C265.953 244.963 266.604 244.792 267.34 244.792C268.065 244.792 268.705 244.963 269.26 245.304C269.815 245.645 270.241 246.131 270.54 246.76C270.849 247.389 271.004 248.12 271.004 248.952C271.004 249.784 270.849 250.515 270.54 251.144C270.241 251.773 269.815 252.259 269.26 252.6C268.705 252.941 268.065 253.112 267.34 253.112ZM267.324 252.248C268.177 252.248 268.833 251.965 269.292 251.4C269.761 250.824 269.996 250.008 269.996 248.952C269.996 247.907 269.761 247.096 269.292 246.52C268.823 245.933 268.172 245.64 267.34 245.64C266.497 245.64 265.841 245.933 265.372 246.52C264.903 247.096 264.668 247.907 264.668 248.952C264.668 250.019 264.897 250.835 265.356 251.4C265.815 251.965 266.471 252.248 267.324 252.248ZM279.589 244.984V253H278.645V251.544C278.389 252.056 278.026 252.445 277.557 252.712C277.087 252.979 276.549 253.112 275.941 253.112C275.002 253.112 274.293 252.851 273.812 252.328C273.333 251.805 273.093 251.032 273.093 250.008V244.984H274.053V249.944C274.053 250.733 274.213 251.315 274.533 251.688C274.853 252.061 275.349 252.248 276.021 252.248C276.81 252.248 277.439 252.003 277.909 251.512C278.378 251.011 278.613 250.349 278.613 249.528V244.984H279.589ZM285.706 244.792C285.973 244.792 286.207 244.813 286.41 244.856L286.362 245.736C286.159 245.693 285.914 245.672 285.626 245.672C284.815 245.672 284.207 245.933 283.802 246.456C283.407 246.968 283.21 247.581 283.21 248.296V253H282.25V247.208C282.25 246.376 282.207 245.635 282.122 244.984H283.05L283.178 246.472C283.381 245.928 283.706 245.512 284.154 245.224C284.613 244.936 285.13 244.792 285.706 244.792ZM86.968 272.792C88.7387 272.792 89.624 273.827 89.624 275.896V281H88.648V275.96C88.648 275.149 88.504 274.563 88.216 274.2C87.928 273.827 87.4693 273.64 86.84 273.64C86.104 273.64 85.5227 273.885 85.096 274.376C84.68 274.867 84.472 275.533 84.472 276.376V281H83.496V275.96C83.496 275.149 83.3467 274.563 83.048 274.2C82.76 273.827 82.3013 273.64 81.672 273.64C80.9467 273.64 80.3653 273.885 79.928 274.376C79.5013 274.867 79.288 275.533 79.288 276.376V281H78.328V275.208C78.328 274.376 78.2853 273.635 78.2 272.984H79.128L79.256 274.424C79.48 273.891 79.8107 273.485 80.248 273.208C80.696 272.931 81.2133 272.792 81.8 272.792C83.0907 272.792 83.9173 273.315 84.28 274.36C84.504 273.869 84.8507 273.485 85.32 273.208C85.8 272.931 86.3493 272.792 86.968 272.792ZM95.4183 281.112C94.6823 281.112 94.0316 280.941 93.4663 280.6C92.9116 280.259 92.4796 279.773 92.1703 279.144C91.8716 278.515 91.7223 277.784 91.7223 276.952C91.7223 276.12 91.8716 275.389 92.1703 274.76C92.4796 274.131 92.9116 273.645 93.4663 273.304C94.0316 272.963 94.6823 272.792 95.4183 272.792C96.1436 272.792 96.7836 272.963 97.3383 273.304C97.8929 273.645 98.3196 274.131 98.6183 274.76C98.9276 275.389 99.0823 276.12 99.0823 276.952C99.0823 277.784 98.9276 278.515 98.6183 279.144C98.3196 279.773 97.8929 280.259 97.3383 280.6C96.7836 280.941 96.1436 281.112 95.4183 281.112ZM95.4023 280.248C96.2556 280.248 96.9116 279.965 97.3703 279.4C97.8396 278.824 98.0743 278.008 98.0743 276.952C98.0743 275.907 97.8396 275.096 97.3703 274.52C96.9009 273.933 96.2503 273.64 95.4183 273.64C94.5756 273.64 93.9196 273.933 93.4503 274.52C92.9809 275.096 92.7463 275.907 92.7463 276.952C92.7463 278.019 92.9756 278.835 93.4343 279.4C93.8929 279.965 94.5489 280.248 95.4023 280.248ZM104.963 272.792C105.667 272.792 106.291 272.963 106.835 273.304C107.379 273.645 107.795 274.125 108.083 274.744C108.381 275.363 108.531 276.088 108.531 276.92C108.531 277.752 108.381 278.488 108.083 279.128C107.784 279.757 107.363 280.248 106.819 280.6C106.285 280.941 105.667 281.112 104.963 281.112C104.301 281.112 103.731 280.968 103.251 280.68C102.781 280.392 102.429 279.976 102.195 279.432V281H101.219V269.224H102.179V274.488C102.413 273.933 102.771 273.512 103.251 273.224C103.731 272.936 104.301 272.792 104.963 272.792ZM104.851 280.248C105.683 280.248 106.333 279.955 106.803 279.368C107.272 278.781 107.507 277.965 107.507 276.92C107.507 275.885 107.272 275.08 106.803 274.504C106.333 273.928 105.677 273.64 104.835 273.64C103.992 273.64 103.341 273.928 102.883 274.504C102.424 275.08 102.195 275.896 102.195 276.952C102.195 278.008 102.424 278.824 102.883 279.4C103.341 279.965 103.997 280.248 104.851 280.248ZM110.672 272.984H111.632V281H110.672V272.984ZM111.824 269.672V270.92H110.528V269.672H111.824ZM114.312 269.224H115.272V281H114.312V269.224ZM118.465 276.872V276.92C118.465 277.997 118.71 278.824 119.201 279.4C119.702 279.965 120.428 280.248 121.377 280.248C122.337 280.248 123.217 279.917 124.017 279.256L124.401 280.024C124.049 280.355 123.601 280.621 123.057 280.824C122.513 281.016 121.953 281.112 121.377 281.112C120.161 281.112 119.201 280.744 118.497 280.008C117.793 279.272 117.441 278.259 117.441 276.968C117.441 276.147 117.596 275.421 117.905 274.792C118.225 274.152 118.668 273.661 119.233 273.32C119.798 272.968 120.449 272.792 121.185 272.792C122.241 272.792 123.062 273.133 123.649 273.816C124.246 274.499 124.545 275.448 124.545 276.664V276.872H118.465ZM121.185 273.592C120.449 273.592 119.852 273.816 119.393 274.264C118.934 274.701 118.646 275.32 118.529 276.12H123.617C123.553 275.299 123.313 274.675 122.897 274.248C122.481 273.811 121.91 273.592 121.185 273.592ZM137.519 272.984V281H136.543V279.464C136.308 279.997 135.951 280.408 135.471 280.696C135.001 280.973 134.436 281.112 133.775 281.112C133.06 281.112 132.431 280.947 131.887 280.616C131.353 280.275 130.937 279.795 130.639 279.176C130.351 278.547 130.207 277.816 130.207 276.984C130.207 276.152 130.356 275.421 130.655 274.792C130.953 274.152 131.369 273.661 131.903 273.32C132.447 272.968 133.071 272.792 133.775 272.792C134.425 272.792 134.985 272.931 135.455 273.208C135.935 273.485 136.297 273.891 136.543 274.424V272.984H137.519ZM133.919 280.248C134.751 280.248 135.396 279.96 135.855 279.384C136.313 278.808 136.543 277.997 136.543 276.952C136.543 275.896 136.313 275.08 135.855 274.504C135.396 273.928 134.745 273.64 133.903 273.64C133.06 273.64 132.404 273.939 131.935 274.536C131.465 275.123 131.231 275.939 131.231 276.984C131.231 278.019 131.465 278.824 131.935 279.4C132.404 279.965 133.065 280.248 133.919 280.248ZM143.916 272.792C144.62 272.792 145.238 272.968 145.772 273.32C146.316 273.661 146.737 274.152 147.036 274.792C147.334 275.421 147.484 276.152 147.484 276.984C147.484 277.816 147.334 278.541 147.036 279.16C146.748 279.779 146.332 280.259 145.788 280.6C145.244 280.941 144.62 281.112 143.916 281.112C143.244 281.112 142.668 280.968 142.188 280.68C141.718 280.381 141.366 279.955 141.132 279.4V284.456H140.172V275.208C140.172 274.376 140.129 273.635 140.044 272.984H140.972L141.1 274.552C141.334 273.987 141.692 273.555 142.172 273.256C142.662 272.947 143.244 272.792 143.916 272.792ZM143.788 280.248C144.63 280.248 145.286 279.965 145.756 279.4C146.225 278.824 146.46 278.019 146.46 276.984C146.46 275.939 146.225 275.123 145.756 274.536C145.286 273.939 144.636 273.64 143.804 273.64C142.95 273.64 142.294 273.928 141.836 274.504C141.377 275.08 141.148 275.896 141.148 276.952C141.148 277.997 141.377 278.808 141.836 279.384C142.294 279.96 142.945 280.248 143.788 280.248ZM153.369 272.792C154.073 272.792 154.692 272.968 155.225 273.32C155.769 273.661 156.19 274.152 156.489 274.792C156.788 275.421 156.937 276.152 156.937 276.984C156.937 277.816 156.788 278.541 156.489 279.16C156.201 279.779 155.785 280.259 155.241 280.6C154.697 280.941 154.073 281.112 153.369 281.112C152.697 281.112 152.121 280.968 151.641 280.68C151.172 280.381 150.82 279.955 150.585 279.4V284.456H149.625V275.208C149.625 274.376 149.582 273.635 149.497 272.984H150.425L150.553 274.552C150.788 273.987 151.145 273.555 151.625 273.256C152.116 272.947 152.697 272.792 153.369 272.792ZM153.241 280.248C154.084 280.248 154.74 279.965 155.209 279.4C155.678 278.824 155.913 278.019 155.913 276.984C155.913 275.939 155.678 275.123 155.209 274.536C154.74 273.939 154.089 273.64 153.257 273.64C152.404 273.64 151.748 273.928 151.289 274.504C150.83 275.08 150.601 275.896 150.601 276.952C150.601 277.997 150.83 278.808 151.289 279.384C151.748 279.96 152.398 280.248 153.241 280.248ZM159.078 269.224H160.038V281H159.078V269.224ZM162.719 272.984H163.679V281H162.719V272.984ZM163.871 269.672V270.92H162.575V269.672H163.871ZM169.607 281.112C168.85 281.112 168.189 280.941 167.623 280.6C167.058 280.259 166.621 279.779 166.311 279.16C166.002 278.531 165.847 277.805 165.847 276.984C165.847 276.152 166.002 275.421 166.311 274.792C166.621 274.152 167.063 273.661 167.639 273.32C168.215 272.968 168.882 272.792 169.639 272.792C170.183 272.792 170.701 272.888 171.191 273.08C171.693 273.261 172.103 273.517 172.423 273.848L172.039 274.616C171.623 274.275 171.223 274.029 170.839 273.88C170.466 273.72 170.077 273.64 169.671 273.64C168.807 273.64 168.125 273.939 167.623 274.536C167.122 275.123 166.871 275.939 166.871 276.984C166.871 278.008 167.117 278.808 167.607 279.384C168.109 279.96 168.797 280.248 169.671 280.248C170.077 280.248 170.466 280.173 170.839 280.024C171.223 279.864 171.623 279.619 172.039 279.288L172.423 280.04C172.082 280.371 171.655 280.632 171.143 280.824C170.642 281.016 170.13 281.112 169.607 281.112ZM181.003 272.984V281H180.027V279.464C179.792 279.997 179.435 280.408 178.955 280.696C178.486 280.973 177.92 281.112 177.259 281.112C176.544 281.112 175.915 280.947 175.371 280.616C174.838 280.275 174.422 279.795 174.123 279.176C173.835 278.547 173.691 277.816 173.691 276.984C173.691 276.152 173.84 275.421 174.139 274.792C174.438 274.152 174.854 273.661 175.387 273.32C175.931 272.968 176.555 272.792 177.259 272.792C177.91 272.792 178.47 272.931 178.939 273.208C179.419 273.485 179.782 273.891 180.027 274.424V272.984H181.003ZM177.403 280.248C178.235 280.248 178.88 279.96 179.339 279.384C179.798 278.808 180.027 277.997 180.027 276.952C180.027 275.896 179.798 275.08 179.339 274.504C178.88 273.928 178.23 273.64 177.387 273.64C176.544 273.64 175.888 273.939 175.419 274.536C174.95 275.123 174.715 275.939 174.715 276.984C174.715 278.019 174.95 278.824 175.419 279.4C175.888 279.965 176.55 280.248 177.403 280.248ZM185.016 273.768V278.536C185.016 279.176 185.139 279.619 185.384 279.864C185.629 280.109 185.992 280.232 186.472 280.232C186.771 280.232 187.059 280.184 187.336 280.088V280.968C186.995 281.053 186.648 281.096 186.296 281.096C185.592 281.096 185.037 280.899 184.632 280.504C184.237 280.109 184.04 279.517 184.04 278.728V273.768H182.456V272.984H184.04V270.856L185.016 270.488V272.984H187.384V273.768H185.016ZM189.047 272.984H190.007V281H189.047V272.984ZM190.199 269.672V270.92H188.903V269.672H190.199ZM195.871 281.112C195.135 281.112 194.485 280.941 193.919 280.6C193.365 280.259 192.933 279.773 192.623 279.144C192.325 278.515 192.175 277.784 192.175 276.952C192.175 276.12 192.325 275.389 192.623 274.76C192.933 274.131 193.365 273.645 193.919 273.304C194.485 272.963 195.135 272.792 195.871 272.792C196.597 272.792 197.237 272.963 197.791 273.304C198.346 273.645 198.773 274.131 199.071 274.76C199.381 275.389 199.535 276.12 199.535 276.952C199.535 277.784 199.381 278.515 199.071 279.144C198.773 279.773 198.346 280.259 197.791 280.6C197.237 280.941 196.597 281.112 195.871 281.112ZM195.855 280.248C196.709 280.248 197.365 279.965 197.823 279.4C198.293 278.824 198.527 278.008 198.527 276.952C198.527 275.907 198.293 275.096 197.823 274.52C197.354 273.933 196.703 273.64 195.871 273.64C195.029 273.64 194.373 273.933 193.903 274.52C193.434 275.096 193.199 275.907 193.199 276.952C193.199 278.019 193.429 278.835 193.887 279.4C194.346 279.965 195.002 280.248 195.855 280.248ZM205.4 272.792C207.33 272.792 208.296 273.827 208.296 275.896V281H207.32V275.96C207.32 275.16 207.154 274.573 206.824 274.2C206.504 273.827 205.997 273.64 205.304 273.64C204.504 273.64 203.858 273.885 203.368 274.376C202.877 274.867 202.632 275.528 202.632 276.36V281H201.672V275.208C201.672 274.376 201.629 273.635 201.544 272.984H202.472L202.6 274.456C202.845 273.912 203.213 273.501 203.704 273.224C204.194 272.936 204.76 272.792 205.4 272.792ZM226.936 272.984L224.024 281H223.016L220.584 274.232L218.136 281H217.112L214.216 272.984H215.256L217.624 279.832L220.12 272.984H221.096L223.512 279.832L225.944 272.984H226.936ZM228.812 272.984H229.772V281H228.812V272.984ZM229.964 269.672V270.92H228.668V269.672H229.964ZM233.813 273.768V278.536C233.813 279.176 233.936 279.619 234.181 279.864C234.426 280.109 234.789 280.232 235.269 280.232C235.568 280.232 235.856 280.184 236.133 280.088V280.968C235.792 281.053 235.445 281.096 235.093 281.096C234.389 281.096 233.834 280.899 233.429 280.504C233.034 280.109 232.837 279.517 232.837 278.728V273.768H231.253V272.984H232.837V270.856L233.813 270.488V272.984H236.181V273.768H233.813ZM241.572 272.792C243.502 272.792 244.468 273.827 244.468 275.896V281H243.492V275.96C243.492 275.16 243.326 274.573 242.996 274.2C242.676 273.827 242.169 273.64 241.476 273.64C240.676 273.64 240.03 273.885 239.54 274.376C239.049 274.867 238.804 275.528 238.804 276.36V281H237.844V269.224H238.804V274.376C239.06 273.853 239.428 273.459 239.908 273.192C240.388 272.925 240.942 272.792 241.572 272.792ZM257.972 272.984V281H256.996V279.464C256.761 279.997 256.404 280.408 255.924 280.696C255.454 280.973 254.889 281.112 254.228 281.112C253.513 281.112 252.884 280.947 252.34 280.616C251.806 280.275 251.39 279.795 251.092 279.176C250.804 278.547 250.66 277.816 250.66 276.984C250.66 276.152 250.809 275.421 251.108 274.792C251.406 274.152 251.822 273.661 252.356 273.32C252.9 272.968 253.524 272.792 254.228 272.792C254.878 272.792 255.438 272.931 255.908 273.208C256.388 273.485 256.75 273.891 256.996 274.424V272.984H257.972ZM254.372 280.248C255.204 280.248 255.849 279.96 256.308 279.384C256.766 278.808 256.996 277.997 256.996 276.952C256.996 275.896 256.766 275.08 256.308 274.504C255.849 273.928 255.198 273.64 254.356 273.64C253.513 273.64 252.857 273.939 252.388 274.536C251.918 275.123 251.684 275.939 251.684 276.984C251.684 278.019 251.918 278.824 252.388 279.4C252.857 279.965 253.518 280.248 254.372 280.248ZM267.311 281.112C266.01 281.112 264.98 280.755 264.223 280.04L264.575 279.288C265.002 279.64 265.428 279.891 265.855 280.04C266.292 280.189 266.794 280.264 267.359 280.264C268.02 280.264 268.522 280.152 268.863 279.928C269.215 279.693 269.391 279.357 269.391 278.92C269.391 278.557 269.274 278.275 269.039 278.072C268.815 277.859 268.442 277.688 267.919 277.56L266.559 277.256C265.919 277.107 265.412 276.84 265.039 276.456C264.676 276.072 264.495 275.624 264.495 275.112C264.495 274.408 264.762 273.848 265.295 273.432C265.839 273.005 266.559 272.792 267.455 272.792C268.02 272.792 268.543 272.883 269.023 273.064C269.514 273.245 269.919 273.507 270.239 273.848L269.871 274.6C269.135 273.96 268.33 273.64 267.455 273.64C266.836 273.64 266.356 273.763 266.015 274.008C265.674 274.253 265.503 274.595 265.503 275.032C265.503 275.395 265.61 275.688 265.823 275.912C266.047 276.136 266.388 276.301 266.847 276.408L268.223 276.744C269.663 277.064 270.383 277.773 270.383 278.872C270.383 279.544 270.106 280.088 269.551 280.504C268.996 280.909 268.25 281.112 267.311 281.112ZM272.609 272.984H273.569V281H272.609V272.984ZM273.761 269.672V270.92H272.465V269.672H273.761ZM284.89 272.792C286.661 272.792 287.546 273.827 287.546 275.896V281H286.57V275.96C286.57 275.149 286.426 274.563 286.138 274.2C285.85 273.827 285.391 273.64 284.762 273.64C284.026 273.64 283.445 273.885 283.018 274.376C282.602 274.867 282.394 275.533 282.394 276.376V281H281.418V275.96C281.418 275.149 281.269 274.563 280.97 274.2C280.682 273.827 280.223 273.64 279.594 273.64C278.869 273.64 278.287 273.885 277.85 274.376C277.423 274.867 277.21 275.533 277.21 276.376V281H276.25V275.208C276.25 274.376 276.207 273.635 276.122 272.984H277.05L277.178 274.424C277.402 273.891 277.733 273.485 278.17 273.208C278.618 272.931 279.135 272.792 279.722 272.792C281.013 272.792 281.839 273.315 282.202 274.36C282.426 273.869 282.773 273.485 283.242 273.208C283.722 272.931 284.271 272.792 284.89 272.792ZM293.9 272.792C294.604 272.792 295.223 272.968 295.756 273.32C296.3 273.661 296.721 274.152 297.02 274.792C297.319 275.421 297.468 276.152 297.468 276.984C297.468 277.816 297.319 278.541 297.02 279.16C296.732 279.779 296.316 280.259 295.772 280.6C295.228 280.941 294.604 281.112 293.9 281.112C293.228 281.112 292.652 280.968 292.172 280.68C291.703 280.381 291.351 279.955 291.116 279.4V284.456H290.156V275.208C290.156 274.376 290.113 273.635 290.028 272.984H290.956L291.084 274.552C291.319 273.987 291.676 273.555 292.156 273.256C292.647 272.947 293.228 272.792 293.9 272.792ZM293.772 280.248C294.615 280.248 295.271 279.965 295.74 279.4C296.209 278.824 296.444 278.019 296.444 276.984C296.444 275.939 296.209 275.123 295.74 274.536C295.271 273.939 294.62 273.64 293.788 273.64C292.935 273.64 292.279 273.928 291.82 274.504C291.361 275.08 291.132 275.896 291.132 276.952C291.132 277.997 291.361 278.808 291.82 279.384C292.279 279.96 292.929 280.248 293.772 280.248ZM299.609 269.224H300.569V281H299.609V269.224ZM303.762 276.872V276.92C303.762 277.997 304.007 278.824 304.498 279.4C304.999 279.965 305.725 280.248 306.674 280.248C307.634 280.248 308.514 279.917 309.314 279.256L309.698 280.024C309.346 280.355 308.898 280.621 308.354 280.824C307.81 281.016 307.25 281.112 306.674 281.112C305.458 281.112 304.498 280.744 303.794 280.008C303.09 279.272 302.738 278.259 302.738 276.968C302.738 276.147 302.893 275.421 303.202 274.792C303.522 274.152 303.965 273.661 304.53 273.32C305.095 272.968 305.746 272.792 306.482 272.792C307.538 272.792 308.359 273.133 308.946 273.816C309.543 274.499 309.842 275.448 309.842 276.664V276.872H303.762ZM306.482 273.592C305.746 273.592 305.149 273.816 304.69 274.264C304.231 274.701 303.943 275.32 303.826 276.12H308.914C308.85 275.299 308.61 274.675 308.194 274.248C307.778 273.811 307.207 273.592 306.482 273.592ZM85.128 297.224V309H84.152V307.464C83.9173 307.997 83.56 308.408 83.08 308.696C82.6107 308.973 82.0453 309.112 81.384 309.112C80.68 309.112 80.056 308.941 79.512 308.6C78.9787 308.248 78.5627 307.757 78.264 307.128C77.9653 306.488 77.816 305.752 77.816 304.92C77.816 304.088 77.96 303.363 78.248 302.744C78.5467 302.115 78.9627 301.635 79.496 301.304C80.04 300.963 80.6693 300.792 81.384 300.792C82.0347 300.792 82.5947 300.931 83.064 301.208C83.544 301.485 83.9067 301.891 84.152 302.424V297.224H85.128ZM81.512 308.248C82.3547 308.248 83.0053 307.96 83.464 307.384C83.9227 306.808 84.152 305.997 84.152 304.952C84.152 303.907 83.9227 303.096 83.464 302.52C83.0053 301.933 82.36 301.64 81.528 301.64C80.6747 301.64 80.0133 301.928 79.544 302.504C79.0747 303.08 78.84 303.885 78.84 304.92C78.84 305.965 79.0747 306.781 79.544 307.368C80.0133 307.955 80.6693 308.248 81.512 308.248ZM88.2931 304.872V304.92C88.2931 305.997 88.5385 306.824 89.0291 307.4C89.5305 307.965 90.2558 308.248 91.2051 308.248C92.1651 308.248 93.0451 307.917 93.8451 307.256L94.2291 308.024C93.8771 308.355 93.4291 308.621 92.8851 308.824C92.3411 309.016 91.7811 309.112 91.2051 309.112C89.9891 309.112 89.0291 308.744 88.3251 308.008C87.6211 307.272 87.2691 306.259 87.2691 304.968C87.2691 304.147 87.4238 303.421 87.7331 302.792C88.0531 302.152 88.4958 301.661 89.0611 301.32C89.6265 300.968 90.2771 300.792 91.0131 300.792C92.0691 300.792 92.8905 301.133 93.4771 301.816C94.0745 302.499 94.3731 303.448 94.3731 304.664V304.872H88.2931ZM91.0131 301.592C90.2771 301.592 89.6798 301.816 89.2211 302.264C88.7625 302.701 88.4745 303.32 88.3571 304.12H93.4451C93.3811 303.299 93.1411 302.675 92.7251 302.248C92.3091 301.811 91.7385 301.592 91.0131 301.592ZM96.4686 297.224H97.4286V309H96.4686V297.224ZM100.109 300.984H101.069V309H100.109V300.984ZM101.261 297.672V298.92H99.9653V297.672H101.261ZM110.55 300.984L107.11 309H106.102L102.71 300.984H103.75L106.646 308.024L109.558 300.984H110.55ZM112.59 304.872V304.92C112.59 305.997 112.835 306.824 113.326 307.4C113.827 307.965 114.553 308.248 115.502 308.248C116.462 308.248 117.342 307.917 118.142 307.256L118.526 308.024C118.174 308.355 117.726 308.621 117.182 308.824C116.638 309.016 116.078 309.112 115.502 309.112C114.286 309.112 113.326 308.744 112.622 308.008C111.918 307.272 111.566 306.259 111.566 304.968C111.566 304.147 111.721 303.421 112.03 302.792C112.35 302.152 112.793 301.661 113.358 301.32C113.923 300.968 114.574 300.792 115.31 300.792C116.366 300.792 117.187 301.133 117.774 301.816C118.371 302.499 118.67 303.448 118.67 304.664V304.872H112.59ZM115.31 301.592C114.574 301.592 113.977 301.816 113.518 302.264C113.059 302.701 112.771 303.32 112.654 304.12H117.742C117.678 303.299 117.438 302.675 117.022 302.248C116.606 301.811 116.035 301.592 115.31 301.592ZM124.222 300.792C124.488 300.792 124.723 300.813 124.926 300.856L124.878 301.736C124.675 301.693 124.43 301.672 124.141 301.672C123.331 301.672 122.723 301.933 122.318 302.456C121.923 302.968 121.726 303.581 121.726 304.296V309H120.766V303.208C120.766 302.376 120.723 301.635 120.638 300.984H121.566L121.694 302.472C121.896 301.928 122.222 301.512 122.67 301.224C123.128 300.936 123.646 300.792 124.222 300.792ZM133.628 300.984L129.852 309.832C129.479 310.707 129.009 311.347 128.444 311.752C127.889 312.168 127.191 312.461 126.348 312.632L126.156 311.864C126.924 311.683 127.5 311.448 127.884 311.16C128.279 310.872 128.609 310.419 128.876 309.8L129.212 309.016L125.788 300.984H126.828L129.724 308.024L132.636 300.984H133.628ZM141.92 309.112C140.619 309.112 139.59 308.755 138.832 308.04L139.184 307.288C139.611 307.64 140.038 307.891 140.464 308.04C140.902 308.189 141.403 308.264 141.968 308.264C142.63 308.264 143.131 308.152 143.472 307.928C143.824 307.693 144 307.357 144 306.92C144 306.557 143.883 306.275 143.648 306.072C143.424 305.859 143.051 305.688 142.528 305.56L141.168 305.256C140.528 305.107 140.022 304.84 139.648 304.456C139.286 304.072 139.104 303.624 139.104 303.112C139.104 302.408 139.371 301.848 139.904 301.432C140.448 301.005 141.168 300.792 142.064 300.792C142.63 300.792 143.152 300.883 143.632 301.064C144.123 301.245 144.528 301.507 144.848 301.848L144.48 302.6C143.744 301.96 142.939 301.64 142.064 301.64C141.446 301.64 140.966 301.763 140.624 302.008C140.283 302.253 140.112 302.595 140.112 303.032C140.112 303.395 140.219 303.688 140.432 303.912C140.656 304.136 140.998 304.301 141.456 304.408L142.832 304.744C144.272 305.064 144.992 305.773 144.992 306.872C144.992 307.544 144.715 308.088 144.16 308.504C143.606 308.909 142.859 309.112 141.92 309.112ZM153.862 300.984L150.086 309.832C149.713 310.707 149.244 311.347 148.678 311.752C148.124 312.168 147.425 312.461 146.582 312.632L146.39 311.864C147.158 311.683 147.734 311.448 148.118 311.16C148.513 310.872 148.844 310.419 149.11 309.8L149.446 309.016L146.022 300.984H147.062L149.958 308.024L152.87 300.984H153.862ZM157.92 309.112C156.619 309.112 155.59 308.755 154.832 308.04L155.184 307.288C155.611 307.64 156.038 307.891 156.464 308.04C156.902 308.189 157.403 308.264 157.968 308.264C158.63 308.264 159.131 308.152 159.472 307.928C159.824 307.693 160 307.357 160 306.92C160 306.557 159.883 306.275 159.648 306.072C159.424 305.859 159.051 305.688 158.528 305.56L157.168 305.256C156.528 305.107 156.022 304.84 155.648 304.456C155.286 304.072 155.104 303.624 155.104 303.112C155.104 302.408 155.371 301.848 155.904 301.432C156.448 301.005 157.168 300.792 158.064 300.792C158.63 300.792 159.152 300.883 159.632 301.064C160.123 301.245 160.528 301.507 160.848 301.848L160.48 302.6C159.744 301.96 158.939 301.64 158.064 301.64C157.446 301.64 156.966 301.763 156.624 302.008C156.283 302.253 156.112 302.595 156.112 303.032C156.112 303.395 156.219 303.688 156.432 303.912C156.656 304.136 156.998 304.301 157.456 304.408L158.832 304.744C160.272 305.064 160.992 305.773 160.992 306.872C160.992 307.544 160.715 308.088 160.16 308.504C159.606 308.909 158.859 309.112 157.92 309.112ZM164.501 301.768V306.536C164.501 307.176 164.623 307.619 164.869 307.864C165.114 308.109 165.477 308.232 165.957 308.232C166.255 308.232 166.543 308.184 166.821 308.088V308.968C166.479 309.053 166.133 309.096 165.781 309.096C165.077 309.096 164.522 308.899 164.117 308.504C163.722 308.109 163.525 307.517 163.525 306.728V301.768H161.941V300.984H163.525V298.856L164.501 298.488V300.984H166.869V301.768H164.501ZM169.043 304.872V304.92C169.043 305.997 169.288 306.824 169.779 307.4C170.28 307.965 171.006 308.248 171.955 308.248C172.915 308.248 173.795 307.917 174.595 307.256L174.979 308.024C174.627 308.355 174.179 308.621 173.635 308.824C173.091 309.016 172.531 309.112 171.955 309.112C170.739 309.112 169.779 308.744 169.075 308.008C168.371 307.272 168.019 306.259 168.019 304.968C168.019 304.147 168.174 303.421 168.483 302.792C168.803 302.152 169.246 301.661 169.811 301.32C170.376 300.968 171.027 300.792 171.763 300.792C172.819 300.792 173.64 301.133 174.227 301.816C174.824 302.499 175.123 303.448 175.123 304.664V304.872H169.043ZM171.763 301.592C171.027 301.592 170.43 301.816 169.971 302.264C169.512 302.701 169.224 303.32 169.107 304.12H174.195C174.131 303.299 173.891 302.675 173.475 302.248C173.059 301.811 172.488 301.592 171.763 301.592ZM185.859 300.792C187.629 300.792 188.515 301.827 188.515 303.896V309H187.539V303.96C187.539 303.149 187.395 302.563 187.107 302.2C186.819 301.827 186.36 301.64 185.731 301.64C184.995 301.64 184.413 301.885 183.987 302.376C183.571 302.867 183.363 303.533 183.363 304.376V309H182.387V303.96C182.387 303.149 182.237 302.563 181.939 302.2C181.651 301.827 181.192 301.64 180.563 301.64C179.837 301.64 179.256 301.885 178.819 302.376C178.392 302.867 178.179 303.533 178.179 304.376V309H177.219V303.208C177.219 302.376 177.176 301.635 177.091 300.984H178.019L178.147 302.424C178.371 301.891 178.701 301.485 179.139 301.208C179.587 300.931 180.104 300.792 180.691 300.792C181.981 300.792 182.808 301.315 183.171 302.36C183.395 301.869 183.741 301.485 184.211 301.208C184.691 300.931 185.24 300.792 185.859 300.792Z" fill="#7D7987"/>
<g clip-path="url(#clip0_63_2673)">
<path d="M138.857 98.4806L138.666 138.281L138.634 145.98C138.602 152.097 132.788 157.032 125.633 157L89.8889 156.84C82.7497 156.792 76.9681 151.809 77 145.676L77.2236 98.1772C77.2396 93.226 81.0727 89.0415 86.3113 87.652L86.3273 85.0966V83.7869L129.881 83.9946L129.865 87.8596C135.088 89.313 138.873 93.5135 138.857 98.4806Z" fill="url(#paint0_linear_63_2673)"/>
<path d="M133.124 73.7728V74.1242L133.092 78.2768L133.06 82.3495V82.8446C133.06 83.6112 132.421 84.2341 131.654 84.2341H131.319L129.211 84.2182L126.895 84.2022L124.787 84.1862L122.471 84.1702L120.331 84.1383L118.015 84.1223L115.906 84.1064L113.575 84.0904L111.45 84.0744L109.135 84.0584L107.026 84.0265L104.71 84.0105L102.602 83.9945L100.27 83.9786L98.1462 83.9626L95.8463 83.9466L93.7381 83.9307L91.4222 83.9147L89.298 83.8987L86.9822 83.8828L84.858 83.8668H84.5226C83.7559 83.8668 83.133 83.2279 83.133 82.4613V82.4453V82.0939L83.1969 73.8846V73.3895C83.1969 72.6229 83.8358 72 84.6184 72H84.9538L89.3938 72.0319L93.8339 72.0639L95.9581 72.0799L98.274 72.0958L100.382 72.1118L104.806 72.1597L107.122 72.1757L109.23 72.1917L111.546 72.2076L113.654 72.2236L115.97 72.2396L118.079 72.2555L120.394 72.2715L122.503 72.2875L124.85 72.3194L126.959 72.3354L129.275 72.3514L131.399 72.3673H131.734C132.517 72.3833 133.124 73.0062 133.124 73.7728Z" fill="url(#paint1_linear_63_2673)"/>
<path d="M133.124 74.1402L133.092 78.2768L133.06 82.3495L131.159 82.3335L128.636 82.3176L126.32 82.3016H123.78L121.464 82.2856L118.941 82.2697L116.625 82.2537H114.086L111.77 82.2377L109.23 82.2217L106.93 82.2058H104.391L102.075 82.1898L99.5357 82.1738L97.2198 82.1579H94.6964L92.3805 82.1419L89.841 82.1259L87.5252 82.1099H85.0017L83.133 82.094L83.1969 73.8846L87.637 73.9006L92.4763 73.9326L94.7922 73.9485L97.3316 73.9645H99.6475L104.487 73.9964L107.026 74.0124H109.342L111.882 74.0284L114.182 74.0444L116.721 74.0603H119.037L121.576 74.0763L123.876 74.0923L126.416 74.1082H128.731L131.271 74.1242L133.124 74.1402Z" fill="url(#paint2_linear_63_2673)"/>
<path d="M138.811 106.884L77.1768 106.593L77.0475 133.92L138.681 134.211L138.811 106.884Z" fill="#F7F9FC"/>
<path d="M138.821 106.884L77.1877 106.593L77.1644 111.512L138.798 111.803L138.821 106.884Z" fill="#FBFCF7"/>
<path d="M101.213 117.58L97.2358 117.564L97.2518 113.572L91.7736 113.556L91.7576 117.532L87.7807 117.516L87.7488 122.979L91.7257 122.995L91.7097 126.988L97.1879 127.003L97.2039 123.027L101.181 123.043L101.213 117.58Z" fill="url(#paint3_linear_63_2673)"/>
<path d="M128.236 118.906L108.528 118.81C108.001 118.81 107.569 118.379 107.569 117.852V117.405C107.569 116.878 108.001 116.446 108.528 116.446L128.236 116.542C128.763 116.542 129.195 116.973 129.195 117.501V117.948C129.195 118.475 128.763 118.906 128.236 118.906Z" fill="url(#paint4_linear_63_2673)"/>
<path opacity="0.5" d="M128.22 124.768L108.512 124.672C107.985 124.672 107.553 124.24 107.553 123.713V123.266C107.553 122.739 107.985 122.308 108.512 122.308L128.22 122.404C128.747 122.404 129.179 122.835 129.179 123.362V123.809C129.179 124.336 128.747 124.768 128.22 124.768Z" fill="url(#paint5_linear_63_2673)"/>
<path opacity="0.08" d="M83.133 73.7729V74.1242L83.165 78.2768L83.1969 82.3335V82.8287C83.1969 83.5953 83.8358 84.2182 84.6024 84.2182H84.9378L87.062 84.2022L89.3779 84.1862L91.4861 84.1703L93.802 84.1543L95.9102 84.1383L98.226 84.1223L100.334 84.1064L102.65 84.0904L104.774 84.0744L107.09 84.0585L109.198 84.0425L111.514 84.0265L113.623 84.0105L115.938 83.9946L118.063 83.9786L120.378 83.9626L122.487 83.9467L124.803 83.9307L126.911 83.9147L129.227 83.8987L131.351 83.8828H131.686C132.453 83.8828 133.076 83.2439 133.076 82.4773V82.4613V82.1099C108.368 83.18 84.5226 72.3674 84.5226 72.3674C83.7559 72.3833 83.133 73.0062 83.133 73.7729Z" fill="#1A6FB5"/>
</g>
<defs>
<filter id="filter0_d_63_2673" x="0" y="0" width="450" height="454" filterUnits="userSpaceOnUse" color-interpolation-filters="sRGB">
<feFlood flood-opacity="0" result="BackgroundImageFix"/>
<feColorMatrix in="SourceAlpha" type="matrix" values="0 0 0 0 0 0 0 0 0 0 0 0 0 0 0 0 0 0 127 0" result="hardAlpha"/>
<feOffset dx="10" dy="40"/>
<feGaussianBlur stdDeviation="25"/>
<feColorMatrix type="matrix" values="0 0 0 0 0.897151 0 0 0 0 0.915421 0 0 0 0 0.962796 0 0 0 0.4 0"/>
<feBlend mode="normal" in2="BackgroundImageFix" result="effect1_dropShadow_63_2673"/>
<feBlend mode="normal" in="SourceGraphic" in2="effect1_dropShadow_63_2673" result="shape"/>
</filter>
<linearGradient id="paint0_linear_63_2673" x1="77" y1="83.3333" x2="134.139" y2="162.194" gradientUnits="userSpaceOnUse">
<stop stop-color="#6CBCFC"/>
<stop offset="1" stop-color="#458DFC"/>
</linearGradient>
<linearGradient id="paint1_linear_63_2673" x1="-552.93" y1="32.069" x2="49.3959" y2="74.0221" gradientUnits="userSpaceOnUse">
<stop stop-color="#B0F4FF"/>
<stop offset="0.0525488" stop-color="#A9F2FF"/>
<stop offset="0.2879" stop-color="#8DE8FE"/>
<stop offset="0.5247" stop-color="#79E1FD"/>
<stop offset="0.7618" stop-color="#6DDDFC"/>
<stop offset="1" stop-color="#69DCFC"/>
</linearGradient>
<linearGradient id="paint2_linear_63_2673" x1="83.1399" y1="78.1131" x2="133.126" y2="78.1131" gradientUnits="userSpaceOnUse">
<stop stop-color="#B0F4FF"/>
<stop offset="0.0525488" stop-color="#A9F2FF"/>
<stop offset="0.2879" stop-color="#8DE8FE"/>
<stop offset="0.5247" stop-color="#79E1FD"/>
<stop offset="0.7618" stop-color="#6DDDFC"/>
<stop offset="1" stop-color="#69DCFC"/>
</linearGradient>
<linearGradient id="paint3_linear_63_2673" x1="98.9779" y1="115.095" x2="89.5975" y2="125.912" gradientUnits="userSpaceOnUse">
<stop stop-color="#6CBCFC"/>
<stop offset="1" stop-color="#458DFC"/>
</linearGradient>
<linearGradient id="paint4_linear_63_2673" x1="129.385" y1="117.671" x2="105.887" y2="117.671" gradientUnits="userSpaceOnUse">
<stop stop-color="#6CBCFC"/>
<stop offset="1" stop-color="#458DFC"/>
</linearGradient>
<linearGradient id="paint5_linear_63_2673" x1="107.552" y1="123.532" x2="129.179" y2="123.532" gradientUnits="userSpaceOnUse">
<stop stop-color="#6CBCFC"/>
<stop offset="1" stop-color="#458DFC"/>
</linearGradient>
<clipPath id="clip0_63_2673">
<rect width="61.8574" height="85" fill="white" transform="translate(77 72)"/>
</clipPath>
</defs>
</svg>
