<svg width="450" height="454" viewBox="0 0 450 454" fill="none" xmlns="http://www.w3.org/2000/svg">
<g filter="url(#filter0_d_63_2663)">
<rect x="40" y="10" width="350" height="354" rx="20" fill="white"/>
</g>
<path d="M86.776 213.648C85.416 213.648 84.16 213.48 83.008 213.144C81.872 212.792 80.896 212.312 80.08 211.704L81.04 209.28C81.584 209.664 82.152 209.992 82.744 210.264C83.336 210.52 83.968 210.72 84.64 210.864C85.312 210.992 86.024 211.056 86.776 211.056C88.04 211.056 88.952 210.848 89.512 210.432C90.072 210.016 90.352 209.472 90.352 208.8C90.352 208.208 90.16 207.76 89.776 207.456C89.392 207.136 88.704 206.872 87.712 206.664L85 206.112C83.448 205.792 82.288 205.256 81.52 204.504C80.752 203.752 80.368 202.744 80.368 201.48C80.368 200.424 80.648 199.504 81.208 198.72C81.768 197.936 82.552 197.328 83.56 196.896C84.568 196.464 85.744 196.248 87.088 196.248C88.288 196.248 89.4 196.424 90.424 196.776C91.448 197.112 92.304 197.6 92.992 198.24L92.032 200.544C91.344 199.968 90.592 199.544 89.776 199.272C88.96 198.984 88.048 198.84 87.04 198.84C85.904 198.84 85.016 199.064 84.376 199.512C83.752 199.944 83.44 200.544 83.44 201.312C83.44 201.904 83.632 202.376 84.016 202.728C84.416 203.08 85.088 203.352 86.032 203.544L88.72 204.072C90.32 204.392 91.504 204.92 92.272 205.656C93.04 206.376 93.424 207.352 93.424 208.584C93.424 209.592 93.152 210.48 92.608 211.248C92.064 212 91.296 212.592 90.304 213.024C89.312 213.44 88.136 213.648 86.776 213.648ZM101.957 213.648C99.9248 213.648 98.3328 213.088 97.1808 211.968C96.0288 210.848 95.4528 209.312 95.4528 207.36C95.4528 206.096 95.7008 204.992 96.1968 204.048C96.6928 203.104 97.3808 202.368 98.2608 201.84C99.1568 201.312 100.197 201.048 101.381 201.048C102.549 201.048 103.525 201.296 104.309 201.792C105.093 202.288 105.685 202.984 106.085 203.88C106.501 204.776 106.709 205.824 106.709 207.024V207.816H97.8768V206.232H104.573L104.165 206.568C104.165 205.448 103.925 204.592 103.445 204C102.981 203.408 102.301 203.112 101.405 203.112C100.413 203.112 99.6448 203.464 99.1008 204.168C98.5728 204.872 98.3088 205.856 98.3088 207.12V207.432C98.3088 208.744 98.6288 209.728 99.2688 210.384C99.9248 211.024 100.845 211.344 102.029 211.344C102.717 211.344 103.357 211.256 103.949 211.08C104.557 210.888 105.133 210.584 105.677 210.168L106.565 212.184C105.989 212.648 105.301 213.008 104.501 213.264C103.701 213.52 102.853 213.648 101.957 213.648ZM113.929 213.648C112.873 213.648 111.945 213.4 111.145 212.904C110.345 212.392 109.721 211.664 109.273 210.72C108.825 209.776 108.601 208.648 108.601 207.336C108.601 206.024 108.825 204.904 109.273 203.976C109.721 203.032 110.345 202.312 111.145 201.816C111.945 201.304 112.873 201.048 113.929 201.048C114.953 201.048 115.849 201.304 116.617 201.816C117.401 202.312 117.921 202.984 118.177 203.832H117.913L118.177 201.288H121.057C121.009 201.784 120.961 202.288 120.913 202.8C120.881 203.312 120.865 203.816 120.865 204.312V213.408H117.889L117.865 210.912H118.153C117.897 211.744 117.377 212.408 116.593 212.904C115.809 213.4 114.921 213.648 113.929 213.648ZM114.769 211.344C115.713 211.344 116.473 211.016 117.049 210.36C117.625 209.688 117.913 208.68 117.913 207.336C117.913 205.992 117.625 204.992 117.049 204.336C116.473 203.68 115.713 203.352 114.769 203.352C113.825 203.352 113.065 203.68 112.489 204.336C111.913 204.992 111.625 205.992 111.625 207.336C111.625 208.68 111.905 209.688 112.465 210.36C113.041 211.016 113.809 211.344 114.769 211.344ZM124.108 213.408V204.384C124.108 203.872 124.092 203.352 124.06 202.824C124.044 202.296 124.004 201.784 123.94 201.288H126.844L127.18 204.6H126.7C126.86 203.8 127.124 203.136 127.492 202.608C127.876 202.08 128.34 201.688 128.884 201.432C129.428 201.176 130.02 201.048 130.66 201.048C130.948 201.048 131.18 201.064 131.356 201.096C131.532 201.112 131.708 201.152 131.884 201.216L131.86 203.856C131.556 203.728 131.292 203.648 131.068 203.616C130.86 203.584 130.596 203.568 130.276 203.568C129.588 203.568 129.004 203.712 128.524 204C128.06 204.288 127.708 204.688 127.468 205.2C127.244 205.712 127.132 206.296 127.132 206.952V213.408H124.108ZM138.934 213.648C137.686 213.648 136.59 213.392 135.646 212.88C134.718 212.368 133.998 211.64 133.486 210.696C132.974 209.736 132.718 208.6 132.718 207.288C132.718 205.976 132.974 204.856 133.486 203.928C134.014 203 134.742 202.288 135.67 201.792C136.598 201.296 137.686 201.048 138.934 201.048C139.734 201.048 140.51 201.176 141.262 201.432C142.03 201.672 142.654 202.024 143.134 202.488L142.222 204.576C141.79 204.176 141.302 203.88 140.758 203.688C140.23 203.48 139.71 203.376 139.198 203.376C138.126 203.376 137.286 203.712 136.678 204.384C136.086 205.056 135.79 206.032 135.79 207.312C135.79 208.592 136.086 209.576 136.678 210.264C137.286 210.952 138.126 211.296 139.198 211.296C139.694 211.296 140.206 211.2 140.734 211.008C141.278 210.816 141.774 210.52 142.222 210.12L143.134 212.184C142.638 212.648 142.006 213.008 141.238 213.264C140.486 213.52 139.718 213.648 138.934 213.648ZM145.46 213.408V195.744H148.46V203.712H148.124C148.492 202.848 149.06 202.192 149.828 201.744C150.596 201.28 151.476 201.048 152.468 201.048C153.908 201.048 154.98 201.456 155.684 202.272C156.388 203.072 156.74 204.296 156.74 205.944V213.408H153.74V206.088C153.74 205.144 153.556 204.464 153.188 204.048C152.836 203.616 152.268 203.4 151.484 203.4C150.572 203.4 149.836 203.688 149.276 204.264C148.732 204.824 148.46 205.576 148.46 206.52V213.408H145.46ZM171.211 213.648C170.155 213.648 169.219 213.4 168.403 212.904C167.603 212.392 166.979 211.664 166.531 210.72C166.083 209.776 165.859 208.648 165.859 207.336C165.859 206.024 166.083 204.904 166.531 203.976C166.979 203.032 167.603 202.312 168.403 201.816C169.219 201.304 170.155 201.048 171.211 201.048C172.219 201.048 173.107 201.296 173.875 201.792C174.659 202.272 175.179 202.928 175.435 203.76H175.123V195.744H178.123V213.408H175.171V210.84H175.459C175.203 211.704 174.683 212.392 173.899 212.904C173.131 213.4 172.235 213.648 171.211 213.648ZM172.051 211.344C172.995 211.344 173.755 211.016 174.331 210.36C174.907 209.688 175.195 208.68 175.195 207.336C175.195 205.992 174.907 204.992 174.331 204.336C173.755 203.68 172.995 203.352 172.051 203.352C171.107 203.352 170.339 203.68 169.747 204.336C169.171 204.992 168.883 205.992 168.883 207.336C168.883 208.68 169.171 209.688 169.747 210.36C170.339 211.016 171.107 211.344 172.051 211.344ZM186.862 213.648C185.614 213.648 184.534 213.392 183.622 212.88C182.71 212.368 181.998 211.64 181.486 210.696C180.99 209.752 180.742 208.632 180.742 207.336C180.742 206.04 180.99 204.928 181.486 204C181.998 203.056 182.71 202.328 183.622 201.816C184.534 201.304 185.614 201.048 186.862 201.048C188.11 201.048 189.19 201.304 190.102 201.816C191.03 202.328 191.742 203.056 192.238 204C192.75 204.928 193.006 206.04 193.006 207.336C193.006 208.632 192.75 209.752 192.238 210.696C191.742 211.64 191.03 212.368 190.102 212.88C189.19 213.392 188.11 213.648 186.862 213.648ZM186.862 211.344C187.806 211.344 188.558 211.016 189.118 210.36C189.678 209.688 189.958 208.68 189.958 207.336C189.958 205.992 189.678 204.992 189.118 204.336C188.558 203.68 187.806 203.352 186.862 203.352C185.918 203.352 185.166 203.68 184.606 204.336C184.046 204.992 183.766 205.992 183.766 207.336C183.766 208.68 184.046 209.688 184.606 210.36C185.166 211.016 185.918 211.344 186.862 211.344ZM201.161 213.648C199.913 213.648 198.817 213.392 197.873 212.88C196.945 212.368 196.225 211.64 195.713 210.696C195.201 209.736 194.945 208.6 194.945 207.288C194.945 205.976 195.201 204.856 195.713 203.928C196.241 203 196.969 202.288 197.897 201.792C198.825 201.296 199.913 201.048 201.161 201.048C201.961 201.048 202.737 201.176 203.489 201.432C204.257 201.672 204.881 202.024 205.361 202.488L204.449 204.576C204.017 204.176 203.529 203.88 202.985 203.688C202.457 203.48 201.937 203.376 201.425 203.376C200.353 203.376 199.513 203.712 198.905 204.384C198.313 205.056 198.017 206.032 198.017 207.312C198.017 208.592 198.313 209.576 198.905 210.264C199.513 210.952 200.353 211.296 201.425 211.296C201.921 211.296 202.433 211.2 202.961 211.008C203.505 210.816 204.001 210.52 204.449 210.12L205.361 212.184C204.865 212.648 204.233 213.008 203.465 213.264C202.713 213.52 201.945 213.648 201.161 213.648ZM212.918 213.648C211.478 213.648 210.39 213.272 209.654 212.52C208.918 211.768 208.55 210.64 208.55 209.136V203.544H206.222V201.288H208.55V198.192L211.55 197.424V201.288H214.79V203.544H211.55V208.944C211.55 209.776 211.71 210.36 212.03 210.696C212.35 211.032 212.79 211.2 213.35 211.2C213.654 211.2 213.91 211.176 214.118 211.128C214.342 211.08 214.558 211.016 214.766 210.936V213.312C214.494 213.424 214.19 213.504 213.854 213.552C213.534 213.616 213.222 213.648 212.918 213.648ZM222.182 213.648C220.934 213.648 219.854 213.392 218.942 212.88C218.03 212.368 217.318 211.64 216.806 210.696C216.31 209.752 216.062 208.632 216.062 207.336C216.062 206.04 216.31 204.928 216.806 204C217.318 203.056 218.03 202.328 218.942 201.816C219.854 201.304 220.934 201.048 222.182 201.048C223.43 201.048 224.51 201.304 225.422 201.816C226.35 202.328 227.062 203.056 227.558 204C228.07 204.928 228.326 206.04 228.326 207.336C228.326 208.632 228.07 209.752 227.558 210.696C227.062 211.64 226.35 212.368 225.422 212.88C224.51 213.392 223.43 213.648 222.182 213.648ZM222.182 211.344C223.126 211.344 223.878 211.016 224.438 210.36C224.998 209.688 225.278 208.68 225.278 207.336C225.278 205.992 224.998 204.992 224.438 204.336C223.878 203.68 223.126 203.352 222.182 203.352C221.238 203.352 220.486 203.68 219.926 204.336C219.366 204.992 219.086 205.992 219.086 207.336C219.086 208.68 219.366 209.688 219.926 210.36C220.486 211.016 221.238 211.344 222.182 211.344ZM230.889 213.408V204.384C230.889 203.872 230.873 203.352 230.841 202.824C230.825 202.296 230.785 201.784 230.721 201.288H233.625L233.961 204.6H233.481C233.641 203.8 233.905 203.136 234.273 202.608C234.657 202.08 235.121 201.688 235.665 201.432C236.209 201.176 236.801 201.048 237.441 201.048C237.729 201.048 237.961 201.064 238.137 201.096C238.313 201.112 238.489 201.152 238.665 201.216L238.641 203.856C238.337 203.728 238.073 203.648 237.849 203.616C237.641 203.584 237.377 203.568 237.057 203.568C236.369 203.568 235.785 203.712 235.305 204C234.841 204.288 234.489 204.688 234.249 205.2C234.025 205.712 233.913 206.296 233.913 206.952V213.408H230.889Z" fill="black"/>
<path d="M85.24 253.536C84.1307 253.536 83.1867 253.306 82.408 252.848C81.64 252.378 81.0533 251.712 80.648 250.848C80.2427 249.984 80.04 248.954 80.04 247.76C80.04 246.565 80.2427 245.541 80.648 244.688C81.0533 243.824 81.64 243.162 82.408 242.704C83.1867 242.234 84.1307 242 85.24 242C86.0507 242 86.7707 242.128 87.4 242.384C88.0293 242.629 88.5787 242.997 89.048 243.488L88.632 244.288C88.1093 243.808 87.5867 243.461 87.064 243.248C86.5413 243.024 85.9333 242.912 85.24 242.912C83.8853 242.912 82.856 243.338 82.152 244.192C81.448 245.034 81.096 246.224 81.096 247.76C81.096 249.296 81.448 250.49 82.152 251.344C82.856 252.197 83.8853 252.624 85.24 252.624C85.9333 252.624 86.5413 252.517 87.064 252.304C87.5867 252.08 88.1093 251.728 88.632 251.248L89.048 252.048C88.5787 252.538 88.024 252.912 87.384 253.168C86.7547 253.413 86.04 253.536 85.24 253.536ZM91.2655 253.408V241.632H92.2415V247.248H92.0495C92.2735 246.597 92.6522 246.101 93.1855 245.76C93.7188 245.418 94.3375 245.248 95.0415 245.248C96.0122 245.248 96.7268 245.504 97.1855 246.016C97.6548 246.528 97.8895 247.296 97.8895 248.32V253.408H96.9135V248.4C96.9135 247.589 96.7535 247.002 96.4335 246.64C96.1135 246.277 95.6015 246.096 94.8975 246.096C94.0975 246.096 93.4522 246.341 92.9615 246.832C92.4815 247.322 92.2415 247.973 92.2415 248.784V253.408H91.2655ZM103.684 253.536C102.926 253.536 102.27 253.37 101.716 253.04C101.172 252.709 100.75 252.234 100.452 251.616C100.153 250.997 100.004 250.256 100.004 249.392C100.004 248.538 100.153 247.802 100.452 247.184C100.75 246.565 101.172 246.09 101.716 245.76C102.27 245.418 102.926 245.248 103.684 245.248C104.43 245.248 105.076 245.418 105.62 245.76C106.174 246.09 106.601 246.565 106.9 247.184C107.209 247.802 107.364 248.538 107.364 249.392C107.364 250.256 107.209 250.997 106.9 251.616C106.601 252.234 106.174 252.709 105.62 253.04C105.076 253.37 104.43 253.536 103.684 253.536ZM103.684 252.704C104.494 252.704 105.145 252.421 105.636 251.856C106.126 251.29 106.372 250.469 106.372 249.392C106.372 248.314 106.126 247.493 105.636 246.928C105.145 246.362 104.494 246.08 103.684 246.08C102.862 246.08 102.206 246.362 101.716 246.928C101.236 247.493 100.996 248.314 100.996 249.392C100.996 250.469 101.236 251.29 101.716 251.856C102.206 252.421 102.862 252.704 103.684 252.704ZM112.668 253.536C111.911 253.536 111.255 253.37 110.7 253.04C110.156 252.709 109.735 252.234 109.436 251.616C109.137 250.997 108.988 250.256 108.988 249.392C108.988 248.538 109.137 247.802 109.436 247.184C109.735 246.565 110.156 246.09 110.7 245.76C111.255 245.418 111.911 245.248 112.668 245.248C113.415 245.248 114.06 245.418 114.604 245.76C115.159 246.09 115.585 246.565 115.884 247.184C116.193 247.802 116.348 248.538 116.348 249.392C116.348 250.256 116.193 250.997 115.884 251.616C115.585 252.234 115.159 252.709 114.604 253.04C114.06 253.37 113.415 253.536 112.668 253.536ZM112.668 252.704C113.479 252.704 114.129 252.421 114.62 251.856C115.111 251.29 115.356 250.469 115.356 249.392C115.356 248.314 115.111 247.493 114.62 246.928C114.129 246.362 113.479 246.08 112.668 246.08C111.847 246.08 111.191 246.362 110.7 246.928C110.22 247.493 109.98 248.314 109.98 249.392C109.98 250.469 110.22 251.29 110.7 251.856C111.191 252.421 111.847 252.704 112.668 252.704ZM121.076 253.536C120.458 253.536 119.876 253.445 119.332 253.264C118.799 253.082 118.356 252.832 118.004 252.512L118.388 251.792C118.783 252.112 119.21 252.352 119.668 252.512C120.127 252.661 120.607 252.736 121.108 252.736C121.791 252.736 122.308 252.608 122.66 252.352C123.012 252.096 123.188 251.749 123.188 251.312C123.188 250.97 123.076 250.693 122.852 250.48C122.628 250.266 122.255 250.106 121.732 250L120.292 249.696C119.61 249.536 119.098 249.28 118.756 248.928C118.426 248.576 118.26 248.133 118.26 247.6C118.26 247.141 118.378 246.736 118.612 246.384C118.858 246.032 119.204 245.754 119.652 245.552C120.1 245.349 120.628 245.248 121.236 245.248C121.812 245.248 122.34 245.344 122.82 245.536C123.311 245.717 123.711 245.978 124.02 246.32L123.604 247.024C123.284 246.704 122.922 246.464 122.516 246.304C122.122 246.144 121.7 246.064 121.252 246.064C120.591 246.064 120.09 246.202 119.748 246.48C119.407 246.746 119.236 247.104 119.236 247.552C119.236 247.893 119.343 248.176 119.556 248.4C119.77 248.613 120.106 248.773 120.564 248.88L122.004 249.2C122.73 249.36 123.268 249.605 123.62 249.936C123.972 250.266 124.148 250.704 124.148 251.248C124.148 251.717 124.02 252.128 123.764 252.48C123.508 252.821 123.151 253.082 122.692 253.264C122.234 253.445 121.695 253.536 121.076 253.536ZM129.831 253.536C128.615 253.536 127.649 253.173 126.935 252.448C126.231 251.722 125.879 250.714 125.879 249.424C125.879 248.57 126.033 247.834 126.343 247.216C126.663 246.597 127.105 246.117 127.671 245.776C128.236 245.424 128.892 245.248 129.639 245.248C130.353 245.248 130.956 245.402 131.447 245.712C131.937 246.01 132.316 246.442 132.583 247.008C132.849 247.562 132.983 248.224 132.983 248.992V249.44H126.583V248.736H132.375L132.103 248.944C132.103 248.037 131.895 247.328 131.479 246.816C131.063 246.293 130.444 246.032 129.623 246.032C128.748 246.032 128.065 246.336 127.575 246.944C127.084 247.541 126.839 248.336 126.839 249.328V249.44C126.839 250.506 127.1 251.317 127.623 251.872C128.156 252.426 128.897 252.704 129.847 252.704C130.337 252.704 130.796 252.629 131.223 252.48C131.649 252.33 132.06 252.074 132.455 251.712L132.855 252.432C132.513 252.784 132.071 253.056 131.527 253.248C130.983 253.44 130.417 253.536 129.831 253.536ZM138.788 257.04L138.548 256.192C139.049 256.074 139.465 255.93 139.796 255.76C140.127 255.6 140.404 255.386 140.628 255.12C140.852 254.853 141.049 254.522 141.22 254.128L141.636 253.168L141.62 253.6L138.116 245.392H139.204L142.26 252.8H141.86L144.884 245.392H145.94L142.228 254.176C142.025 254.666 141.801 255.072 141.556 255.392C141.321 255.722 141.065 255.994 140.788 256.208C140.511 256.432 140.207 256.608 139.876 256.736C139.545 256.864 139.183 256.965 138.788 257.04ZM150.637 253.536C149.879 253.536 149.223 253.37 148.669 253.04C148.125 252.709 147.703 252.234 147.405 251.616C147.106 250.997 146.957 250.256 146.957 249.392C146.957 248.538 147.106 247.802 147.405 247.184C147.703 246.565 148.125 246.09 148.669 245.76C149.223 245.418 149.879 245.248 150.637 245.248C151.383 245.248 152.029 245.418 152.573 245.76C153.127 246.09 153.554 246.565 153.853 247.184C154.162 247.802 154.317 248.538 154.317 249.392C154.317 250.256 154.162 250.997 153.853 251.616C153.554 252.234 153.127 252.709 152.573 253.04C152.029 253.37 151.383 253.536 150.637 253.536ZM150.637 252.704C151.447 252.704 152.098 252.421 152.589 251.856C153.079 251.29 153.325 250.469 153.325 249.392C153.325 248.314 153.079 247.493 152.589 246.928C152.098 246.362 151.447 246.08 150.637 246.08C149.815 246.08 149.159 246.362 148.669 246.928C148.189 247.493 147.949 248.314 147.949 249.392C147.949 250.469 148.189 251.29 148.669 251.856C149.159 252.421 149.815 252.704 150.637 252.704ZM159.269 253.536C158.33 253.536 157.616 253.285 157.125 252.784C156.645 252.272 156.405 251.488 156.405 250.432V245.392H157.381V250.368C157.381 251.178 157.546 251.77 157.877 252.144C158.208 252.517 158.714 252.704 159.397 252.704C160.154 252.704 160.762 252.458 161.221 251.968C161.69 251.466 161.925 250.805 161.925 249.984V245.392H162.901V253.408H161.941V251.52H162.149C161.925 252.17 161.557 252.672 161.045 253.024C160.544 253.365 159.952 253.536 159.269 253.536ZM165.546 253.408V247.264C165.546 246.954 165.536 246.645 165.514 246.336C165.504 246.016 165.477 245.701 165.434 245.392H166.394L166.522 247.232L166.33 247.248C166.437 246.8 166.629 246.432 166.906 246.144C167.184 245.845 167.504 245.621 167.866 245.472C168.229 245.322 168.602 245.248 168.986 245.248C169.125 245.248 169.253 245.258 169.37 245.28C169.498 245.29 169.616 245.312 169.722 245.344L169.69 246.224C169.562 246.181 169.434 246.154 169.306 246.144C169.178 246.133 169.04 246.128 168.89 246.128C168.41 246.128 167.989 246.245 167.626 246.48C167.274 246.714 167.002 247.013 166.81 247.376C166.618 247.738 166.522 248.106 166.522 248.48V253.408H165.546ZM178.243 253.536C177.528 253.536 176.904 253.37 176.371 253.04C175.837 252.709 175.427 252.234 175.139 251.616C174.851 250.997 174.707 250.256 174.707 249.392C174.707 248.528 174.851 247.792 175.139 247.184C175.427 246.565 175.837 246.09 176.371 245.76C176.904 245.418 177.528 245.248 178.243 245.248C178.979 245.248 179.613 245.44 180.147 245.824C180.691 246.197 181.053 246.714 181.235 247.376H181.043V241.632H182.019V253.408H181.059V251.392H181.235C181.053 252.064 180.691 252.592 180.147 252.976C179.613 253.349 178.979 253.536 178.243 253.536ZM178.371 252.704C179.181 252.704 179.832 252.421 180.323 251.856C180.824 251.29 181.075 250.469 181.075 249.392C181.075 248.314 180.824 247.493 180.323 246.928C179.832 246.362 179.181 246.08 178.371 246.08C177.56 246.08 176.909 246.362 176.419 246.928C175.939 247.493 175.699 248.314 175.699 249.392C175.699 250.469 175.939 251.29 176.419 251.856C176.909 252.421 177.56 252.704 178.371 252.704ZM187.84 253.536C187.082 253.536 186.426 253.37 185.872 253.04C185.328 252.709 184.906 252.234 184.608 251.616C184.309 250.997 184.16 250.256 184.16 249.392C184.16 248.538 184.309 247.802 184.608 247.184C184.906 246.565 185.328 246.09 185.872 245.76C186.426 245.418 187.082 245.248 187.84 245.248C188.586 245.248 189.232 245.418 189.776 245.76C190.33 246.09 190.757 246.565 191.056 247.184C191.365 247.802 191.52 248.538 191.52 249.392C191.52 250.256 191.365 250.997 191.056 251.616C190.757 252.234 190.33 252.709 189.776 253.04C189.232 253.37 188.586 253.536 187.84 253.536ZM187.84 252.704C188.65 252.704 189.301 252.421 189.792 251.856C190.282 251.29 190.528 250.469 190.528 249.392C190.528 248.314 190.282 247.493 189.792 246.928C189.301 246.362 188.65 246.08 187.84 246.08C187.018 246.08 186.362 246.362 185.872 246.928C185.392 247.493 185.152 248.314 185.152 249.392C185.152 250.469 185.392 251.29 185.872 251.856C186.362 252.421 187.018 252.704 187.84 252.704ZM196.888 253.536C196.131 253.536 195.469 253.37 194.904 253.04C194.339 252.698 193.901 252.213 193.592 251.584C193.293 250.954 193.144 250.208 193.144 249.344C193.144 248.48 193.299 247.744 193.608 247.136C193.917 246.517 194.349 246.048 194.904 245.728C195.469 245.408 196.131 245.248 196.888 245.248C197.4 245.248 197.891 245.344 198.36 245.536C198.84 245.728 199.235 245.994 199.544 246.336L199.144 247.056C198.813 246.725 198.456 246.485 198.072 246.336C197.688 246.176 197.304 246.096 196.92 246.096C196.045 246.096 195.363 246.373 194.872 246.928C194.381 247.482 194.136 248.293 194.136 249.36C194.136 250.426 194.381 251.253 194.872 251.84C195.363 252.416 196.045 252.704 196.92 252.704C197.283 252.704 197.656 252.629 198.04 252.48C198.435 252.33 198.803 252.085 199.144 251.744L199.544 252.464C199.224 252.805 198.819 253.072 198.328 253.264C197.848 253.445 197.368 253.536 196.888 253.536ZM204.108 253.536C203.393 253.536 202.844 253.322 202.46 252.896C202.086 252.469 201.9 251.813 201.9 250.928V246.176H200.3V245.392H201.9V243.152L202.876 242.832V245.392H205.244V246.176H202.876V250.784C202.876 251.456 202.982 251.941 203.196 252.24C203.409 252.538 203.75 252.688 204.22 252.688C204.433 252.688 204.62 252.666 204.78 252.624C204.95 252.581 205.094 252.533 205.212 252.48V253.344C205.084 253.397 204.918 253.44 204.716 253.472C204.513 253.514 204.31 253.536 204.108 253.536ZM209.996 253.536C209.239 253.536 208.583 253.37 208.028 253.04C207.484 252.709 207.063 252.234 206.764 251.616C206.465 250.997 206.316 250.256 206.316 249.392C206.316 248.538 206.465 247.802 206.764 247.184C207.063 246.565 207.484 246.09 208.028 245.76C208.583 245.418 209.239 245.248 209.996 245.248C210.743 245.248 211.388 245.418 211.932 245.76C212.487 246.09 212.913 246.565 213.212 247.184C213.521 247.802 213.676 248.538 213.676 249.392C213.676 250.256 213.521 250.997 213.212 251.616C212.913 252.234 212.487 252.709 211.932 253.04C211.388 253.37 210.743 253.536 209.996 253.536ZM209.996 252.704C210.807 252.704 211.457 252.421 211.948 251.856C212.439 251.29 212.684 250.469 212.684 249.392C212.684 248.314 212.439 247.493 211.948 246.928C211.457 246.362 210.807 246.08 209.996 246.08C209.175 246.08 208.519 246.362 208.028 246.928C207.548 247.493 207.308 248.314 207.308 249.392C207.308 250.469 207.548 251.29 208.028 251.856C208.519 252.421 209.175 252.704 209.996 252.704ZM215.796 253.408V247.264C215.796 246.954 215.786 246.645 215.764 246.336C215.754 246.016 215.727 245.701 215.684 245.392H216.644L216.772 247.232L216.58 247.248C216.687 246.8 216.879 246.432 217.156 246.144C217.434 245.845 217.754 245.621 218.116 245.472C218.479 245.322 218.852 245.248 219.236 245.248C219.375 245.248 219.503 245.258 219.62 245.28C219.748 245.29 219.866 245.312 219.972 245.344L219.94 246.224C219.812 246.181 219.684 246.154 219.556 246.144C219.428 246.133 219.29 246.128 219.14 246.128C218.66 246.128 218.239 246.245 217.876 246.48C217.524 246.714 217.252 247.013 217.06 247.376C216.868 247.738 216.772 248.106 216.772 248.48V253.408H215.796ZM225.853 253.408V246.176H224.253V245.392H226.093L225.853 245.648V244.256C225.853 243.402 226.066 242.741 226.493 242.272C226.919 241.802 227.527 241.568 228.317 241.568C228.519 241.568 228.727 241.589 228.941 241.632C229.154 241.664 229.33 241.706 229.469 241.76V242.624C229.341 242.57 229.186 242.522 229.005 242.48C228.823 242.437 228.631 242.416 228.429 242.416C228.077 242.416 227.778 242.49 227.533 242.64C227.298 242.789 227.117 243.008 226.989 243.296C226.871 243.573 226.813 243.93 226.813 244.368V245.648L226.653 245.392H229.117V246.176H226.829V253.408H225.853ZM230.64 253.408V247.264C230.64 246.954 230.629 246.645 230.608 246.336C230.597 246.016 230.571 245.701 230.528 245.392H231.488L231.616 247.232L231.424 247.248C231.531 246.8 231.723 246.432 232 246.144C232.277 245.845 232.597 245.621 232.96 245.472C233.323 245.322 233.696 245.248 234.08 245.248C234.219 245.248 234.347 245.258 234.464 245.28C234.592 245.29 234.709 245.312 234.816 245.344L234.784 246.224C234.656 246.181 234.528 246.154 234.4 246.144C234.272 246.133 234.133 246.128 233.984 246.128C233.504 246.128 233.083 246.245 232.72 246.48C232.368 246.714 232.096 247.013 231.904 247.376C231.712 247.738 231.616 248.106 231.616 248.48V253.408H230.64ZM239.309 253.536C238.551 253.536 237.895 253.37 237.341 253.04C236.797 252.709 236.375 252.234 236.077 251.616C235.778 250.997 235.629 250.256 235.629 249.392C235.629 248.538 235.778 247.802 236.077 247.184C236.375 246.565 236.797 246.09 237.341 245.76C237.895 245.418 238.551 245.248 239.309 245.248C240.055 245.248 240.701 245.418 241.245 245.76C241.799 246.09 242.226 246.565 242.525 247.184C242.834 247.802 242.989 248.538 242.989 249.392C242.989 250.256 242.834 250.997 242.525 251.616C242.226 252.234 241.799 252.709 241.245 253.04C240.701 253.37 240.055 253.536 239.309 253.536ZM239.309 252.704C240.119 252.704 240.77 252.421 241.261 251.856C241.751 251.29 241.997 250.469 241.997 249.392C241.997 248.314 241.751 247.493 241.261 246.928C240.77 246.362 240.119 246.08 239.309 246.08C238.487 246.08 237.831 246.362 237.341 246.928C236.861 247.493 236.621 248.314 236.621 249.392C236.621 250.469 236.861 251.29 237.341 251.856C237.831 252.421 238.487 252.704 239.309 252.704ZM245.125 253.408V247.184C245.125 246.896 245.114 246.602 245.093 246.304C245.072 246.005 245.04 245.701 244.997 245.392H245.957L246.101 247.232H245.909C246.112 246.602 246.448 246.117 246.917 245.776C247.386 245.424 247.957 245.248 248.629 245.248C249.312 245.248 249.866 245.413 250.293 245.744C250.72 246.074 251.002 246.586 251.141 247.28H250.901C251.093 246.661 251.445 246.17 251.957 245.808C252.469 245.434 253.072 245.248 253.765 245.248C254.64 245.248 255.301 245.498 255.749 246C256.197 246.501 256.421 247.285 256.421 248.352V253.408H255.445V248.416C255.445 247.605 255.301 247.018 255.013 246.656C254.725 246.282 254.256 246.096 253.605 246.096C252.88 246.096 252.304 246.341 251.877 246.832C251.461 247.322 251.253 247.984 251.253 248.816V253.408H250.277V248.416C250.277 247.605 250.133 247.018 249.845 246.656C249.557 246.282 249.093 246.096 248.453 246.096C247.728 246.096 247.152 246.341 246.725 246.832C246.309 247.322 246.101 247.984 246.101 248.816V253.408H245.125ZM265.701 253.536C264.987 253.536 264.437 253.322 264.053 252.896C263.68 252.469 263.493 251.813 263.493 250.928V246.176H261.893V245.392H263.493V243.152L264.469 242.832V245.392H266.837V246.176H264.469V250.784C264.469 251.456 264.576 251.941 264.789 252.24C265.003 252.538 265.344 252.688 265.813 252.688C266.027 252.688 266.213 252.666 266.373 252.624C266.544 252.581 266.688 252.533 266.805 252.48V253.344C266.677 253.397 266.512 253.44 266.309 253.472C266.107 253.514 265.904 253.536 265.701 253.536ZM268.5 253.408V241.632H269.476V247.248H269.284C269.508 246.597 269.887 246.101 270.42 245.76C270.953 245.418 271.572 245.248 272.276 245.248C273.247 245.248 273.961 245.504 274.42 246.016C274.889 246.528 275.124 247.296 275.124 248.32V253.408H274.148V248.4C274.148 247.589 273.988 247.002 273.668 246.64C273.348 246.277 272.836 246.096 272.132 246.096C271.332 246.096 270.687 246.341 270.196 246.832C269.716 247.322 269.476 247.973 269.476 248.784V253.408H268.5ZM280.918 253.536C280.161 253.536 279.505 253.37 278.95 253.04C278.406 252.709 277.985 252.234 277.686 251.616C277.387 250.997 277.238 250.256 277.238 249.392C277.238 248.538 277.387 247.802 277.686 247.184C277.985 246.565 278.406 246.09 278.95 245.76C279.505 245.418 280.161 245.248 280.918 245.248C281.665 245.248 282.31 245.418 282.854 245.76C283.409 246.09 283.835 246.565 284.134 247.184C284.443 247.802 284.598 248.538 284.598 249.392C284.598 250.256 284.443 250.997 284.134 251.616C283.835 252.234 283.409 252.709 282.854 253.04C282.31 253.37 281.665 253.536 280.918 253.536ZM280.918 252.704C281.729 252.704 282.379 252.421 282.87 251.856C283.361 251.29 283.606 250.469 283.606 249.392C283.606 248.314 283.361 247.493 282.87 246.928C282.379 246.362 281.729 246.08 280.918 246.08C280.097 246.08 279.441 246.362 278.95 246.928C278.47 247.493 278.23 248.314 278.23 249.392C278.23 250.469 278.47 251.29 278.95 251.856C279.441 252.421 280.097 252.704 280.918 252.704ZM289.55 253.536C288.612 253.536 287.897 253.285 287.406 252.784C286.926 252.272 286.686 251.488 286.686 250.432V245.392H287.662V250.368C287.662 251.178 287.828 251.77 288.158 252.144C288.489 252.517 288.996 252.704 289.678 252.704C290.436 252.704 291.044 252.458 291.502 251.968C291.972 251.466 292.206 250.805 292.206 249.984V245.392H293.182V253.408H292.222V251.52H292.43C292.206 252.17 291.838 252.672 291.326 253.024C290.825 253.365 290.233 253.536 289.55 253.536ZM298.436 253.536C297.817 253.536 297.236 253.445 296.692 253.264C296.158 253.082 295.716 252.832 295.364 252.512L295.748 251.792C296.142 252.112 296.569 252.352 297.028 252.512C297.486 252.661 297.966 252.736 298.468 252.736C299.15 252.736 299.668 252.608 300.02 252.352C300.372 252.096 300.548 251.749 300.548 251.312C300.548 250.97 300.436 250.693 300.212 250.48C299.988 250.266 299.614 250.106 299.092 250L297.652 249.696C296.969 249.536 296.457 249.28 296.116 248.928C295.785 248.576 295.62 248.133 295.62 247.6C295.62 247.141 295.737 246.736 295.972 246.384C296.217 246.032 296.564 245.754 297.012 245.552C297.46 245.349 297.988 245.248 298.596 245.248C299.172 245.248 299.7 245.344 300.18 245.536C300.67 245.717 301.07 245.978 301.38 246.32L300.964 247.024C300.644 246.704 300.281 246.464 299.876 246.304C299.481 246.144 299.06 246.064 298.612 246.064C297.95 246.064 297.449 246.202 297.108 246.48C296.766 246.746 296.596 247.104 296.596 247.552C296.596 247.893 296.702 248.176 296.916 248.4C297.129 248.613 297.465 248.773 297.924 248.88L299.364 249.2C300.089 249.36 300.628 249.605 300.98 249.936C301.332 250.266 301.508 250.704 301.508 251.248C301.508 251.717 301.38 252.128 301.124 252.48C300.868 252.821 300.51 253.082 300.052 253.264C299.593 253.445 299.054 253.536 298.436 253.536ZM306.79 253.536C306.065 253.536 305.435 253.37 304.902 253.04C304.369 252.709 303.958 252.234 303.67 251.616C303.382 250.997 303.238 250.256 303.238 249.392C303.238 248.528 303.382 247.792 303.67 247.184C303.969 246.565 304.385 246.09 304.918 245.76C305.451 245.418 306.075 245.248 306.79 245.248C307.526 245.248 308.161 245.44 308.694 245.824C309.238 246.208 309.595 246.73 309.766 247.392H309.574L309.734 245.392H310.678C310.646 245.701 310.614 246.005 310.582 246.304C310.561 246.602 310.55 246.896 310.55 247.184V253.408H309.574V251.408H309.75C309.579 252.069 309.222 252.592 308.678 252.976C308.145 253.349 307.515 253.536 306.79 253.536ZM306.918 252.704C307.739 252.704 308.39 252.421 308.87 251.856C309.35 251.29 309.59 250.469 309.59 249.392C309.59 248.314 309.35 247.493 308.87 246.928C308.39 246.362 307.739 246.08 306.918 246.08C306.097 246.08 305.441 246.362 304.95 246.928C304.47 247.493 304.23 248.314 304.23 249.392C304.23 250.469 304.47 251.29 304.95 251.856C305.441 252.421 306.097 252.704 306.918 252.704ZM313.203 253.408V247.184C313.203 246.896 313.192 246.602 313.171 246.304C313.15 246.005 313.118 245.701 313.075 245.392H314.035L314.179 247.232H313.987C314.222 246.592 314.6 246.101 315.123 245.76C315.646 245.418 316.254 245.248 316.947 245.248C317.896 245.248 318.611 245.498 319.091 246C319.582 246.501 319.827 247.285 319.827 248.352V253.408H318.851V248.432C318.851 247.61 318.686 247.018 318.355 246.656C318.024 246.282 317.512 246.096 316.819 246.096C316.008 246.096 315.363 246.341 314.883 246.832C314.414 247.322 314.179 247.984 314.179 248.816V253.408H313.203ZM325.477 253.536C324.762 253.536 324.138 253.37 323.605 253.04C323.072 252.709 322.661 252.234 322.373 251.616C322.085 250.997 321.941 250.256 321.941 249.392C321.941 248.528 322.085 247.792 322.373 247.184C322.661 246.565 323.072 246.09 323.605 245.76C324.138 245.418 324.762 245.248 325.477 245.248C326.213 245.248 326.848 245.44 327.381 245.824C327.925 246.197 328.288 246.714 328.469 247.376H328.277V241.632H329.253V253.408H328.293V251.392H328.469C328.288 252.064 327.925 252.592 327.381 252.976C326.848 253.349 326.213 253.536 325.477 253.536ZM325.605 252.704C326.416 252.704 327.066 252.421 327.557 251.856C328.058 251.29 328.309 250.469 328.309 249.392C328.309 248.314 328.058 247.493 327.557 246.928C327.066 246.362 326.416 246.08 325.605 246.08C324.794 246.08 324.144 246.362 323.653 246.928C323.173 247.493 322.933 248.314 322.933 249.392C322.933 250.469 323.173 251.29 323.653 251.856C324.144 252.421 324.794 252.704 325.605 252.704ZM334.498 253.536C333.879 253.536 333.298 253.445 332.754 253.264C332.221 253.082 331.778 252.832 331.426 252.512L331.81 251.792C332.205 252.112 332.631 252.352 333.09 252.512C333.549 252.661 334.029 252.736 334.53 252.736C335.213 252.736 335.73 252.608 336.082 252.352C336.434 252.096 336.61 251.749 336.61 251.312C336.61 250.97 336.498 250.693 336.274 250.48C336.05 250.266 335.677 250.106 335.154 250L333.714 249.696C333.031 249.536 332.519 249.28 332.178 248.928C331.847 248.576 331.682 248.133 331.682 247.6C331.682 247.141 331.799 246.736 332.034 246.384C332.279 246.032 332.626 245.754 333.074 245.552C333.522 245.349 334.05 245.248 334.658 245.248C335.234 245.248 335.762 245.344 336.242 245.536C336.733 245.717 337.133 245.978 337.442 246.32L337.026 247.024C336.706 246.704 336.343 246.464 335.938 246.304C335.543 246.144 335.122 246.064 334.674 246.064C334.013 246.064 333.511 246.202 333.17 246.48C332.829 246.746 332.658 247.104 332.658 247.552C332.658 247.893 332.765 248.176 332.978 248.4C333.191 248.613 333.527 248.773 333.986 248.88L335.426 249.2C336.151 249.36 336.69 249.605 337.042 249.936C337.394 250.266 337.57 250.704 337.57 251.248C337.57 251.717 337.442 252.128 337.186 252.48C336.93 252.821 336.573 253.082 336.114 253.264C335.655 253.445 335.117 253.536 334.498 253.536ZM83.496 281.536C82.7387 281.536 82.0827 281.37 81.528 281.04C80.984 280.709 80.5627 280.234 80.264 279.616C79.9653 278.997 79.816 278.256 79.816 277.392C79.816 276.538 79.9653 275.802 80.264 275.184C80.5627 274.565 80.984 274.09 81.528 273.76C82.0827 273.418 82.7387 273.248 83.496 273.248C84.2427 273.248 84.888 273.418 85.432 273.76C85.9867 274.09 86.4133 274.565 86.712 275.184C87.0213 275.802 87.176 276.538 87.176 277.392C87.176 278.256 87.0213 278.997 86.712 279.616C86.4133 280.234 85.9867 280.709 85.432 281.04C84.888 281.37 84.2427 281.536 83.496 281.536ZM83.496 280.704C84.3067 280.704 84.9573 280.421 85.448 279.856C85.9387 279.29 86.184 278.469 86.184 277.392C86.184 276.314 85.9387 275.493 85.448 274.928C84.9573 274.362 84.3067 274.08 83.496 274.08C82.6747 274.08 82.0187 274.362 81.528 274.928C81.048 275.493 80.808 276.314 80.808 277.392C80.808 278.469 81.048 279.29 81.528 279.856C82.0187 280.421 82.6747 280.704 83.496 280.704ZM89.6183 281.408V274.176H88.0183V273.392H89.8583L89.6183 273.648V272.256C89.6183 271.402 89.8316 270.741 90.2582 270.272C90.6849 269.802 91.2929 269.568 92.0823 269.568C92.2849 269.568 92.4929 269.589 92.7063 269.632C92.9196 269.664 93.0956 269.706 93.2343 269.76V270.624C93.1063 270.57 92.9516 270.522 92.7703 270.48C92.5889 270.437 92.3969 270.416 92.1943 270.416C91.8423 270.416 91.5436 270.49 91.2983 270.64C91.0636 270.789 90.8823 271.008 90.7543 271.296C90.6369 271.573 90.5783 271.93 90.5783 272.368V273.648L90.4183 273.392H92.8823V274.176H90.5943V281.408H89.6183ZM101.092 281.536C100.473 281.536 99.8919 281.445 99.3479 281.264C98.8145 281.082 98.3719 280.832 98.0199 280.512L98.4039 279.792C98.7985 280.112 99.2252 280.352 99.6839 280.512C100.143 280.661 100.623 280.736 101.124 280.736C101.807 280.736 102.324 280.608 102.676 280.352C103.028 280.096 103.204 279.749 103.204 279.312C103.204 278.97 103.092 278.693 102.868 278.48C102.644 278.266 102.271 278.106 101.748 278L100.308 277.696C99.6252 277.536 99.1132 277.28 98.7719 276.928C98.4412 276.576 98.2759 276.133 98.2759 275.6C98.2759 275.141 98.3932 274.736 98.6279 274.384C98.8732 274.032 99.2199 273.754 99.6679 273.552C100.116 273.349 100.644 273.248 101.252 273.248C101.828 273.248 102.356 273.344 102.836 273.536C103.327 273.717 103.727 273.978 104.036 274.32L103.62 275.024C103.3 274.704 102.937 274.464 102.532 274.304C102.137 274.144 101.716 274.064 101.268 274.064C100.607 274.064 100.105 274.202 99.7639 274.48C99.4225 274.746 99.2519 275.104 99.2519 275.552C99.2519 275.893 99.3585 276.176 99.5719 276.4C99.7852 276.613 100.121 276.773 100.58 276.88L102.02 277.2C102.745 277.36 103.284 277.605 103.636 277.936C103.988 278.266 104.164 278.704 104.164 279.248C104.164 279.717 104.036 280.128 103.78 280.48C103.524 280.821 103.167 281.082 102.708 281.264C102.249 281.445 101.711 281.536 101.092 281.536ZM106.406 284.864V275.184C106.406 274.896 106.395 274.602 106.374 274.304C106.353 274.005 106.321 273.701 106.278 273.392H107.238L107.398 275.392H107.206C107.387 274.73 107.739 274.208 108.262 273.824C108.785 273.44 109.419 273.248 110.166 273.248C110.891 273.248 111.515 273.418 112.038 273.76C112.571 274.09 112.987 274.565 113.286 275.184C113.585 275.792 113.734 276.528 113.734 277.392C113.734 278.256 113.585 278.997 113.286 279.616C112.998 280.234 112.587 280.709 112.054 281.04C111.521 281.37 110.891 281.536 110.166 281.536C109.43 281.536 108.795 281.349 108.262 280.976C107.739 280.592 107.387 280.069 107.206 279.408H107.382V284.864H106.406ZM110.038 280.704C110.859 280.704 111.515 280.421 112.006 279.856C112.497 279.29 112.742 278.469 112.742 277.392C112.742 276.314 112.497 275.493 112.006 274.928C111.515 274.362 110.859 274.08 110.038 274.08C109.227 274.08 108.577 274.362 108.086 274.928C107.606 275.493 107.366 276.314 107.366 277.392C107.366 278.469 107.606 279.29 108.086 279.856C108.577 280.421 109.227 280.704 110.038 280.704ZM119.299 281.536C118.083 281.536 117.118 281.173 116.403 280.448C115.699 279.722 115.347 278.714 115.347 277.424C115.347 276.57 115.502 275.834 115.811 275.216C116.131 274.597 116.574 274.117 117.139 273.776C117.705 273.424 118.361 273.248 119.107 273.248C119.822 273.248 120.425 273.402 120.915 273.712C121.406 274.01 121.785 274.442 122.051 275.008C122.318 275.562 122.451 276.224 122.451 276.992V277.44H116.051V276.736H121.843L121.571 276.944C121.571 276.037 121.363 275.328 120.947 274.816C120.531 274.293 119.913 274.032 119.091 274.032C118.217 274.032 117.534 274.336 117.043 274.944C116.553 275.541 116.307 276.336 116.307 277.328V277.44C116.307 278.506 116.569 279.317 117.091 279.872C117.625 280.426 118.366 280.704 119.315 280.704C119.806 280.704 120.265 280.629 120.691 280.48C121.118 280.33 121.529 280.074 121.923 279.712L122.323 280.432C121.982 280.784 121.539 281.056 120.995 281.248C120.451 281.44 119.886 281.536 119.299 281.536ZM127.779 281.536C127.021 281.536 126.36 281.37 125.795 281.04C125.229 280.698 124.792 280.213 124.483 279.584C124.184 278.954 124.035 278.208 124.035 277.344C124.035 276.48 124.189 275.744 124.499 275.136C124.808 274.517 125.24 274.048 125.795 273.728C126.36 273.408 127.021 273.248 127.779 273.248C128.291 273.248 128.781 273.344 129.251 273.536C129.731 273.728 130.125 273.994 130.435 274.336L130.035 275.056C129.704 274.725 129.347 274.485 128.963 274.336C128.579 274.176 128.195 274.096 127.811 274.096C126.936 274.096 126.253 274.373 125.763 274.928C125.272 275.482 125.027 276.293 125.027 277.36C125.027 278.426 125.272 279.253 125.763 279.84C126.253 280.416 126.936 280.704 127.811 280.704C128.173 280.704 128.547 280.629 128.931 280.48C129.325 280.33 129.693 280.085 130.035 279.744L130.435 280.464C130.115 280.805 129.709 281.072 129.219 281.264C128.739 281.445 128.259 281.536 127.779 281.536ZM132.406 281.408V273.392H133.382V281.408H132.406ZM132.246 271.424V270.208H133.558V271.424H132.246ZM139.087 281.536C138.361 281.536 137.732 281.37 137.199 281.04C136.665 280.709 136.255 280.234 135.967 279.616C135.679 278.997 135.535 278.256 135.535 277.392C135.535 276.528 135.679 275.792 135.967 275.184C136.265 274.565 136.681 274.09 137.215 273.76C137.748 273.418 138.372 273.248 139.087 273.248C139.823 273.248 140.457 273.44 140.991 273.824C141.535 274.208 141.892 274.73 142.063 275.392H141.871L142.031 273.392H142.975C142.943 273.701 142.911 274.005 142.879 274.304C142.857 274.602 142.847 274.896 142.847 275.184V281.408H141.871V279.408H142.047C141.876 280.069 141.519 280.592 140.975 280.976C140.441 281.349 139.812 281.536 139.087 281.536ZM139.215 280.704C140.036 280.704 140.687 280.421 141.167 279.856C141.647 279.29 141.887 278.469 141.887 277.392C141.887 276.314 141.647 275.493 141.167 274.928C140.687 274.362 140.036 274.08 139.215 274.08C138.393 274.08 137.737 274.362 137.247 274.928C136.767 275.493 136.527 276.314 136.527 277.392C136.527 278.469 136.767 279.29 137.247 279.856C137.737 280.421 138.393 280.704 139.215 280.704ZM145.5 281.408V269.632H146.476V281.408H145.5ZM149.141 281.408V273.392H150.117V281.408H149.141ZM148.981 271.424V270.208H150.293V271.424H148.981ZM155.373 281.536C154.754 281.536 154.173 281.445 153.629 281.264C153.096 281.082 152.653 280.832 152.301 280.512L152.685 279.792C153.08 280.112 153.506 280.352 153.965 280.512C154.424 280.661 154.904 280.736 155.405 280.736C156.088 280.736 156.605 280.608 156.957 280.352C157.309 280.096 157.485 279.749 157.485 279.312C157.485 278.97 157.373 278.693 157.149 278.48C156.925 278.266 156.552 278.106 156.029 278L154.589 277.696C153.906 277.536 153.394 277.28 153.053 276.928C152.722 276.576 152.557 276.133 152.557 275.6C152.557 275.141 152.674 274.736 152.909 274.384C153.154 274.032 153.501 273.754 153.949 273.552C154.397 273.349 154.925 273.248 155.533 273.248C156.109 273.248 156.637 273.344 157.117 273.536C157.608 273.717 158.008 273.978 158.317 274.32L157.901 275.024C157.581 274.704 157.218 274.464 156.813 274.304C156.418 274.144 155.997 274.064 155.549 274.064C154.888 274.064 154.386 274.202 154.045 274.48C153.704 274.746 153.533 275.104 153.533 275.552C153.533 275.893 153.64 276.176 153.853 276.4C154.066 276.613 154.402 276.773 154.861 276.88L156.301 277.2C157.026 277.36 157.565 277.605 157.917 277.936C158.269 278.266 158.445 278.704 158.445 279.248C158.445 279.717 158.317 280.128 158.061 280.48C157.805 280.821 157.448 281.082 156.989 281.264C156.53 281.445 155.992 281.536 155.373 281.536ZM163.201 281.536C162.487 281.536 161.937 281.322 161.553 280.896C161.18 280.469 160.993 279.813 160.993 278.928V274.176H159.393V273.392H160.993V271.152L161.969 270.832V273.392H164.337V274.176H161.969V278.784C161.969 279.456 162.076 279.941 162.289 280.24C162.503 280.538 162.844 280.688 163.313 280.688C163.527 280.688 163.713 280.666 163.873 280.624C164.044 280.581 164.188 280.533 164.305 280.48V281.344C164.177 281.397 164.012 281.44 163.809 281.472C163.607 281.514 163.404 281.536 163.201 281.536ZM166.459 283.104L165.963 282.704C166.219 282.426 166.385 282.17 166.459 281.936C166.534 281.701 166.571 281.466 166.571 281.232L166.795 281.408H165.931V280.032H167.291V281.056C167.291 281.429 167.233 281.786 167.115 282.128C166.998 282.469 166.779 282.794 166.459 283.104ZM177.222 284.976C176.55 284.976 175.92 284.885 175.334 284.704C174.758 284.522 174.24 284.25 173.782 283.888L174.134 283.136C174.475 283.381 174.8 283.573 175.11 283.712C175.43 283.861 175.76 283.968 176.102 284.032C176.443 284.106 176.811 284.144 177.206 284.144C178.016 284.144 178.63 283.925 179.046 283.488C179.462 283.061 179.67 282.442 179.67 281.632V279.088H179.846C179.675 279.76 179.318 280.288 178.774 280.672C178.23 281.045 177.59 281.232 176.854 281.232C176.118 281.232 175.478 281.072 174.934 280.752C174.4 280.421 173.984 279.957 173.686 279.36C173.398 278.752 173.254 278.042 173.254 277.232C173.254 276.421 173.398 275.717 173.686 275.12C173.984 274.522 174.4 274.064 174.934 273.744C175.478 273.413 176.118 273.248 176.854 273.248C177.59 273.248 178.23 273.44 178.774 273.824C179.318 274.197 179.675 274.725 179.846 275.408L179.67 275.232L179.814 273.392H180.774C180.731 273.701 180.699 274.005 180.678 274.304C180.656 274.602 180.646 274.896 180.646 275.184V281.488C180.646 282.64 180.352 283.509 179.766 284.096C179.19 284.682 178.342 284.976 177.222 284.976ZM176.966 280.4C177.798 280.4 178.454 280.122 178.934 279.568C179.424 279.013 179.67 278.234 179.67 277.232C179.67 276.24 179.424 275.466 178.934 274.912C178.454 274.357 177.798 274.08 176.966 274.08C176.134 274.08 175.472 274.357 174.982 274.912C174.491 275.466 174.246 276.24 174.246 277.232C174.246 278.234 174.491 279.013 174.982 279.568C175.472 280.122 176.134 280.4 176.966 280.4ZM186.721 281.536C185.505 281.536 184.54 281.173 183.825 280.448C183.121 279.722 182.769 278.714 182.769 277.424C182.769 276.57 182.924 275.834 183.233 275.216C183.553 274.597 183.996 274.117 184.561 273.776C185.126 273.424 185.782 273.248 186.529 273.248C187.244 273.248 187.846 273.402 188.337 273.712C188.828 274.01 189.206 274.442 189.473 275.008C189.74 275.562 189.873 276.224 189.873 276.992V277.44H183.473V276.736H189.265L188.993 276.944C188.993 276.037 188.785 275.328 188.369 274.816C187.953 274.293 187.334 274.032 186.513 274.032C185.638 274.032 184.956 274.336 184.465 274.944C183.974 275.541 183.729 276.336 183.729 277.328V277.44C183.729 278.506 183.99 279.317 184.513 279.872C185.046 280.426 185.788 280.704 186.737 280.704C187.228 280.704 187.686 280.629 188.113 280.48C188.54 280.33 188.95 280.074 189.345 279.712L189.745 280.432C189.404 280.784 188.961 281.056 188.417 281.248C187.873 281.44 187.308 281.536 186.721 281.536ZM191.969 281.408V275.184C191.969 274.896 191.958 274.602 191.937 274.304C191.915 274.005 191.883 273.701 191.841 273.392H192.801L192.945 275.232H192.753C192.987 274.592 193.366 274.101 193.889 273.76C194.411 273.418 195.019 273.248 195.713 273.248C196.662 273.248 197.377 273.498 197.857 274C198.347 274.501 198.593 275.285 198.593 276.352V281.408H197.617V276.432C197.617 275.61 197.451 275.018 197.121 274.656C196.79 274.282 196.278 274.096 195.585 274.096C194.774 274.096 194.129 274.341 193.649 274.832C193.179 275.322 192.945 275.984 192.945 276.816V281.408H191.969ZM204.659 281.536C203.443 281.536 202.477 281.173 201.763 280.448C201.059 279.722 200.707 278.714 200.707 277.424C200.707 276.57 200.861 275.834 201.171 275.216C201.491 274.597 201.933 274.117 202.499 273.776C203.064 273.424 203.72 273.248 204.467 273.248C205.181 273.248 205.784 273.402 206.275 273.712C206.765 274.01 207.144 274.442 207.411 275.008C207.677 275.562 207.811 276.224 207.811 276.992V277.44H201.411V276.736H207.203L206.931 276.944C206.931 276.037 206.723 275.328 206.307 274.816C205.891 274.293 205.272 274.032 204.451 274.032C203.576 274.032 202.893 274.336 202.403 274.944C201.912 275.541 201.667 276.336 201.667 277.328V277.44C201.667 278.506 201.928 279.317 202.451 279.872C202.984 280.426 203.725 280.704 204.675 280.704C205.165 280.704 205.624 280.629 206.051 280.48C206.477 280.33 206.888 280.074 207.283 279.712L207.683 280.432C207.341 280.784 206.899 281.056 206.355 281.248C205.811 281.44 205.245 281.536 204.659 281.536ZM209.89 281.408V275.264C209.89 274.954 209.879 274.645 209.858 274.336C209.847 274.016 209.821 273.701 209.778 273.392H210.738L210.866 275.232L210.674 275.248C210.781 274.8 210.973 274.432 211.25 274.144C211.527 273.845 211.847 273.621 212.21 273.472C212.573 273.322 212.946 273.248 213.33 273.248C213.469 273.248 213.597 273.258 213.714 273.28C213.842 273.29 213.959 273.312 214.066 273.344L214.034 274.224C213.906 274.181 213.778 274.154 213.65 274.144C213.522 274.133 213.383 274.128 213.234 274.128C212.754 274.128 212.333 274.245 211.97 274.48C211.618 274.714 211.346 275.013 211.154 275.376C210.962 275.738 210.866 276.106 210.866 276.48V281.408H209.89ZM218.446 281.536C217.721 281.536 217.091 281.37 216.558 281.04C216.025 280.709 215.614 280.234 215.326 279.616C215.038 278.997 214.894 278.256 214.894 277.392C214.894 276.528 215.038 275.792 215.326 275.184C215.625 274.565 216.041 274.09 216.574 273.76C217.107 273.418 217.731 273.248 218.446 273.248C219.182 273.248 219.817 273.44 220.35 273.824C220.894 274.208 221.251 274.73 221.422 275.392H221.23L221.39 273.392H222.334C222.302 273.701 222.27 274.005 222.238 274.304C222.217 274.602 222.206 274.896 222.206 275.184V281.408H221.23V279.408H221.406C221.235 280.069 220.878 280.592 220.334 280.976C219.801 281.349 219.171 281.536 218.446 281.536ZM218.574 280.704C219.395 280.704 220.046 280.421 220.526 279.856C221.006 279.29 221.246 278.469 221.246 277.392C221.246 276.314 221.006 275.493 220.526 274.928C220.046 274.362 219.395 274.08 218.574 274.08C217.753 274.08 217.097 274.362 216.606 274.928C216.126 275.493 215.886 276.314 215.886 277.392C215.886 278.469 216.126 279.29 216.606 279.856C217.097 280.421 217.753 280.704 218.574 280.704ZM224.859 281.408V269.632H225.835V281.408H224.859ZM228.772 283.104L228.276 282.704C228.532 282.426 228.697 282.17 228.772 281.936C228.847 281.701 228.884 281.466 228.884 281.232L229.108 281.408H228.244V280.032H229.604V281.056C229.604 281.429 229.545 281.786 229.428 282.128C229.311 282.469 229.092 282.794 228.772 283.104ZM239.118 281.536C238.393 281.536 237.763 281.37 237.23 281.04C236.697 280.709 236.286 280.234 235.998 279.616C235.71 278.997 235.566 278.256 235.566 277.392C235.566 276.528 235.71 275.792 235.998 275.184C236.297 274.565 236.713 274.09 237.246 273.76C237.779 273.418 238.403 273.248 239.118 273.248C239.854 273.248 240.489 273.44 241.022 273.824C241.566 274.208 241.923 274.73 242.094 275.392H241.902L242.062 273.392H243.006C242.974 273.701 242.942 274.005 242.91 274.304C242.889 274.602 242.878 274.896 242.878 275.184V281.408H241.902V279.408H242.078C241.907 280.069 241.55 280.592 241.006 280.976C240.473 281.349 239.843 281.536 239.118 281.536ZM239.246 280.704C240.067 280.704 240.718 280.421 241.198 279.856C241.678 279.29 241.918 278.469 241.918 277.392C241.918 276.314 241.678 275.493 241.198 274.928C240.718 274.362 240.067 274.08 239.246 274.08C238.425 274.08 237.769 274.362 237.278 274.928C236.798 275.493 236.558 276.314 236.558 277.392C236.558 278.469 236.798 279.29 237.278 279.856C237.769 280.421 238.425 280.704 239.246 280.704ZM245.531 281.408V275.184C245.531 274.896 245.52 274.602 245.499 274.304C245.478 274.005 245.446 273.701 245.403 273.392H246.363L246.507 275.232H246.315C246.55 274.592 246.928 274.101 247.451 273.76C247.974 273.418 248.582 273.248 249.275 273.248C250.224 273.248 250.939 273.498 251.419 274C251.91 274.501 252.155 275.285 252.155 276.352V281.408H251.179V276.432C251.179 275.61 251.014 275.018 250.683 274.656C250.352 274.282 249.84 274.096 249.147 274.096C248.336 274.096 247.691 274.341 247.211 274.832C246.742 275.322 246.507 275.984 246.507 276.816V281.408H245.531ZM257.805 281.536C257.09 281.536 256.466 281.37 255.933 281.04C255.4 280.709 254.989 280.234 254.701 279.616C254.413 278.997 254.269 278.256 254.269 277.392C254.269 276.528 254.413 275.792 254.701 275.184C254.989 274.565 255.4 274.09 255.933 273.76C256.466 273.418 257.09 273.248 257.805 273.248C258.541 273.248 259.176 273.44 259.709 273.824C260.253 274.197 260.616 274.714 260.797 275.376H260.605V269.632H261.581V281.408H260.621V279.392H260.797C260.616 280.064 260.253 280.592 259.709 280.976C259.176 281.349 258.541 281.536 257.805 281.536ZM257.933 280.704C258.744 280.704 259.394 280.421 259.885 279.856C260.386 279.29 260.637 278.469 260.637 277.392C260.637 276.314 260.386 275.493 259.885 274.928C259.394 274.362 258.744 274.08 257.933 274.08C257.122 274.08 256.472 274.362 255.981 274.928C255.501 275.493 255.261 276.314 255.261 277.392C255.261 278.469 255.501 279.29 255.981 279.856C256.472 280.421 257.122 280.704 257.933 280.704ZM270.904 281.536C270.19 281.536 269.64 281.322 269.256 280.896C268.883 280.469 268.696 279.813 268.696 278.928V274.176H267.096V273.392H268.696V271.152L269.672 270.832V273.392H272.04V274.176H269.672V278.784C269.672 279.456 269.779 279.941 269.992 280.24C270.206 280.538 270.547 280.688 271.016 280.688C271.23 280.688 271.416 280.666 271.576 280.624C271.747 280.581 271.891 280.533 272.008 280.48V281.344C271.88 281.397 271.715 281.44 271.512 281.472C271.31 281.514 271.107 281.536 270.904 281.536ZM273.687 281.408V275.264C273.687 274.954 273.676 274.645 273.655 274.336C273.644 274.016 273.618 273.701 273.575 273.392H274.535L274.663 275.232L274.471 275.248C274.578 274.8 274.77 274.432 275.047 274.144C275.324 273.845 275.644 273.621 276.007 273.472C276.37 273.322 276.743 273.248 277.127 273.248C277.266 273.248 277.394 273.258 277.511 273.28C277.639 273.29 277.756 273.312 277.863 273.344L277.831 274.224C277.703 274.181 277.575 274.154 277.447 274.144C277.319 274.133 277.18 274.128 277.031 274.128C276.551 274.128 276.13 274.245 275.767 274.48C275.415 274.714 275.143 275.013 274.951 275.376C274.759 275.738 274.663 276.106 274.663 276.48V281.408H273.687ZM282.097 281.536C281.158 281.536 280.444 281.285 279.953 280.784C279.473 280.272 279.233 279.488 279.233 278.432V273.392H280.209V278.368C280.209 279.178 280.374 279.77 280.705 280.144C281.036 280.517 281.542 280.704 282.225 280.704C282.982 280.704 283.59 280.458 284.049 279.968C284.518 279.466 284.753 278.805 284.753 277.984V273.392H285.729V281.408H284.769V279.52H284.977C284.753 280.17 284.385 280.672 283.873 281.024C283.372 281.365 282.78 281.536 282.097 281.536ZM290.983 281.536C290.364 281.536 289.783 281.445 289.239 281.264C288.705 281.082 288.263 280.832 287.911 280.512L288.295 279.792C288.689 280.112 289.116 280.352 289.575 280.512C290.033 280.661 290.513 280.736 291.015 280.736C291.697 280.736 292.215 280.608 292.567 280.352C292.919 280.096 293.095 279.749 293.095 279.312C293.095 278.97 292.983 278.693 292.759 278.48C292.535 278.266 292.161 278.106 291.639 278L290.199 277.696C289.516 277.536 289.004 277.28 288.663 276.928C288.332 276.576 288.167 276.133 288.167 275.6C288.167 275.141 288.284 274.736 288.519 274.384C288.764 274.032 289.111 273.754 289.559 273.552C290.007 273.349 290.535 273.248 291.143 273.248C291.719 273.248 292.247 273.344 292.727 273.536C293.217 273.717 293.617 273.978 293.927 274.32L293.511 275.024C293.191 274.704 292.828 274.464 292.423 274.304C292.028 274.144 291.607 274.064 291.159 274.064C290.497 274.064 289.996 274.202 289.655 274.48C289.313 274.746 289.143 275.104 289.143 275.552C289.143 275.893 289.249 276.176 289.463 276.4C289.676 276.613 290.012 276.773 290.471 276.88L291.911 277.2C292.636 277.36 293.175 277.605 293.527 277.936C293.879 278.266 294.055 278.704 294.055 279.248C294.055 279.717 293.927 280.128 293.671 280.48C293.415 280.821 293.057 281.082 292.599 281.264C292.14 281.445 291.601 281.536 290.983 281.536ZM298.811 281.536C298.096 281.536 297.547 281.322 297.163 280.896C296.789 280.469 296.603 279.813 296.603 278.928V274.176H295.003V273.392H296.603V271.152L297.579 270.832V273.392H299.947V274.176H297.579V278.784C297.579 279.456 297.685 279.941 297.899 280.24C298.112 280.538 298.453 280.688 298.923 280.688C299.136 280.688 299.323 280.666 299.483 280.624C299.653 280.581 299.797 280.533 299.915 280.48V281.344C299.787 281.397 299.621 281.44 299.419 281.472C299.216 281.514 299.013 281.536 298.811 281.536ZM304.971 281.536C303.755 281.536 302.79 281.173 302.075 280.448C301.371 279.722 301.019 278.714 301.019 277.424C301.019 276.57 301.174 275.834 301.483 275.216C301.803 274.597 302.246 274.117 302.811 273.776C303.376 273.424 304.032 273.248 304.779 273.248C305.494 273.248 306.096 273.402 306.587 273.712C307.078 274.01 307.456 274.442 307.723 275.008C307.99 275.562 308.123 276.224 308.123 276.992V277.44H301.723V276.736H307.515L307.243 276.944C307.243 276.037 307.035 275.328 306.619 274.816C306.203 274.293 305.584 274.032 304.763 274.032C303.888 274.032 303.206 274.336 302.715 274.944C302.224 275.541 301.979 276.336 301.979 277.328V277.44C301.979 278.506 302.24 279.317 302.763 279.872C303.296 280.426 304.038 280.704 304.987 280.704C305.478 280.704 305.936 280.629 306.363 280.48C306.79 280.33 307.2 280.074 307.595 279.712L307.995 280.432C307.654 280.784 307.211 281.056 306.667 281.248C306.123 281.44 305.558 281.536 304.971 281.536ZM313.243 281.536C312.528 281.536 311.904 281.37 311.371 281.04C310.837 280.709 310.427 280.234 310.139 279.616C309.851 278.997 309.707 278.256 309.707 277.392C309.707 276.528 309.851 275.792 310.139 275.184C310.427 274.565 310.837 274.09 311.371 273.76C311.904 273.418 312.528 273.248 313.243 273.248C313.979 273.248 314.613 273.44 315.147 273.824C315.691 274.197 316.053 274.714 316.235 275.376H316.043V269.632H317.019V281.408H316.059V279.392H316.235C316.053 280.064 315.691 280.592 315.147 280.976C314.613 281.349 313.979 281.536 313.243 281.536ZM313.371 280.704C314.181 280.704 314.832 280.421 315.323 279.856C315.824 279.29 316.075 278.469 316.075 277.392C316.075 276.314 315.824 275.493 315.323 274.928C314.832 274.362 314.181 274.08 313.371 274.08C312.56 274.08 311.909 274.362 311.419 274.928C310.939 275.493 310.699 276.314 310.699 277.392C310.699 278.469 310.939 279.29 311.419 279.856C311.909 280.421 312.56 280.704 313.371 280.704ZM80.328 309.408V297.632H81.304V303.248H81.112C81.336 302.597 81.7147 302.101 82.248 301.76C82.7813 301.418 83.4 301.248 84.104 301.248C85.0747 301.248 85.7893 301.504 86.248 302.016C86.7173 302.528 86.952 303.296 86.952 304.32V309.408H85.976V304.4C85.976 303.589 85.816 303.002 85.496 302.64C85.176 302.277 84.664 302.096 83.96 302.096C83.16 302.096 82.5147 302.341 82.024 302.832C81.544 303.322 81.304 303.973 81.304 304.784V309.408H80.328ZM92.746 309.536C91.9887 309.536 91.3327 309.37 90.778 309.04C90.234 308.709 89.8127 308.234 89.514 307.616C89.2153 306.997 89.066 306.256 89.066 305.392C89.066 304.538 89.2153 303.802 89.514 303.184C89.8127 302.565 90.234 302.09 90.778 301.76C91.3327 301.418 91.9887 301.248 92.746 301.248C93.4927 301.248 94.138 301.418 94.682 301.76C95.2367 302.09 95.6633 302.565 95.962 303.184C96.2713 303.802 96.426 304.538 96.426 305.392C96.426 306.256 96.2713 306.997 95.962 307.616C95.6633 308.234 95.2367 308.709 94.682 309.04C94.138 309.37 93.4927 309.536 92.746 309.536ZM92.746 308.704C93.5567 308.704 94.2073 308.421 94.698 307.856C95.1887 307.29 95.434 306.469 95.434 305.392C95.434 304.314 95.1887 303.493 94.698 302.928C94.2073 302.362 93.5567 302.08 92.746 302.08C91.9247 302.08 91.2687 302.362 90.778 302.928C90.298 303.493 90.058 304.314 90.058 305.392C90.058 306.469 90.298 307.29 90.778 307.856C91.2687 308.421 91.9247 308.704 92.746 308.704ZM101.154 309.536C100.536 309.536 99.9544 309.445 99.4104 309.264C98.877 309.082 98.4344 308.832 98.0824 308.512L98.4664 307.792C98.861 308.112 99.2877 308.352 99.7464 308.512C100.205 308.661 100.685 308.736 101.186 308.736C101.869 308.736 102.386 308.608 102.738 308.352C103.09 308.096 103.266 307.749 103.266 307.312C103.266 306.97 103.154 306.693 102.93 306.48C102.706 306.266 102.333 306.106 101.81 306L100.37 305.696C99.6877 305.536 99.1757 305.28 98.8344 304.928C98.5037 304.576 98.3384 304.133 98.3384 303.6C98.3384 303.141 98.4557 302.736 98.6904 302.384C98.9357 302.032 99.2824 301.754 99.7304 301.552C100.178 301.349 100.706 301.248 101.314 301.248C101.89 301.248 102.418 301.344 102.898 301.536C103.389 301.717 103.789 301.978 104.098 302.32L103.682 303.024C103.362 302.704 103 302.464 102.594 302.304C102.2 302.144 101.778 302.064 101.33 302.064C100.669 302.064 100.168 302.202 99.8264 302.48C99.485 302.746 99.3144 303.104 99.3144 303.552C99.3144 303.893 99.421 304.176 99.6344 304.4C99.8477 304.613 100.184 304.773 100.642 304.88L102.082 305.2C102.808 305.36 103.346 305.605 103.698 305.936C104.05 306.266 104.226 306.704 104.226 307.248C104.226 307.717 104.098 308.128 103.842 308.48C103.586 308.821 103.229 309.082 102.77 309.264C102.312 309.445 101.773 309.536 101.154 309.536ZM106.469 312.864V303.184C106.469 302.896 106.458 302.602 106.437 302.304C106.415 302.005 106.383 301.701 106.341 301.392H107.301L107.461 303.392H107.269C107.45 302.73 107.802 302.208 108.325 301.824C108.847 301.44 109.482 301.248 110.229 301.248C110.954 301.248 111.578 301.418 112.101 301.76C112.634 302.09 113.05 302.565 113.349 303.184C113.647 303.792 113.797 304.528 113.797 305.392C113.797 306.256 113.647 306.997 113.349 307.616C113.061 308.234 112.65 308.709 112.117 309.04C111.583 309.37 110.954 309.536 110.229 309.536C109.493 309.536 108.858 309.349 108.325 308.976C107.802 308.592 107.45 308.069 107.269 307.408H107.445V312.864H106.469ZM110.101 308.704C110.922 308.704 111.578 308.421 112.069 307.856C112.559 307.29 112.805 306.469 112.805 305.392C112.805 304.314 112.559 303.493 112.069 302.928C111.578 302.362 110.922 302.08 110.101 302.08C109.29 302.08 108.639 302.362 108.149 302.928C107.669 303.493 107.429 304.314 107.429 305.392C107.429 306.469 107.669 307.29 108.149 307.856C108.639 308.421 109.29 308.704 110.101 308.704ZM115.922 309.408V301.392H116.898V309.408H115.922ZM115.762 299.424V298.208H117.074V299.424H115.762ZM122.154 309.536C121.44 309.536 120.89 309.322 120.506 308.896C120.133 308.469 119.946 307.813 119.946 306.928V302.176H118.346V301.392H119.946V299.152L120.922 298.832V301.392H123.29V302.176H120.922V306.784C120.922 307.456 121.029 307.941 121.242 308.24C121.456 308.538 121.797 308.688 122.266 308.688C122.48 308.688 122.666 308.666 122.826 308.624C122.997 308.581 123.141 308.533 123.258 308.48V309.344C123.13 309.397 122.965 309.44 122.762 309.472C122.56 309.514 122.357 309.536 122.154 309.536ZM127.993 309.536C127.268 309.536 126.638 309.37 126.105 309.04C125.572 308.709 125.161 308.234 124.873 307.616C124.585 306.997 124.441 306.256 124.441 305.392C124.441 304.528 124.585 303.792 124.873 303.184C125.172 302.565 125.588 302.09 126.121 301.76C126.654 301.418 127.278 301.248 127.993 301.248C128.729 301.248 129.364 301.44 129.897 301.824C130.441 302.208 130.798 302.73 130.969 303.392H130.777L130.937 301.392H131.881C131.849 301.701 131.817 302.005 131.785 302.304C131.764 302.602 131.753 302.896 131.753 303.184V309.408H130.777V307.408H130.953C130.782 308.069 130.425 308.592 129.881 308.976C129.348 309.349 128.718 309.536 127.993 309.536ZM128.121 308.704C128.942 308.704 129.593 308.421 130.073 307.856C130.553 307.29 130.793 306.469 130.793 305.392C130.793 304.314 130.553 303.493 130.073 302.928C129.593 302.362 128.942 302.08 128.121 302.08C127.3 302.08 126.644 302.362 126.153 302.928C125.673 303.493 125.433 304.314 125.433 305.392C125.433 306.469 125.673 307.29 126.153 307.856C126.644 308.421 127.3 308.704 128.121 308.704ZM134.406 309.408V297.632H135.382V309.408H134.406ZM140.639 309.536C140.02 309.536 139.439 309.445 138.895 309.264C138.361 309.082 137.919 308.832 137.567 308.512L137.951 307.792C138.345 308.112 138.772 308.352 139.231 308.512C139.689 308.661 140.169 308.736 140.671 308.736C141.353 308.736 141.871 308.608 142.223 308.352C142.575 308.096 142.751 307.749 142.751 307.312C142.751 306.97 142.639 306.693 142.415 306.48C142.191 306.266 141.817 306.106 141.295 306L139.855 305.696C139.172 305.536 138.66 305.28 138.319 304.928C137.988 304.576 137.823 304.133 137.823 303.6C137.823 303.141 137.94 302.736 138.175 302.384C138.42 302.032 138.767 301.754 139.215 301.552C139.663 301.349 140.191 301.248 140.799 301.248C141.375 301.248 141.903 301.344 142.383 301.536C142.873 301.717 143.273 301.978 143.583 302.32L143.167 303.024C142.847 302.704 142.484 302.464 142.079 302.304C141.684 302.144 141.263 302.064 140.815 302.064C140.153 302.064 139.652 302.202 139.311 302.48C138.969 302.746 138.799 303.104 138.799 303.552C138.799 303.893 138.905 304.176 139.119 304.4C139.332 304.613 139.668 304.773 140.127 304.88L141.567 305.2C142.292 305.36 142.831 305.605 143.183 305.936C143.535 306.266 143.711 306.704 143.711 307.248C143.711 307.717 143.583 308.128 143.327 308.48C143.071 308.821 142.713 309.082 142.255 309.264C141.796 309.445 141.257 309.536 140.639 309.536Z" fill="#7D7987"/>
<g clip-path="url(#clip0_63_2663)">
<path d="M133.216 107.315L124.138 115.98L85.8034 152.566C84.797 153.529 83.506 154.01 82.215 154.01C80.802 154.01 79.3889 153.437 78.3622 152.3C76.3393 150.067 76.6036 146.574 78.9315 144.669L124.138 107.827L129.119 103.771L133.216 107.315Z" fill="url(#paint0_linear_63_2663)"/>
<path d="M123.741 116.421L114.806 124.942L113.982 116.185L118.872 112.201L123.741 116.421Z" fill="#3A81D6" fill-opacity="0.8"/>
<path d="M168.978 93.9078C168.978 110.429 155.681 123.826 139.295 123.826C128.966 123.826 119.868 118.51 114.552 110.439C111.431 105.707 109.611 100.023 109.611 93.9078C109.611 77.3868 122.908 64 139.295 64C146.695 64 153.455 66.7245 158.65 71.2311C164.973 76.7211 168.978 84.8433 168.978 93.9078Z" fill="url(#paint1_linear_63_2663)"/>
<path d="M139.295 117.209C152.067 117.209 162.421 106.777 162.421 93.9078C162.421 81.0387 152.067 70.6063 139.295 70.6063C126.522 70.6063 116.168 81.0387 116.168 93.9078C116.168 106.777 126.522 117.209 139.295 117.209Z" fill="white"/>
<path opacity="0.06" d="M168.978 93.9078C168.978 110.429 155.681 123.826 139.295 123.826C128.966 123.826 119.868 118.51 114.552 110.439C148.027 107.694 156.851 79.1178 158.66 71.2311C164.973 76.7211 168.978 84.8433 168.978 93.9078Z" fill="#1A6FB5" fill-opacity="0.5"/>
<path d="M139.295 93.959C141.978 93.959 144.154 91.7672 144.154 89.0632C144.154 86.3592 141.978 84.1673 139.295 84.1673C136.611 84.1673 134.435 86.3592 134.435 89.0632C134.435 91.7672 136.601 93.959 139.295 93.959ZM139.295 96.407C136.052 96.407 129.576 98.0458 129.576 101.303V102.532C129.576 103.208 130.125 103.761 130.796 103.761H147.813C148.484 103.761 149.033 103.208 149.033 102.532V101.303C149.013 98.056 142.537 96.407 139.295 96.407Z" fill="url(#paint2_linear_63_2663)"/>
</g>
<defs>
<filter id="filter0_d_63_2663" x="0" y="0" width="450" height="454" filterUnits="userSpaceOnUse" color-interpolation-filters="sRGB">
<feFlood flood-opacity="0" result="BackgroundImageFix"/>
<feColorMatrix in="SourceAlpha" type="matrix" values="0 0 0 0 0 0 0 0 0 0 0 0 0 0 0 0 0 0 127 0" result="hardAlpha"/>
<feOffset dx="10" dy="40"/>
<feGaussianBlur stdDeviation="25"/>
<feColorMatrix type="matrix" values="0 0 0 0 0.897151 0 0 0 0 0.915421 0 0 0 0 0.962796 0 0 0 0.4 0"/>
<feBlend mode="normal" in2="BackgroundImageFix" result="effect1_dropShadow_63_2663"/>
<feBlend mode="normal" in="SourceGraphic" in2="effect1_dropShadow_63_2663" result="shape"/>
</filter>
<linearGradient id="paint0_linear_63_2663" x1="82.6747" y1="148.327" x2="130.924" y2="104.792" gradientUnits="userSpaceOnUse">
<stop stop-color="#67C3F3"/>
<stop offset="1" stop-color="#5A98F2"/>
</linearGradient>
<linearGradient id="paint1_linear_63_2663" x1="127.017" y1="66.1134" x2="149.782" y2="116.905" gradientUnits="userSpaceOnUse">
<stop stop-color="#67C3F3"/>
<stop offset="1" stop-color="#5A98F2"/>
</linearGradient>
<linearGradient id="paint2_linear_63_2663" x1="132.269" y1="92.3947" x2="149.92" y2="100.939" gradientUnits="userSpaceOnUse">
<stop stop-color="#B0F4FF"/>
<stop offset="0.071077" stop-color="#A6F1FF"/>
<stop offset="0.2937" stop-color="#8BE8FD"/>
<stop offset="0.5209" stop-color="#78E1FD"/>
<stop offset="0.7536" stop-color="#6DDDFC"/>
<stop offset="1" stop-color="#69DCFC"/>
</linearGradient>
<clipPath id="clip0_63_2663">
<rect width="91.978" height="90" fill="white" transform="translate(77 64)"/>
</clipPath>
</defs>
</svg>
