<svg width="450" height="454" viewBox="0 0 450 454" fill="none" xmlns="http://www.w3.org/2000/svg">
<g filter="url(#filter0_d_63_2668)">
<rect x="40" y="10" width="350" height="354" rx="20" fill="white"/>
</g>
<g clip-path="url(#clip0_63_2668)">
<path d="M147.422 66.3103V152.705C147.422 155.09 145.496 157.016 143.112 157.016H82.3103C79.9262 157 78 155.074 78 152.705V66.3103C78 63.9262 79.9262 62 82.3103 62H143.128C145.496 62 147.422 63.9262 147.422 66.3103Z" fill="url(#paint0_linear_63_2668)"/>
<path d="M143 69.9467V149.053C143 151.236 141.307 153 139.213 153H85.7874C83.6925 152.986 82 151.222 82 149.053V69.9467C82 67.7637 83.6925 66 85.7874 66H139.227C141.307 66 143 67.7637 143 69.9467Z" fill="url(#paint1_linear_63_2668)"/>
<path d="M104.872 80.2516V84.183C104.872 84.4672 104.651 84.6882 104.367 84.6882H99.5514C99.2672 84.6882 99.0462 84.9093 99.0462 85.1935V90.009C99.0462 90.2932 98.8252 90.5142 98.541 90.5142H94.6096C94.3254 90.5142 94.1044 90.2932 94.1044 90.009V85.1935C94.1044 84.9093 93.8833 84.6882 93.5991 84.6882H88.7994C88.5152 84.6882 88.2942 84.4672 88.2942 84.183V80.2516C88.2942 79.9674 88.5152 79.7464 88.7994 79.7464H93.6149C93.8991 79.7464 94.1202 79.5254 94.1202 79.2412V74.4256C94.1202 74.1415 94.3412 73.9204 94.6254 73.9204H98.5567C98.8409 73.9204 99.062 74.1415 99.062 74.4256V79.2412C99.062 79.5254 99.283 79.7464 99.5672 79.7464H104.367C104.651 79.7464 104.872 79.9674 104.872 80.2516Z" fill="url(#paint2_linear_63_2668)"/>
<path opacity="0.5" d="M136.576 101.677H88.8468C88.531 101.677 88.2784 101.424 88.2784 101.108V99.2926C88.2784 98.9769 88.531 98.7242 88.8468 98.7242H136.576C136.891 98.7242 137.144 98.9769 137.144 99.2926V101.108C137.128 101.424 136.891 101.677 136.576 101.677Z" fill="url(#paint3_linear_63_2668)"/>
<path d="M136.576 79.0517H112.893C112.577 79.0517 112.324 78.7991 112.324 78.4833V76.6834C112.324 76.3676 112.577 76.115 112.893 76.115H136.576C136.891 76.115 137.144 76.3676 137.144 76.6834V78.4991C137.128 78.7991 136.891 79.0517 136.576 79.0517Z" fill="url(#paint4_linear_63_2668)"/>
<path opacity="0.5" d="M129.566 86.7249H112.893C112.577 86.7249 112.324 86.4723 112.324 86.1565V84.3408C112.324 84.0251 112.577 83.7725 112.893 83.7725H129.566C129.881 83.7725 130.134 84.0251 130.134 84.3408V86.1565C130.118 86.4723 129.881 86.7249 129.566 86.7249Z" fill="url(#paint5_linear_63_2668)"/>
<path opacity="0.5" d="M136.576 110.297H88.8468C88.531 110.297 88.2784 110.045 88.2784 109.729V107.913C88.2784 107.597 88.531 107.345 88.8468 107.345H136.576C136.891 107.345 137.144 107.597 137.144 107.913V109.729C137.128 110.045 136.891 110.297 136.576 110.297Z" fill="url(#paint6_linear_63_2668)"/>
<path opacity="0.5" d="M136.576 118.918H88.8468C88.531 118.918 88.2784 118.665 88.2784 118.35V116.534C88.2784 116.218 88.531 115.965 88.8468 115.965H136.576C136.891 115.965 137.144 116.218 137.144 116.534V118.365C137.128 118.665 136.891 118.918 136.576 118.918Z" fill="url(#paint7_linear_63_2668)"/>
<path opacity="0.5" d="M136.576 127.554H88.8468C88.531 127.554 88.2784 127.302 88.2784 126.986V125.17C88.2784 124.854 88.531 124.602 88.8468 124.602H136.576C136.891 124.602 137.144 124.854 137.144 125.17V126.986C137.128 127.302 136.891 127.554 136.576 127.554Z" fill="url(#paint8_linear_63_2668)"/>
<path opacity="0.5" d="M136.576 136.175H88.8468C88.531 136.175 88.2784 135.922 88.2784 135.607V133.791C88.2784 133.475 88.531 133.222 88.8468 133.222H136.576C136.891 133.222 137.144 133.475 137.144 133.791V135.607C137.128 135.922 136.891 136.175 136.576 136.175Z" fill="url(#paint9_linear_63_2668)"/>
<path opacity="0.5" d="M136.576 144.795H88.8468C88.531 144.795 88.2784 144.543 88.2784 144.227V142.411C88.2784 142.096 88.531 141.843 88.8468 141.843H136.576C136.891 141.843 137.144 142.096 137.144 142.411V144.227C137.128 144.543 136.891 144.795 136.576 144.795Z" fill="url(#paint10_linear_63_2668)"/>
<path opacity="0.1" d="M147.422 66.3103V152.705C147.422 155.09 145.496 157.016 143.112 157.016H82.3103C79.9262 157 78 155.074 78 152.705V151.206C115.087 135.891 132.36 77.1571 136.26 62H143.112C145.496 62 147.422 63.9262 147.422 66.3103Z" fill="#1A6FB5" fill-opacity="0.4"/>
</g>
<path d="M84.2209 198.864H78.6529V196.32H92.9329V198.864H87.3409V213.408H84.2209V198.864ZM99.4858 201C99.9498 201 100.35 201.064 100.686 201.192L100.662 203.928C100.15 203.72 99.6218 203.616 99.0778 203.616C98.0538 203.616 97.2698 203.912 96.7258 204.504C96.1978 205.096 95.9338 205.88 95.9338 206.856V213.408H92.9578V204.72C92.9578 203.44 92.8938 202.296 92.7658 201.288H95.5738L95.8138 203.424C96.1178 202.64 96.5978 202.04 97.2538 201.624C97.9098 201.208 98.6538 201 99.4858 201ZM113.714 201.288V213.408H110.762V211.464C110.394 212.136 109.866 212.664 109.178 213.048C108.49 213.416 107.706 213.6 106.826 213.6C105.77 213.6 104.834 213.344 104.018 212.832C103.202 212.32 102.57 211.592 102.122 210.648C101.674 209.704 101.45 208.608 101.45 207.36C101.45 206.112 101.674 205.008 102.122 204.048C102.586 203.072 103.226 202.32 104.042 201.792C104.858 201.248 105.786 200.976 106.826 200.976C107.706 200.976 108.49 201.168 109.178 201.552C109.866 201.92 110.394 202.44 110.762 203.112V201.288H113.714ZM107.642 211.248C108.634 211.248 109.402 210.904 109.946 210.216C110.49 209.528 110.762 208.56 110.762 207.312C110.762 206.032 110.49 205.048 109.946 204.36C109.402 203.672 108.626 203.328 107.618 203.328C106.626 203.328 105.85 203.688 105.29 204.408C104.746 205.112 104.474 206.096 104.474 207.36C104.474 208.608 104.746 209.568 105.29 210.24C105.85 210.912 106.634 211.248 107.642 211.248ZM122.477 213.6C121.213 213.6 120.117 213.344 119.189 212.832C118.261 212.32 117.549 211.6 117.053 210.672C116.557 209.728 116.309 208.624 116.309 207.36C116.309 206.096 116.565 204.984 117.077 204.024C117.605 203.064 118.341 202.32 119.285 201.792C120.245 201.248 121.349 200.976 122.597 200.976C123.461 200.976 124.293 201.112 125.093 201.384C125.909 201.656 126.557 202.032 127.037 202.512L126.197 204.624C125.685 204.208 125.141 203.896 124.565 203.688C123.989 203.464 123.421 203.352 122.861 203.352C121.773 203.352 120.925 203.696 120.317 204.384C119.709 205.056 119.405 206.032 119.405 207.312C119.405 208.592 119.701 209.568 120.293 210.24C120.901 210.912 121.757 211.248 122.861 211.248C123.421 211.248 123.989 211.136 124.565 210.912C125.141 210.688 125.685 210.368 126.197 209.952L127.037 212.064C126.525 212.544 125.861 212.92 125.045 213.192C124.229 213.464 123.373 213.6 122.477 213.6ZM137.332 213.408L132.028 207.816V213.408H129.052V195.744H132.028V206.64L137.02 201.312H140.644L135.196 207.096L141.076 213.408H137.332ZM142.27 201.288H145.246V213.408H142.27V201.288ZM145.414 195.792V198.744H142.078V195.792H145.414ZM155.464 200.976C158.36 200.976 159.808 202.64 159.808 205.968V213.408H156.808V206.112C156.808 205.152 156.624 204.456 156.256 204.024C155.888 203.576 155.32 203.352 154.552 203.352C153.64 203.352 152.904 203.648 152.344 204.24C151.784 204.816 151.504 205.584 151.504 206.544V213.408H148.528V204.72C148.528 203.44 148.464 202.296 148.336 201.288H151.144L151.36 203.28C151.776 202.544 152.336 201.976 153.04 201.576C153.76 201.176 154.568 200.976 155.464 200.976ZM174.701 201.288V213.024C174.701 214.912 174.181 216.344 173.141 217.32C172.101 218.296 170.573 218.784 168.557 218.784C166.685 218.784 165.037 218.392 163.613 217.608L164.093 215.328C165.565 216.096 167.029 216.48 168.485 216.48C170.645 216.48 171.725 215.408 171.725 213.264V210.864C171.357 211.52 170.821 212.056 170.117 212.472C169.413 212.872 168.621 213.072 167.741 213.072C166.685 213.072 165.741 212.824 164.909 212.328C164.093 211.816 163.453 211.104 162.989 210.192C162.541 209.264 162.317 208.208 162.317 207.024C162.317 205.84 162.541 204.792 162.989 203.88C163.453 202.952 164.093 202.24 164.909 201.744C165.741 201.232 166.685 200.976 167.741 200.976C168.637 200.976 169.429 201.168 170.117 201.552C170.821 201.92 171.357 202.44 171.725 203.112V201.288H174.701ZM168.533 210.72C169.525 210.72 170.301 210.392 170.861 209.736C171.437 209.08 171.725 208.176 171.725 207.024C171.725 205.872 171.445 204.968 170.885 204.312C170.325 203.656 169.541 203.328 168.533 203.328C167.541 203.328 166.757 203.656 166.181 204.312C165.621 204.968 165.341 205.872 165.341 207.024C165.341 208.176 165.621 209.08 166.181 209.736C166.757 210.392 167.541 210.72 168.533 210.72Z" fill="black"/>
<path d="M83.272 242.472H79.192V241.608H88.344V242.472H84.264V253H83.272V242.472ZM92.0965 244.792C92.3632 244.792 92.5978 244.813 92.8005 244.856L92.7525 245.736C92.5498 245.693 92.3045 245.672 92.0165 245.672C91.2058 245.672 90.5978 245.933 90.1925 246.456C89.7978 246.968 89.6005 247.581 89.6005 248.296V253H88.6405V247.208C88.6405 246.376 88.5978 245.635 88.5125 244.984H89.4405L89.5685 246.472C89.7712 245.928 90.0965 245.512 90.5445 245.224C91.0032 244.936 91.5205 244.792 92.0965 244.792ZM100.862 244.984V253H99.8864V251.464C99.6517 251.997 99.2944 252.408 98.8144 252.696C98.345 252.973 97.7797 253.112 97.1184 253.112C96.4037 253.112 95.7744 252.947 95.2304 252.616C94.697 252.275 94.281 251.795 93.9824 251.176C93.6944 250.547 93.5504 249.816 93.5504 248.984C93.5504 248.152 93.6997 247.421 93.9984 246.792C94.297 246.152 94.713 245.661 95.2464 245.32C95.7904 244.968 96.4144 244.792 97.1184 244.792C97.769 244.792 98.329 244.931 98.7984 245.208C99.2784 245.485 99.641 245.891 99.8864 246.424V244.984H100.862ZM97.2624 252.248C98.0944 252.248 98.7397 251.96 99.1984 251.384C99.657 250.808 99.8864 249.997 99.8864 248.952C99.8864 247.896 99.657 247.08 99.1984 246.504C98.7397 245.928 98.089 245.64 97.2464 245.64C96.4037 245.64 95.7477 245.939 95.2784 246.536C94.809 247.123 94.5744 247.939 94.5744 248.984C94.5744 250.019 94.809 250.824 95.2784 251.4C95.7477 251.965 96.409 252.248 97.2624 252.248ZM106.764 253.112C106.006 253.112 105.345 252.941 104.78 252.6C104.214 252.259 103.777 251.779 103.468 251.16C103.158 250.531 103.004 249.805 103.004 248.984C103.004 248.152 103.158 247.421 103.468 246.792C103.777 246.152 104.22 245.661 104.796 245.32C105.372 244.968 106.038 244.792 106.796 244.792C107.34 244.792 107.857 244.888 108.348 245.08C108.849 245.261 109.26 245.517 109.58 245.848L109.196 246.616C108.78 246.275 108.38 246.029 107.996 245.88C107.622 245.72 107.233 245.64 106.828 245.64C105.964 245.64 105.281 245.939 104.78 246.536C104.278 247.123 104.028 247.939 104.028 248.984C104.028 250.008 104.273 250.808 104.764 251.384C105.265 251.96 105.953 252.248 106.828 252.248C107.233 252.248 107.622 252.173 107.996 252.024C108.38 251.864 108.78 251.619 109.196 251.288L109.58 252.04C109.238 252.371 108.812 252.632 108.3 252.824C107.798 253.016 107.286 253.112 106.764 253.112ZM116.735 253L112.319 249.096V253H111.359V241.224H112.319V248.712L116.351 244.984H117.615L113.423 248.84L118.063 253H116.735ZM130.206 244.984V253H129.23V251.464C128.995 251.997 128.638 252.408 128.158 252.696C127.689 252.973 127.123 253.112 126.462 253.112C125.747 253.112 125.118 252.947 124.574 252.616C124.041 252.275 123.625 251.795 123.326 251.176C123.038 250.547 122.894 249.816 122.894 248.984C122.894 248.152 123.043 247.421 123.342 246.792C123.641 246.152 124.057 245.661 124.59 245.32C125.134 244.968 125.758 244.792 126.462 244.792C127.113 244.792 127.673 244.931 128.142 245.208C128.622 245.485 128.985 245.891 129.23 246.424V244.984H130.206ZM126.606 252.248C127.438 252.248 128.083 251.96 128.542 251.384C129.001 250.808 129.23 249.997 129.23 248.952C129.23 247.896 129.001 247.08 128.542 246.504C128.083 245.928 127.433 245.64 126.59 245.64C125.747 245.64 125.091 245.939 124.622 246.536C124.153 247.123 123.918 247.939 123.918 248.984C123.918 250.019 124.153 250.824 124.622 251.4C125.091 251.965 125.753 252.248 126.606 252.248ZM136.587 244.792C138.518 244.792 139.483 245.827 139.483 247.896V253H138.507V247.96C138.507 247.16 138.342 246.573 138.011 246.2C137.691 245.827 137.185 245.64 136.491 245.64C135.691 245.64 135.046 245.885 134.555 246.376C134.065 246.867 133.819 247.528 133.819 248.36V253H132.859V247.208C132.859 246.376 132.817 245.635 132.731 244.984H133.659L133.787 246.456C134.033 245.912 134.401 245.501 134.891 245.224C135.382 244.936 135.947 244.792 136.587 244.792ZM148.909 241.224V253H147.933V251.464C147.699 251.997 147.341 252.408 146.861 252.696C146.392 252.973 145.827 253.112 145.165 253.112C144.461 253.112 143.837 252.941 143.293 252.6C142.76 252.248 142.344 251.757 142.045 251.128C141.747 250.488 141.597 249.752 141.597 248.92C141.597 248.088 141.741 247.363 142.029 246.744C142.328 246.115 142.744 245.635 143.277 245.304C143.821 244.963 144.451 244.792 145.165 244.792C145.816 244.792 146.376 244.931 146.845 245.208C147.325 245.485 147.688 245.891 147.933 246.424V241.224H148.909ZM145.293 252.248C146.136 252.248 146.787 251.96 147.245 251.384C147.704 250.808 147.933 249.997 147.933 248.952C147.933 247.907 147.704 247.096 147.245 246.52C146.787 245.933 146.141 245.64 145.309 245.64C144.456 245.64 143.795 245.928 143.325 246.504C142.856 247.08 142.621 247.885 142.621 248.92C142.621 249.965 142.856 250.781 143.325 251.368C143.795 251.955 144.451 252.248 145.293 252.248ZM158.249 253.112C156.947 253.112 155.918 252.755 155.161 252.04L155.513 251.288C155.939 251.64 156.366 251.891 156.793 252.04C157.23 252.189 157.731 252.264 158.297 252.264C158.958 252.264 159.459 252.152 159.801 251.928C160.153 251.693 160.329 251.357 160.329 250.92C160.329 250.557 160.211 250.275 159.977 250.072C159.753 249.859 159.379 249.688 158.857 249.56L157.497 249.256C156.857 249.107 156.35 248.84 155.977 248.456C155.614 248.072 155.433 247.624 155.433 247.112C155.433 246.408 155.699 245.848 156.233 245.432C156.777 245.005 157.497 244.792 158.393 244.792C158.958 244.792 159.481 244.883 159.961 245.064C160.451 245.245 160.857 245.507 161.177 245.848L160.809 246.6C160.073 245.96 159.267 245.64 158.393 245.64C157.774 245.64 157.294 245.763 156.953 246.008C156.611 246.253 156.441 246.595 156.441 247.032C156.441 247.395 156.547 247.688 156.761 247.912C156.985 248.136 157.326 248.301 157.785 248.408L159.161 248.744C160.601 249.064 161.321 249.773 161.321 250.872C161.321 251.544 161.043 252.088 160.489 252.504C159.934 252.909 159.187 253.112 158.249 253.112ZM170.347 244.984V253H169.371V251.464C169.136 251.997 168.779 252.408 168.299 252.696C167.829 252.973 167.264 253.112 166.603 253.112C165.888 253.112 165.259 252.947 164.715 252.616C164.181 252.275 163.765 251.795 163.467 251.176C163.179 250.547 163.035 249.816 163.035 248.984C163.035 248.152 163.184 247.421 163.483 246.792C163.781 246.152 164.197 245.661 164.731 245.32C165.275 244.968 165.899 244.792 166.603 244.792C167.253 244.792 167.813 244.931 168.283 245.208C168.763 245.485 169.125 245.891 169.371 246.424V244.984H170.347ZM166.747 252.248C167.579 252.248 168.224 251.96 168.683 251.384C169.141 250.808 169.371 249.997 169.371 248.952C169.371 247.896 169.141 247.08 168.683 246.504C168.224 245.928 167.573 245.64 166.731 245.64C165.888 245.64 165.232 245.939 164.763 246.536C164.293 247.123 164.059 247.939 164.059 248.984C164.059 250.019 164.293 250.824 164.763 251.4C165.232 251.965 165.893 252.248 166.747 252.248ZM179.8 244.984L176.36 253H175.352L171.96 244.984H173L175.896 252.024L178.808 244.984H179.8ZM181.84 248.872V248.92C181.84 249.997 182.085 250.824 182.576 251.4C183.077 251.965 183.803 252.248 184.752 252.248C185.712 252.248 186.592 251.917 187.392 251.256L187.776 252.024C187.424 252.355 186.976 252.621 186.432 252.824C185.888 253.016 185.328 253.112 184.752 253.112C183.536 253.112 182.576 252.744 181.872 252.008C181.168 251.272 180.816 250.259 180.816 248.968C180.816 248.147 180.971 247.421 181.28 246.792C181.6 246.152 182.043 245.661 182.608 245.32C183.173 244.968 183.824 244.792 184.56 244.792C185.616 244.792 186.437 245.133 187.024 245.816C187.621 246.499 187.92 247.448 187.92 248.664V248.872H181.84ZM184.56 245.592C183.824 245.592 183.227 245.816 182.768 246.264C182.309 246.701 182.021 247.32 181.904 248.12H186.992C186.928 247.299 186.688 246.675 186.272 246.248C185.856 245.811 185.285 245.592 184.56 245.592ZM200.894 244.984L197.118 253.832C196.744 254.707 196.275 255.347 195.71 255.752C195.155 256.168 194.456 256.461 193.614 256.632L193.422 255.864C194.19 255.683 194.766 255.448 195.15 255.16C195.544 254.872 195.875 254.419 196.142 253.8L196.478 253.016L193.054 244.984H194.094L196.99 252.024L199.902 244.984H200.894ZM205.606 253.112C204.87 253.112 204.219 252.941 203.654 252.6C203.099 252.259 202.667 251.773 202.358 251.144C202.059 250.515 201.91 249.784 201.91 248.952C201.91 248.12 202.059 247.389 202.358 246.76C202.667 246.131 203.099 245.645 203.654 245.304C204.219 244.963 204.87 244.792 205.606 244.792C206.331 244.792 206.971 244.963 207.526 245.304C208.08 245.645 208.507 246.131 208.806 246.76C209.115 247.389 209.27 248.12 209.27 248.952C209.27 249.784 209.115 250.515 208.806 251.144C208.507 251.773 208.08 252.259 207.526 252.6C206.971 252.941 206.331 253.112 205.606 253.112ZM205.59 252.248C206.443 252.248 207.099 251.965 207.558 251.4C208.027 250.824 208.262 250.008 208.262 248.952C208.262 247.907 208.027 247.096 207.558 246.52C207.088 245.933 206.438 245.64 205.606 245.64C204.763 245.64 204.107 245.933 203.638 246.52C203.168 247.096 202.934 247.907 202.934 248.952C202.934 250.019 203.163 250.835 203.622 251.4C204.08 251.965 204.736 252.248 205.59 252.248ZM217.854 244.984V253H216.91V251.544C216.654 252.056 216.291 252.445 215.822 252.712C215.353 252.979 214.814 253.112 214.206 253.112C213.267 253.112 212.558 252.851 212.078 252.328C211.598 251.805 211.358 251.032 211.358 250.008V244.984H212.318V249.944C212.318 250.733 212.478 251.315 212.798 251.688C213.118 252.061 213.614 252.248 214.286 252.248C215.075 252.248 215.705 252.003 216.174 251.512C216.643 251.011 216.878 250.349 216.878 249.528V244.984H217.854ZM223.972 244.792C224.238 244.792 224.473 244.813 224.676 244.856L224.628 245.736C224.425 245.693 224.18 245.672 223.891 245.672C223.081 245.672 222.473 245.933 222.068 246.456C221.673 246.968 221.476 247.581 221.476 248.296V253H220.516V247.208C220.516 246.376 220.473 245.635 220.388 244.984H221.316L221.444 246.472C221.646 245.928 221.972 245.512 222.42 245.224C222.878 244.936 223.396 244.792 223.972 244.792ZM238.812 244.792C240.582 244.792 241.468 245.827 241.468 247.896V253H240.492V247.96C240.492 247.149 240.348 246.563 240.06 246.2C239.772 245.827 239.313 245.64 238.684 245.64C237.948 245.64 237.366 245.885 236.94 246.376C236.524 246.867 236.316 247.533 236.316 248.376V253H235.34V247.96C235.34 247.149 235.19 246.563 234.892 246.2C234.604 245.827 234.145 245.64 233.516 245.64C232.79 245.64 232.209 245.885 231.772 246.376C231.345 246.867 231.132 247.533 231.132 248.376V253H230.172V247.208C230.172 246.376 230.129 245.635 230.044 244.984H230.972L231.1 246.424C231.324 245.891 231.654 245.485 232.092 245.208C232.54 244.931 233.057 244.792 233.644 244.792C234.934 244.792 235.761 245.315 236.124 246.36C236.348 245.869 236.694 245.485 237.164 245.208C237.644 244.931 238.193 244.792 238.812 244.792ZM244.59 248.872V248.92C244.59 249.997 244.835 250.824 245.326 251.4C245.827 251.965 246.553 252.248 247.502 252.248C248.462 252.248 249.342 251.917 250.142 251.256L250.526 252.024C250.174 252.355 249.726 252.621 249.182 252.824C248.638 253.016 248.078 253.112 247.502 253.112C246.286 253.112 245.326 252.744 244.622 252.008C243.918 251.272 243.566 250.259 243.566 248.968C243.566 248.147 243.721 247.421 244.03 246.792C244.35 246.152 244.793 245.661 245.358 245.32C245.923 244.968 246.574 244.792 247.31 244.792C248.366 244.792 249.187 245.133 249.774 245.816C250.371 246.499 250.67 247.448 250.67 248.664V248.872H244.59ZM247.31 245.592C246.574 245.592 245.977 245.816 245.518 246.264C245.059 246.701 244.771 247.32 244.654 248.12H249.742C249.678 247.299 249.438 246.675 249.022 246.248C248.606 245.811 248.035 245.592 247.31 245.592ZM259.566 241.224V253H258.59V251.464C258.355 251.997 257.998 252.408 257.518 252.696C257.048 252.973 256.483 253.112 255.822 253.112C255.118 253.112 254.494 252.941 253.95 252.6C253.416 252.248 253 251.757 252.702 251.128C252.403 250.488 252.254 249.752 252.254 248.92C252.254 248.088 252.398 247.363 252.686 246.744C252.984 246.115 253.4 245.635 253.934 245.304C254.478 244.963 255.107 244.792 255.822 244.792C256.472 244.792 257.032 244.931 257.502 245.208C257.982 245.485 258.344 245.891 258.59 246.424V241.224H259.566ZM255.95 252.248C256.792 252.248 257.443 251.96 257.902 251.384C258.36 250.808 258.59 249.997 258.59 248.952C258.59 247.907 258.36 247.096 257.902 246.52C257.443 245.933 256.798 245.64 255.966 245.64C255.112 245.64 254.451 245.928 253.982 246.504C253.512 247.08 253.278 247.885 253.278 248.92C253.278 249.965 253.512 250.781 253.982 251.368C254.451 251.955 255.107 252.248 255.95 252.248ZM262.219 244.984H263.179V253H262.219V244.984ZM263.371 241.672V242.92H262.075V241.672H263.371ZM269.107 253.112C268.35 253.112 267.689 252.941 267.123 252.6C266.558 252.259 266.121 251.779 265.811 251.16C265.502 250.531 265.347 249.805 265.347 248.984C265.347 248.152 265.502 247.421 265.811 246.792C266.121 246.152 266.563 245.661 267.139 245.32C267.715 244.968 268.382 244.792 269.139 244.792C269.683 244.792 270.201 244.888 270.691 245.08C271.193 245.261 271.603 245.517 271.923 245.848L271.539 246.616C271.123 246.275 270.723 246.029 270.339 245.88C269.966 245.72 269.577 245.64 269.171 245.64C268.307 245.64 267.625 245.939 267.123 246.536C266.622 247.123 266.371 247.939 266.371 248.984C266.371 250.008 266.617 250.808 267.107 251.384C267.609 251.96 268.297 252.248 269.171 252.248C269.577 252.248 269.966 252.173 270.339 252.024C270.723 251.864 271.123 251.619 271.539 251.288L271.923 252.04C271.582 252.371 271.155 252.632 270.643 252.824C270.142 253.016 269.63 253.112 269.107 253.112ZM280.503 244.984V253H279.527V251.464C279.292 251.997 278.935 252.408 278.455 252.696C277.986 252.973 277.42 253.112 276.759 253.112C276.044 253.112 275.415 252.947 274.871 252.616C274.338 252.275 273.922 251.795 273.623 251.176C273.335 250.547 273.191 249.816 273.191 248.984C273.191 248.152 273.34 247.421 273.639 246.792C273.938 246.152 274.354 245.661 274.887 245.32C275.431 244.968 276.055 244.792 276.759 244.792C277.41 244.792 277.97 244.931 278.439 245.208C278.919 245.485 279.282 245.891 279.527 246.424V244.984H280.503ZM276.903 252.248C277.735 252.248 278.38 251.96 278.839 251.384C279.298 250.808 279.527 249.997 279.527 248.952C279.527 247.896 279.298 247.08 278.839 246.504C278.38 245.928 277.73 245.64 276.887 245.64C276.044 245.64 275.388 245.939 274.919 246.536C274.45 247.123 274.215 247.939 274.215 248.984C274.215 250.019 274.45 250.824 274.919 251.4C275.388 251.965 276.05 252.248 276.903 252.248ZM283.156 241.224H284.116V253H283.156V241.224ZM294.603 244.792C296.534 244.792 297.499 245.827 297.499 247.896V253H296.523V247.96C296.523 247.16 296.358 246.573 296.027 246.2C295.707 245.827 295.2 245.64 294.507 245.64C293.707 245.64 293.062 245.885 292.571 246.376C292.08 246.867 291.835 247.528 291.835 248.36V253H290.875V241.224H291.835V246.376C292.091 245.853 292.459 245.459 292.939 245.192C293.419 244.925 293.974 244.792 294.603 244.792ZM300.125 244.984H301.085V253H300.125V244.984ZM301.277 241.672V242.92H299.981V241.672H301.277ZM306.374 253.112C305.072 253.112 304.043 252.755 303.286 252.04L303.638 251.288C304.064 251.64 304.491 251.891 304.918 252.04C305.355 252.189 305.856 252.264 306.422 252.264C307.083 252.264 307.584 252.152 307.926 251.928C308.278 251.693 308.454 251.357 308.454 250.92C308.454 250.557 308.336 250.275 308.102 250.072C307.878 249.859 307.504 249.688 306.982 249.56L305.622 249.256C304.982 249.107 304.475 248.84 304.102 248.456C303.739 248.072 303.558 247.624 303.558 247.112C303.558 246.408 303.824 245.848 304.358 245.432C304.902 245.005 305.622 244.792 306.518 244.792C307.083 244.792 307.606 244.883 308.086 245.064C308.576 245.245 308.982 245.507 309.302 245.848L308.934 246.6C308.198 245.96 307.392 245.64 306.518 245.64C305.899 245.64 305.419 245.763 305.078 246.008C304.736 246.253 304.566 246.595 304.566 247.032C304.566 247.395 304.672 247.688 304.886 247.912C305.11 248.136 305.451 248.301 305.91 248.408L307.286 248.744C308.726 249.064 309.446 249.773 309.446 250.872C309.446 251.544 309.168 252.088 308.614 252.504C308.059 252.909 307.312 253.112 306.374 253.112ZM312.954 245.768V250.536C312.954 251.176 313.076 251.619 313.322 251.864C313.567 252.109 313.93 252.232 314.41 252.232C314.708 252.232 314.996 252.184 315.274 252.088V252.968C314.932 253.053 314.586 253.096 314.234 253.096C313.53 253.096 312.975 252.899 312.57 252.504C312.175 252.109 311.978 251.517 311.978 250.728V245.768H310.394V244.984H311.978V242.856L312.954 242.488V244.984H315.322V245.768H312.954ZM320.168 253.112C319.432 253.112 318.782 252.941 318.216 252.6C317.662 252.259 317.23 251.773 316.92 251.144C316.622 250.515 316.472 249.784 316.472 248.952C316.472 248.12 316.622 247.389 316.92 246.76C317.23 246.131 317.662 245.645 318.216 245.304C318.782 244.963 319.432 244.792 320.168 244.792C320.894 244.792 321.534 244.963 322.088 245.304C322.643 245.645 323.07 246.131 323.368 246.76C323.678 247.389 323.832 248.12 323.832 248.952C323.832 249.784 323.678 250.515 323.368 251.144C323.07 251.773 322.643 252.259 322.088 252.6C321.534 252.941 320.894 253.112 320.168 253.112ZM320.152 252.248C321.006 252.248 321.662 251.965 322.12 251.4C322.59 250.824 322.824 250.008 322.824 248.952C322.824 247.907 322.59 247.096 322.12 246.52C321.651 245.933 321 245.64 320.168 245.64C319.326 245.64 318.67 245.933 318.2 246.52C317.731 247.096 317.496 247.907 317.496 248.952C317.496 250.019 317.726 250.835 318.184 251.4C318.643 251.965 319.299 252.248 320.152 252.248ZM329.425 244.792C329.691 244.792 329.926 244.813 330.129 244.856L330.081 245.736C329.878 245.693 329.633 245.672 329.345 245.672C328.534 245.672 327.926 245.933 327.521 246.456C327.126 246.968 326.929 247.581 326.929 248.296V253H325.969V247.208C325.969 246.376 325.926 245.635 325.841 244.984H326.769L326.897 246.472C327.099 245.928 327.425 245.512 327.873 245.224C328.331 244.936 328.849 244.792 329.425 244.792ZM338.831 244.984L335.055 253.832C334.682 254.707 334.212 255.347 333.647 255.752C333.092 256.168 332.394 256.461 331.551 256.632L331.359 255.864C332.127 255.683 332.703 255.448 333.087 255.16C333.482 254.872 333.812 254.419 334.079 253.8L334.415 253.016L330.991 244.984H332.031L334.927 252.024L337.839 244.984H338.831ZM87.128 272.984V281H86.152V279.464C85.9173 279.997 85.56 280.408 85.08 280.696C84.6107 280.973 84.0453 281.112 83.384 281.112C82.6693 281.112 82.04 280.947 81.496 280.616C80.9627 280.275 80.5467 279.795 80.248 279.176C79.96 278.547 79.816 277.816 79.816 276.984C79.816 276.152 79.9653 275.421 80.264 274.792C80.5627 274.152 80.9787 273.661 81.512 273.32C82.056 272.968 82.68 272.792 83.384 272.792C84.0347 272.792 84.5947 272.931 85.064 273.208C85.544 273.485 85.9067 273.891 86.152 274.424V272.984H87.128ZM83.528 280.248C84.36 280.248 85.0053 279.96 85.464 279.384C85.9227 278.808 86.152 277.997 86.152 276.952C86.152 275.896 85.9227 275.08 85.464 274.504C85.0053 273.928 84.3547 273.64 83.512 273.64C82.6693 273.64 82.0133 273.939 81.544 274.536C81.0747 275.123 80.84 275.939 80.84 276.984C80.84 278.019 81.0747 278.824 81.544 279.4C82.0133 279.965 82.6747 280.248 83.528 280.248ZM93.5091 272.792C95.4398 272.792 96.4051 273.827 96.4051 275.896V281H95.4291V275.96C95.4291 275.16 95.2638 274.573 94.9331 274.2C94.6131 273.827 94.1065 273.64 93.4131 273.64C92.6131 273.64 91.9678 273.885 91.4771 274.376C90.9865 274.867 90.7411 275.528 90.7411 276.36V281H89.7811V275.208C89.7811 274.376 89.7385 273.635 89.6531 272.984H90.5811L90.7091 274.456C90.9545 273.912 91.3225 273.501 91.8131 273.224C92.3038 272.936 92.8691 272.792 93.5091 272.792ZM105.831 269.224V281H104.855V279.464C104.62 279.997 104.263 280.408 103.783 280.696C103.314 280.973 102.748 281.112 102.087 281.112C101.383 281.112 100.759 280.941 100.215 280.6C99.6818 280.248 99.2658 279.757 98.9671 279.128C98.6685 278.488 98.5191 277.752 98.5191 276.92C98.5191 276.088 98.6631 275.363 98.9511 274.744C99.2498 274.115 99.6658 273.635 100.199 273.304C100.743 272.963 101.372 272.792 102.087 272.792C102.738 272.792 103.298 272.931 103.767 273.208C104.247 273.485 104.61 273.891 104.855 274.424V269.224H105.831ZM102.215 280.248C103.058 280.248 103.708 279.96 104.167 279.384C104.626 278.808 104.855 277.997 104.855 276.952C104.855 275.907 104.626 275.096 104.167 274.52C103.708 273.933 103.063 273.64 102.231 273.64C101.378 273.64 100.716 273.928 100.247 274.504C99.7778 275.08 99.5431 275.885 99.5431 276.92C99.5431 277.965 99.7778 278.781 100.247 279.368C100.716 279.955 101.372 280.248 102.215 280.248ZM116.29 272.792C118.221 272.792 119.186 273.827 119.186 275.896V281H118.21V275.96C118.21 275.16 118.045 274.573 117.714 274.2C117.394 273.827 116.888 273.64 116.194 273.64C115.394 273.64 114.749 273.885 114.258 274.376C113.768 274.867 113.522 275.528 113.522 276.36V281H112.562V269.224H113.522V274.376C113.778 273.853 114.146 273.459 114.626 273.192C115.106 272.925 115.661 272.792 116.29 272.792ZM122.324 276.872V276.92C122.324 277.997 122.57 278.824 123.06 279.4C123.562 279.965 124.287 280.248 125.236 280.248C126.196 280.248 127.076 279.917 127.876 279.256L128.26 280.024C127.908 280.355 127.46 280.621 126.916 280.824C126.372 281.016 125.812 281.112 125.236 281.112C124.02 281.112 123.06 280.744 122.356 280.008C121.652 279.272 121.3 278.259 121.3 276.968C121.3 276.147 121.455 275.421 121.764 274.792C122.084 274.152 122.527 273.661 123.092 273.32C123.658 272.968 124.308 272.792 125.044 272.792C126.1 272.792 126.922 273.133 127.508 273.816C128.106 274.499 128.404 275.448 128.404 276.664V276.872H122.324ZM125.044 273.592C124.308 273.592 123.711 273.816 123.252 274.264C122.794 274.701 122.506 275.32 122.388 276.12H127.476C127.412 275.299 127.172 274.675 126.756 274.248C126.34 273.811 125.77 273.592 125.044 273.592ZM137.3 272.984V281H136.324V279.464C136.089 279.997 135.732 280.408 135.252 280.696C134.783 280.973 134.217 281.112 133.556 281.112C132.841 281.112 132.212 280.947 131.668 280.616C131.135 280.275 130.719 279.795 130.42 279.176C130.132 278.547 129.988 277.816 129.988 276.984C129.988 276.152 130.137 275.421 130.436 274.792C130.735 274.152 131.151 273.661 131.684 273.32C132.228 272.968 132.852 272.792 133.556 272.792C134.207 272.792 134.767 272.931 135.236 273.208C135.716 273.485 136.079 273.891 136.324 274.424V272.984H137.3ZM133.7 280.248C134.532 280.248 135.177 279.96 135.636 279.384C136.095 278.808 136.324 277.997 136.324 276.952C136.324 275.896 136.095 275.08 135.636 274.504C135.177 273.928 134.527 273.64 133.684 273.64C132.841 273.64 132.185 273.939 131.716 274.536C131.247 275.123 131.012 275.939 131.012 276.984C131.012 278.019 131.247 278.824 131.716 279.4C132.185 279.965 132.847 280.248 133.7 280.248ZM139.953 269.224H140.913V281H139.953V269.224ZM144.954 273.768V278.536C144.954 279.176 145.076 279.619 145.322 279.864C145.567 280.109 145.93 280.232 146.41 280.232C146.708 280.232 146.996 280.184 147.274 280.088V280.968C146.932 281.053 146.586 281.096 146.234 281.096C145.53 281.096 144.975 280.899 144.57 280.504C144.175 280.109 143.978 279.517 143.978 278.728V273.768H142.394V272.984H143.978V270.856L144.954 270.488V272.984H147.322V273.768H144.954ZM152.712 272.792C154.643 272.792 155.608 273.827 155.608 275.896V281H154.632V275.96C154.632 275.16 154.467 274.573 154.136 274.2C153.816 273.827 153.31 273.64 152.616 273.64C151.816 273.64 151.171 273.885 150.68 274.376C150.19 274.867 149.944 275.528 149.944 276.36V281H148.984V269.224H149.944V274.376C150.2 273.853 150.568 273.459 151.048 273.192C151.528 272.925 152.083 272.792 152.712 272.792ZM169.112 269.224V281H168.136V279.464C167.902 279.997 167.544 280.408 167.064 280.696C166.595 280.973 166.03 281.112 165.368 281.112C164.664 281.112 164.04 280.941 163.496 280.6C162.963 280.248 162.547 279.757 162.248 279.128C161.95 278.488 161.8 277.752 161.8 276.92C161.8 276.088 161.944 275.363 162.232 274.744C162.531 274.115 162.947 273.635 163.48 273.304C164.024 272.963 164.654 272.792 165.368 272.792C166.019 272.792 166.579 272.931 167.048 273.208C167.528 273.485 167.891 273.891 168.136 274.424V269.224H169.112ZM165.496 280.248C166.339 280.248 166.99 279.96 167.448 279.384C167.907 278.808 168.136 277.997 168.136 276.952C168.136 275.907 167.907 275.096 167.448 274.52C166.99 273.933 166.344 273.64 165.512 273.64C164.659 273.64 163.998 273.928 163.528 274.504C163.059 275.08 162.824 275.885 162.824 276.92C162.824 277.965 163.059 278.781 163.528 279.368C163.998 279.955 164.654 280.248 165.496 280.248ZM178.566 272.984V281H177.59V279.464C177.355 279.997 176.998 280.408 176.518 280.696C176.048 280.973 175.483 281.112 174.822 281.112C174.107 281.112 173.478 280.947 172.934 280.616C172.4 280.275 171.984 279.795 171.686 279.176C171.398 278.547 171.254 277.816 171.254 276.984C171.254 276.152 171.403 275.421 171.702 274.792C172 274.152 172.416 273.661 172.95 273.32C173.494 272.968 174.118 272.792 174.822 272.792C175.472 272.792 176.032 272.931 176.502 273.208C176.982 273.485 177.344 273.891 177.59 274.424V272.984H178.566ZM174.966 280.248C175.798 280.248 176.443 279.96 176.902 279.384C177.36 278.808 177.59 277.997 177.59 276.952C177.59 275.896 177.36 275.08 176.902 274.504C176.443 273.928 175.792 273.64 174.95 273.64C174.107 273.64 173.451 273.939 172.982 274.536C172.512 275.123 172.278 275.939 172.278 276.984C172.278 278.019 172.512 278.824 172.982 279.4C173.451 279.965 174.112 280.248 174.966 280.248ZM182.579 273.768V278.536C182.579 279.176 182.701 279.619 182.947 279.864C183.192 280.109 183.555 280.232 184.035 280.232C184.333 280.232 184.621 280.184 184.899 280.088V280.968C184.557 281.053 184.211 281.096 183.859 281.096C183.155 281.096 182.6 280.899 182.195 280.504C181.8 280.109 181.603 279.517 181.603 278.728V273.768H180.019V272.984H181.603V270.856L182.579 270.488V272.984H184.947V273.768H182.579ZM193.409 272.984V281H192.433V279.464C192.199 279.997 191.841 280.408 191.361 280.696C190.892 280.973 190.327 281.112 189.665 281.112C188.951 281.112 188.321 280.947 187.777 280.616C187.244 280.275 186.828 279.795 186.529 279.176C186.241 278.547 186.097 277.816 186.097 276.984C186.097 276.152 186.247 275.421 186.545 274.792C186.844 274.152 187.26 273.661 187.793 273.32C188.337 272.968 188.961 272.792 189.665 272.792C190.316 272.792 190.876 272.931 191.345 273.208C191.825 273.485 192.188 273.891 192.433 274.424V272.984H193.409ZM189.809 280.248C190.641 280.248 191.287 279.96 191.745 279.384C192.204 278.808 192.433 277.997 192.433 276.952C192.433 275.896 192.204 275.08 191.745 274.504C191.287 273.928 190.636 273.64 189.793 273.64C188.951 273.64 188.295 273.939 187.825 274.536C187.356 275.123 187.121 275.939 187.121 276.984C187.121 278.019 187.356 278.824 187.825 279.4C188.295 279.965 188.956 280.248 189.809 280.248Z" fill="#7D7987"/>
<defs>
<filter id="filter0_d_63_2668" x="0" y="0" width="450" height="454" filterUnits="userSpaceOnUse" color-interpolation-filters="sRGB">
<feFlood flood-opacity="0" result="BackgroundImageFix"/>
<feColorMatrix in="SourceAlpha" type="matrix" values="0 0 0 0 0 0 0 0 0 0 0 0 0 0 0 0 0 0 127 0" result="hardAlpha"/>
<feOffset dx="10" dy="40"/>
<feGaussianBlur stdDeviation="25"/>
<feColorMatrix type="matrix" values="0 0 0 0 0.897151 0 0 0 0 0.915421 0 0 0 0 0.962796 0 0 0 0.4 0"/>
<feBlend mode="normal" in2="BackgroundImageFix" result="effect1_dropShadow_63_2668"/>
<feBlend mode="normal" in="SourceGraphic" in2="effect1_dropShadow_63_2668" result="shape"/>
</filter>
<linearGradient id="paint0_linear_63_2668" x1="173" y1="188" x2="72" y2="56.5" gradientUnits="userSpaceOnUse">
<stop offset="0.3061" stop-color="#5BA7FC"/>
<stop offset="1" stop-color="#69B8FC"/>
</linearGradient>
<linearGradient id="paint1_linear_63_2668" x1="86.6241" y1="69.0456" x2="135.938" y2="140.031" gradientUnits="userSpaceOnUse">
<stop offset="0.3061" stop-color="white"/>
<stop offset="1" stop-color="white"/>
</linearGradient>
<linearGradient id="paint2_linear_63_2668" x1="88" y1="71.5" x2="103" y2="96" gradientUnits="userSpaceOnUse">
<stop stop-color="#B0F4FF"/>
<stop offset="0.368525" stop-color="#80E4FD"/>
<stop offset="1" stop-color="#6CDDFC"/>
</linearGradient>
<linearGradient id="paint3_linear_63_2668" x1="88.2906" y1="100.207" x2="137.136" y2="100.207" gradientUnits="userSpaceOnUse">
<stop stop-color="#6CBCFC"/>
<stop offset="1" stop-color="#458DFC"/>
</linearGradient>
<linearGradient id="paint4_linear_63_2668" x1="112.325" y1="77.5844" x2="137.135" y2="77.5844" gradientUnits="userSpaceOnUse">
<stop stop-color="#6CBCFC"/>
<stop offset="1" stop-color="#458DFC"/>
</linearGradient>
<linearGradient id="paint5_linear_63_2668" x1="112.325" y1="85.2616" x2="130.126" y2="85.2616" gradientUnits="userSpaceOnUse">
<stop stop-color="#6CBCFC"/>
<stop offset="1" stop-color="#458DFC"/>
</linearGradient>
<linearGradient id="paint6_linear_63_2668" x1="88.2906" y1="108.832" x2="137.136" y2="108.832" gradientUnits="userSpaceOnUse">
<stop stop-color="#6CBCFC"/>
<stop offset="1" stop-color="#458DFC"/>
</linearGradient>
<linearGradient id="paint7_linear_63_2668" x1="88.2906" y1="117.456" x2="137.136" y2="117.456" gradientUnits="userSpaceOnUse">
<stop stop-color="#6CBCFC"/>
<stop offset="1" stop-color="#458DFC"/>
</linearGradient>
<linearGradient id="paint8_linear_63_2668" x1="88.2906" y1="126.081" x2="137.136" y2="126.081" gradientUnits="userSpaceOnUse">
<stop stop-color="#6CBCFC"/>
<stop offset="1" stop-color="#458DFC"/>
</linearGradient>
<linearGradient id="paint9_linear_63_2668" x1="88.2906" y1="134.705" x2="137.136" y2="134.705" gradientUnits="userSpaceOnUse">
<stop stop-color="#6CBCFC"/>
<stop offset="1" stop-color="#458DFC"/>
</linearGradient>
<linearGradient id="paint10_linear_63_2668" x1="88.2906" y1="143.33" x2="137.136" y2="143.33" gradientUnits="userSpaceOnUse">
<stop stop-color="#6CBCFC"/>
<stop offset="1" stop-color="#458DFC"/>
</linearGradient>
<clipPath id="clip0_63_2668">
<rect width="69.4225" height="95" fill="white" transform="translate(78 62)"/>
</clipPath>
</defs>
</svg>
